<?xml version="1.0" standalone="no"?>
<!DOCTYPE svg PUBLIC "-//W3C//DTD SVG 1.1//EN" "http://www.w3.org/Graphics/SVG/1.1/DTD/svg11.dtd" >
<svg xmlns="http://www.w3.org/2000/svg" xmlns:xlink="http://www.w3.org/1999/xlink" version="1.1">
<metadata></metadata>
<defs>
<font id="cera_basicbold" horiz-adv-x="1146" >
<font-face units-per-em="2048" ascent="1655" descent="-393" />
<missing-glyph horiz-adv-x="573" />
<glyph unicode=" "  horiz-adv-x="573" />
<glyph unicode="&#x09;" horiz-adv-x="573" />
<glyph unicode="&#xa0;" horiz-adv-x="573" />
<glyph unicode="!" horiz-adv-x="710" d="M518 1352l-51 -856h-225l-54 856h330zM358 356q79 0 134 -55t55 -135q0 -81 -54.5 -136t-134.5 -55q-84 0 -138 54.5t-54 136.5q0 81 54 135.5t138 54.5z" />
<glyph unicode="&#x22;" horiz-adv-x="1101" d="M496 1352l-115 -570h-211l10 570h316zM981 1352l-115 -570h-211l11 570h315z" />
<glyph unicode="#" horiz-adv-x="1292" d="M1237 780h-199l-28 -209h186v-231h-217l-47 -340h-223l45 340h-303l-48 -340h-223l45 340h-170v231h201l27 209h-185v232h217l45 340h226l-45 -340h303l45 340h225l-45 -340h168v-232zM479 559h303l31 234h-303z" />
<glyph unicode="$" horiz-adv-x="1101" d="M1010 410q0 -144 -94 -238.5t-246 -120.5v-250h-242v254q-242 52 -362 277l186 139q119 -186 309 -186q79 0 128.5 31t49.5 90q0 49 -38 78.5t-119 62.5l-140 51q-305 114 -305 356q0 124 80 212t211 120v248h242v-244q203 -41 305 -233l-184 -139q-96 139 -236 139 q-63 0 -105 -25.5t-42 -79.5q0 -46 33 -73.5t104 -55.5l153 -53q156 -58 234 -146t78 -214z" />
<glyph unicode="%" horiz-adv-x="1701" d="M434 1376q145 0 246.5 -97t101.5 -239q0 -144 -101 -241t-247 -97t-247 97t-101 241q0 142 101.5 239t246.5 97zM1352 1352l-779 -1352h-221l776 1352h224zM436 1186q-61 0 -99 -41t-38 -105q0 -66 37.5 -106.5t99.5 -40.5q58 0 96.5 41t38.5 106q0 63 -39 104.5 t-96 41.5zM1268 651q146 0 248 -97t102 -239q0 -144 -102 -241t-248 -97t-247 97t-101 241q0 142 101.5 239t246.5 97zM1270 461q-62 0 -99.5 -40.5t-37.5 -105.5t37 -105t100 -40q58 0 95.5 40.5t37.5 104.5t-38 105t-95 41z" />
<glyph unicode="&#x26;" horiz-adv-x="1380" d="M1317 602q-17 -24 -57 -82.5t-61.5 -89.5t-54.5 -75.5t-61 -78.5l228 -276h-324l-82 100q-168 -125 -366 -125q-197 0 -321 104.5t-124 272.5q0 63 19 118.5t59 106t83.5 90.5t109.5 91q-117 152 -117 295q0 145 93.5 234t248.5 89q151 0 242.5 -83t91.5 -214 q0 -100 -55 -182t-158 -166l202 -248q29 40 92.5 131t98.5 140zM588 1141q-43 0 -67.5 -24.5t-24.5 -65.5q0 -39 19 -73.5t56 -78.5q53 41 79 76.5t26 77.5q0 40 -22.5 64t-65.5 24zM555 219q98 0 190 76l-233 283q-74 -60 -107.5 -101.5t-33.5 -97.5q0 -70 50.5 -115 t133.5 -45z" />
<glyph unicode="'" horiz-adv-x="616" d="M496 1352l-115 -570h-211l10 570h316z" />
<glyph unicode="(" horiz-adv-x="747" d="M586 1513l108 -165q-67 -44 -119 -101.5t-98 -143t-71 -208t-25 -274.5q0 -517 313 -725l-108 -166q-93 42 -170.5 113.5t-141 178.5t-99.5 260.5t-36 338.5q0 187 36 341t100 260.5t141 177.5t170 113z" />
<glyph unicode=")" horiz-adv-x="747" d="M164 1513q92 -42 168.5 -113t140 -177.5t99.5 -260.5t36 -341q0 -185 -36 -339t-99.5 -260.5t-140.5 -178t-168 -113.5l-111 166q316 210 316 725q0 152 -25.5 274.5t-72 208t-99 142.5t-119.5 102z" />
<glyph unicode="*" horiz-adv-x="956" d="M877 1260l-189 -140l189 -137l-80 -137l-213 92l-27 -229h-158l-26 229l-213 -92l-80 137l186 137l-186 140l80 137l213 -92l26 229h158l27 -229l213 92z" />
<glyph unicode="+" d="M1057 539h-348v-365h-265v365h-352v233h352v361h265v-361h348v-233z" />
<glyph unicode="," horiz-adv-x="552" d="M455 252l-107 -617h-219l10 617h316z" />
<glyph unicode="-" horiz-adv-x="700" d="M608 772v-231h-516v231h516z" />
<glyph unicode="." horiz-adv-x="552" d="M279 356q81 0 134.5 -55t53.5 -135q0 -82 -53.5 -136.5t-134.5 -54.5q-83 0 -138 54.5t-55 136.5q0 80 55 135t138 55z" />
<glyph unicode="/" horiz-adv-x="1376" d="M1370 1597l-1071 -1845h-293l1071 1845h293z" />
<glyph unicode="0" horiz-adv-x="1349" d="M674 1124q161 0 296.5 -75.5t214.5 -208t79 -291.5t-79 -291t-215 -207.5t-298 -75.5q-161 0 -295.5 75.5t-212.5 207.5t-78 291t78 291.5t213 208t297 75.5zM674 870q-134 0 -219.5 -91t-85.5 -230q0 -138 85.5 -229t219.5 -91q130 0 217.5 91.5t87.5 228.5 q0 138 -87 229.5t-218 91.5z" />
<glyph unicode="1" horiz-adv-x="1056" d="M711 1100v-867h266v-233h-834v233h291v619h-270v248h547z" />
<glyph unicode="2" horiz-adv-x="1189" d="M698 233h385v-233h-1001v59l426 318q131 100 172 142q82 85 82 173q0 75 -49.5 126.5t-134.5 51.5t-134 -51.5t-49 -128.5q0 -16 8 -86h-270q-16 62 -16 113q0 77 33 150t92.5 130.5t149 92t194.5 34.5q200 0 329 -115.5t129 -289.5q0 -68 -21 -129t-64 -117t-94 -103.5 t-124 -103.5z" />
<glyph unicode="3" horiz-adv-x="1099" d="M684 610q134 -37 229 -147t95 -270q0 -203 -148.5 -334t-361.5 -131q-169 0 -297 83.5t-195 221.5l191 137q63 -94 130.5 -141t159.5 -47q104 0 171 56t67 152t-72 147.5t-207 51.5h-165v72l278 391h-450v248h872v-74z" />
<glyph unicode="4" horiz-adv-x="1179" d="M1155 233v-233h-174v-248h-274v248h-672v74l405 1026h285l-346 -867h328v381h274v-381h174z" />
<glyph unicode="5" horiz-adv-x="1132" d="M586 627q86 0 166 -28.5t145 -81t104 -136.5t39 -186q0 -136 -69.5 -243.5t-187 -165.5t-259.5 -58q-173 0 -302.5 83.5t-198.5 221.5l192 137q61 -93 132 -140.5t169 -47.5q104 0 173 57t69 154q0 95 -71 145.5t-206 50.5h-317v711h784v-248h-518v-242q83 17 156 17z " />
<glyph unicode="6" horiz-adv-x="1150" d="M625 918q114 0 216 -57t167 -164t65 -238q0 -137 -69.5 -249t-183 -173.5t-245.5 -61.5q-98 0 -188.5 36.5t-158 99.5t-108 154.5t-40.5 195.5q0 111 42.5 199t141.5 225l338 467h326l-312 -434h9zM575 229q94 0 159 66t65 164q0 97 -64.5 162t-159.5 65 q-94 0 -158.5 -65.5t-64.5 -161.5q0 -97 64.5 -163.5t158.5 -66.5z" />
<glyph unicode="7" horiz-adv-x="1075" d="M78 1100h950v-74l-618 -1274h-301l548 1100h-579v248z" />
<glyph unicode="8" horiz-adv-x="1204" d="M844 700q264 -107 264 -340q0 -176 -141 -280.5t-365 -104.5q-225 0 -366.5 104.5t-141.5 280.5q0 234 266 340q-204 119 -204 318q0 168 126 263t320 95q127 0 227 -40.5t160 -123t60 -194.5q0 -200 -205 -318zM602 1153q-82 0 -135 -39t-53 -108q0 -60 46 -101.5 t142 -85.5q96 42 142.5 84.5t46.5 104.5q0 67 -54 106t-135 39zM602 201q113 0 172.5 46.5t59.5 123.5q0 76 -58.5 123.5t-173.5 89.5q-115 -41 -173 -89t-58 -124t59.5 -123t171.5 -47z" />
<glyph unicode="9" horiz-adv-x="1150" d="M578 1124q132 0 245 -61t181.5 -173t68.5 -251q0 -110 -42 -197.5t-144 -226.5l-334 -463h-326l310 430h-11q-113 0 -214.5 57.5t-166.5 165t-65 238.5q0 137 69 248t182.5 172t246.5 61zM575 414q95 0 159.5 65t64.5 162q0 98 -64.5 163.5t-159.5 65.5q-93 0 -158 -65 t-65 -164q0 -97 65 -162t158 -65z" />
<glyph unicode=":" horiz-adv-x="552" d="M279 1032q82 0 135 -54t53 -136t-53 -135.5t-135 -53.5q-83 0 -138 53.5t-55 135.5t55 136t138 54zM279 356q81 0 134.5 -55t53.5 -135q0 -82 -53.5 -136.5t-134.5 -54.5q-83 0 -138 54.5t-55 136.5q0 80 55 135t138 55z" />
<glyph unicode=";" horiz-adv-x="552" d="M279 1032q82 0 135 -54t53 -136t-53 -135.5t-135 -53.5q-83 0 -138 53.5t-55 135.5t55 136t138 54zM455 252l-107 -617h-219l10 617h316z" />
<glyph unicode="&#x3c;" d="M1026 1114v-240l-510 -217l510 -217v-241l-950 419v76z" />
<glyph unicode="=" d="M1036 993v-233h-923v233h923zM1036 553v-234h-923v234h923z" />
<glyph unicode="&#x3e;" d="M121 1114l950 -420v-76l-950 -419v241l510 217l-510 217v240z" />
<glyph unicode="?" horiz-adv-x="925" d="M453 1376q171 0 287 -99.5t116 -258.5q0 -92 -41.5 -157.5t-128.5 -141.5q-7 -6 -23.5 -20.5t-23 -20.5t-20 -18t-19.5 -18t-16 -17t-14.5 -17.5t-11 -16t-9 -17.5t-4.5 -17t-2 -18q0 -19 4 -43h-234q-22 50 -22 98q0 35 13 67t41.5 63.5t48 49.5t59.5 51q73 62 96.5 92 t23.5 76q0 58 -38 93.5t-91 35.5q-111 0 -170 -155l-225 98q43 153 149.5 232t254.5 79zM438 356q81 0 136 -55t55 -135q0 -82 -54.5 -136.5t-136.5 -54.5q-83 0 -137.5 54.5t-54.5 136.5q0 80 54.5 135t137.5 55z" />
<glyph unicode="@" horiz-adv-x="1951" d="M1004 1364q185 0 347.5 -62.5t276 -168.5t179 -250.5t65.5 -304.5q0 -104 -28.5 -189.5t-80.5 -146t-125 -101.5t-161 -60.5t-191 -19.5h-100v101q-91 -123 -271 -123t-295.5 126t-115.5 320q0 193 116 319t295 126q176 0 265 -115v96h231v-635q240 16 240 302 q0 255 -175.5 415t-465.5 160q-205 0 -366.5 -82.5t-252 -233.5t-90.5 -345q0 -147 54 -271.5t146.5 -208.5t217 -131t264.5 -47q123 0 244 31l43 -191q-137 -51 -316 -51t-340 65t-279 178t-187.5 275t-69.5 346q0 151 47 287.5t132 243t199.5 185t255 120t292.5 41.5z M965 268q83 0 141.5 55t58.5 162q0 106 -58 161.5t-140 55.5q-87 0 -147 -59t-60 -158q0 -98 59.5 -157.5t145.5 -59.5z" />
<glyph unicode="A" horiz-adv-x="1353" d="M1028 0l-76 176h-553l-75 -176h-297l604 1376h92l602 -1376h-297zM854 403l-178 455l-178 -455h356z" />
<glyph unicode="B" horiz-adv-x="1271" d="M963 731q114 -40 176.5 -126t62.5 -208q0 -175 -124 -286t-320 -111h-467h-135v1352h266h213q188 0 308 -105t120 -272q0 -147 -100 -244zM612 1114h-190v-309h190q84 0 130 42.5t46 113.5q0 72 -45.5 112.5t-130.5 40.5zM737 238q91 0 142 45t51 125q0 78 -51.5 124 t-141.5 46h-315v-340h315z" />
<glyph unicode="C" horiz-adv-x="1474" d="M799 1376q193 0 349.5 -89.5t246.5 -246.5l-209 -147q-143 227 -387 227q-190 0 -313.5 -125t-123.5 -321q0 -194 123.5 -318.5t313.5 -124.5q244 0 387 228l209 -148q-89 -157 -246 -246.5t-352 -89.5q-148 0 -281 54t-229 147t-152.5 223.5t-56.5 276.5t56.5 276.5 t152.5 223t229.5 146.5t282.5 54z" />
<glyph unicode="D" horiz-adv-x="1413" d="M598 1352q216 0 383 -82.5t260.5 -236t93.5 -353.5q0 -197 -93 -352t-261.5 -241.5t-382.5 -86.5h-442v1352h442zM596 1102h-164v-852h164q205 0 330 118t125 312q0 197 -124 309.5t-331 112.5z" />
<glyph unicode="E" horiz-adv-x="1173" d="M1065 1352v-250h-633v-275h465v-235h-465v-342h658v-250h-934v1352h909z" />
<glyph unicode="F" horiz-adv-x="1095" d="M1044 1352v-250h-612v-338h502v-250h-502v-514h-276v1352h888z" />
<glyph unicode="G" horiz-adv-x="1529" d="M801 1376q179 0 325 -76.5t244 -216.5l-196 -161q-143 198 -377 198q-195 0 -315 -124.5t-120 -319.5q0 -199 124.5 -326t326.5 -127q116 0 207.5 44.5t148.5 123.5v111h-372v239h649v-399q-92 -165 -263 -266t-382 -101q-200 0 -366 92t-261.5 253t-95.5 356t95 356 t261 252.5t367 91.5z" />
<glyph unicode="H" horiz-adv-x="1460" d="M1307 1352v-1352h-277v584h-598v-584h-276v1352h276v-518h598v518h277z" />
<glyph unicode="I" horiz-adv-x="585" d="M432 1352v-1352h-276v1352h276z" />
<glyph unicode="J" horiz-adv-x="796" d="M641 1352v-992q0 -193 -107 -289t-305 -96q-92 0 -194 25v236q124 -9 135 -9q101 0 148 37t47 125v963h276z" />
<glyph unicode="K" horiz-adv-x="1372" d="M1346 0h-334l-580 705v-705h-276v1352h276v-629l516 629h330l-518 -637z" />
<glyph unicode="L" horiz-adv-x="1073" d="M432 1352v-1102h592v-250h-868v1352h276z" />
<glyph unicode="M" horiz-adv-x="1634" d="M1389 1376h90v-1376h-277v723l-340 -428h-90l-340 428v-723h-276v1376h90l571 -733z" />
<glyph unicode="N" horiz-adv-x="1460" d="M1030 1352h277v-1377h-93l-782 836v-811h-276v1376h90l784 -829v805z" />
<glyph unicode="O" horiz-adv-x="1593" d="M795 1376q196 0 361.5 -91.5t262.5 -252.5t97 -356q0 -146 -57 -276.5t-154 -223.5t-230 -147t-280 -54t-279.5 54t-228.5 147t-152.5 223.5t-56.5 276.5q0 195 96 356t260.5 252.5t360.5 91.5zM797 1120q-189 0 -312 -124.5t-123 -319.5q0 -196 122.5 -320.5 t312.5 -124.5q187 0 310.5 125t123.5 320q0 194 -123.5 319t-310.5 125z" />
<glyph unicode="P" horiz-adv-x="1216" d="M664 1352q215 0 351 -120t136 -317q0 -194 -136.5 -316t-350.5 -122h-232v-477h-276v1352h508zM664 1108h-232v-389h232q95 0 149.5 53.5t54.5 142.5q0 86 -54.5 139.5t-149.5 53.5z" />
<glyph unicode="Q" horiz-adv-x="1593" d="M1976 -217q41 0 189 8v-217q-111 -27 -242 -27q-275 0 -507 117t-394 346q-110 -35 -227 -35q-147 0 -279.5 54t-228.5 147t-152.5 223.5t-56.5 276.5q0 195 96 356t260.5 252.5t360.5 91.5t361.5 -91.5t262.5 -252.5t97 -356q0 -165 -71 -306t-194 -239 q137 -177 311 -262.5t414 -85.5zM362 676q0 -196 122.5 -320.5t312.5 -124.5q187 0 310.5 125t123.5 320q0 194 -123.5 319t-310.5 125q-189 0 -312 -124.5t-123 -319.5z" />
<glyph unicode="R" horiz-adv-x="1310" d="M1296 0h-311l-350 477h-203v-477h-276v1352h508q215 0 351 -120t136 -317q0 -128 -63.5 -228t-174.5 -155zM432 1108v-387h232q96 0 150 52.5t54 141.5q0 86 -54.5 139.5t-149.5 53.5h-232z" />
<glyph unicode="S" horiz-adv-x="1144" d="M580 1376q154 0 268.5 -70t177.5 -186l-188 -145q-104 155 -258 155q-72 0 -120 -33.5t-48 -97.5q0 -54 36 -85t121 -70l154 -68q112 -49 182.5 -101.5t111 -126t40.5 -167.5q0 -185 -133.5 -295.5t-339.5 -110.5q-172 0 -309 80.5t-214 218.5l191 144q66 -91 143.5 -144 t188.5 -53q89 0 140.5 40t51.5 110q0 32 -10.5 55.5t-37.5 44t-50.5 33t-73.5 35.5l-145 65q-159 72 -243.5 163.5t-84.5 225.5q0 172 127.5 277.5t321.5 105.5z" />
<glyph unicode="T" horiz-adv-x="1198" d="M1171 1352v-250h-434v-1102h-276v1102h-432v250h1142z" />
<glyph unicode="U" horiz-adv-x="1433" d="M1290 1352v-793q0 -177 -75 -311t-204.5 -203.5t-293.5 -69.5q-165 0 -294.5 69.5t-204.5 203.5t-75 311v793h277v-813q0 -147 83 -227.5t214 -80.5q132 0 214.5 80t82.5 228v813h276z" />
<glyph unicode="V" horiz-adv-x="1353" d="M1014 1352h311l-602 -1377h-92l-604 1377h313l338 -820z" />
<glyph unicode="W" horiz-adv-x="2119" d="M1761 1352h307l-540 -1377h-90l-377 846l-379 -846h-90l-541 1377h307l301 -797l355 821h92l354 -821z" />
<glyph unicode="X" horiz-adv-x="1257" d="M1229 0h-314l-286 449l-287 -449h-315l448 688l-422 664h316l260 -428l258 428h313l-414 -664z" />
<glyph unicode="Y" horiz-adv-x="1277" d="M1243 1352l-465 -820v-532h-276v530l-467 822h307l297 -537l299 537h305z" />
<glyph unicode="Z" horiz-adv-x="1204" d="M465 250h682v-250h-1106v74l678 1028h-590v250h1016v-74z" />
<glyph unicode="[" horiz-adv-x="731" d="M653 1495v-223h-233v-1315h233v-223h-469v1761h469z" />
<glyph unicode="\" horiz-adv-x="1376" d="M6 1597h293l1071 -1845h-293z" />
<glyph unicode="]" horiz-adv-x="731" d="M549 1495v-1761h-471v223h233v1315h-233v223h471z" />
<glyph unicode="^" horiz-adv-x="1097" d="M995 565h-264l-182 377l-184 -377h-265l404 807h90z" />
<glyph unicode="_" horiz-adv-x="1028" d="M956 -133v-217h-884v217h884z" />
<glyph unicode="`" horiz-adv-x="604" d="M393 1597l150 -428h-201l-281 379v49h332z" />
<glyph unicode="a" horiz-adv-x="1116" d="M553 1036q199 0 316.5 -111.5t117.5 -322.5v-602h-254v98q-117 -123 -309 -123q-162 0 -256 85.5t-94 218.5q0 137 103.5 215.5t279.5 78.5h254v45q0 85 -48.5 132t-140.5 47q-77 0 -138.5 -34.5t-129.5 -105.5l-143 170q176 209 442 209zM498 178q89 0 151 56.5 t62 144.5v12h-217q-142 0 -142 -102q0 -52 40 -81.5t106 -29.5z" />
<glyph unicode="b" horiz-adv-x="1288" d="M717 1036q214 0 352.5 -150t138.5 -380t-138.5 -380.5t-352.5 -150.5q-104 0 -188.5 40t-137.5 112v-127h-254v1536h277v-621q109 121 303 121zM666 227q112 0 187 77.5t75 203.5t-75.5 202t-186.5 76q-106 0 -181 -72t-75 -208q0 -137 75.5 -208t180.5 -71z" />
<glyph unicode="c" horiz-adv-x="1130" d="M623 1036q149 0 262 -66.5t178 -183.5l-193 -149q-97 147 -243 147q-118 0 -192.5 -78.5t-74.5 -197.5q0 -121 74.5 -200t192.5 -79q140 0 243 146l193 -148q-65 -117 -179 -184.5t-261 -67.5q-149 0 -274 70t-197 192.5t-72 270.5q0 223 157.5 375.5t385.5 152.5z" />
<glyph unicode="d" horiz-adv-x="1288" d="M874 1536h277v-1536h-254v127q-53 -73 -137 -112.5t-189 -39.5q-214 0 -352.5 150.5t-138.5 380.5t138.5 380t352.5 150q194 0 303 -121v621zM623 227q105 0 180.5 71t75.5 208q0 70 -22 125t-58.5 88t-81.5 50t-94 17q-111 0 -187 -76.5t-76 -201.5q0 -126 75.5 -203.5 t187.5 -77.5z" />
<glyph unicode="e" horiz-adv-x="1165" d="M1087 565q0 -72 -18 -151h-713q26 -96 101.5 -148.5t185.5 -52.5q150 0 283 102l114 -188q-182 -152 -405 -152q-158 0 -285.5 70t-198.5 191.5t-71 269.5q0 224 153 377t377 153q210 0 343.5 -135.5t133.5 -335.5zM600 813q-88 0 -153.5 -55t-90.5 -150h463 q-1 94 -64.5 149.5t-154.5 55.5z" />
<glyph unicode="f" horiz-adv-x="700" d="M645 1313q-95 0 -139.5 -36t-44.5 -122v-141h223v-234h-223v-780h-277v780h-143v234h143v166q0 190 104 285.5t287 95.5q77 0 152 -23v-231q-47 6 -82 6z" />
<glyph unicode="g" horiz-adv-x="1292" d="M901 1014h254v-901q0 -248 -143 -377t-381 -129q-286 0 -498 188l146 193q83 -65 160 -98t169 -33q123 0 197 60.5t74 178.5v56q-112 -121 -310 -121q-211 0 -348 140t-137 364q0 225 137.5 363t347.5 138q223 0 332 -149v127zM627 264q105 0 180.5 71.5t75.5 203.5 q0 130 -75 196t-181 66q-112 0 -187 -71t-75 -193t76.5 -197.5t185.5 -75.5z" />
<glyph unicode="h" horiz-adv-x="1198" d="M692 1036q172 0 274.5 -111.5t102.5 -295.5v-629h-274v590q0 89 -52 142.5t-137 53.5t-138.5 -54.5t-53.5 -141.5v-590h-277v1536h277v-608q108 108 278 108z" />
<glyph unicode="i" horiz-adv-x="550" d="M274 1554q74 0 126.5 -49.5t52.5 -122.5q0 -71 -52.5 -120.5t-126.5 -49.5t-125 49t-51 121q0 73 51 122.5t125 49.5zM414 1014v-1014h-277v1014h277z" />
<glyph unicode="j" horiz-adv-x="550" d="M274 1554q74 0 126.5 -49.5t52.5 -122.5q0 -71 -52.5 -120.5t-126.5 -49.5t-125 49t-51 121q0 73 51 122.5t125 49.5zM414 1014v-1026q0 -189 -104 -285t-285 -96q-83 0 -154 22v232q50 -6 84 -6q93 0 137.5 36.5t44.5 120.5v1002h277z" />
<glyph unicode="k" d="M1137 0h-316l-407 559v-559h-277v1536h277v-956l364 434h328l-381 -449z" />
<glyph unicode="l" horiz-adv-x="550" d="M414 1536v-1536h-277v1536h277z" />
<glyph unicode="m" horiz-adv-x="1826" d="M1317 1036q179 0 281 -111t102 -296v-629h-277v590q0 90 -49 143t-131 53q-83 0 -134.5 -52.5t-51.5 -137.5v-596h-277v590q0 90 -49 143t-131 53q-84 0 -135 -53t-51 -143v-590h-277v1014h254v-90q109 112 287 112q205 0 301 -145q58 68 146 106.5t192 38.5z" />
<glyph unicode="n" horiz-adv-x="1198" d="M688 1036q177 0 279 -111t102 -296v-629h-274v592q0 88 -52 142t-137 54t-138.5 -54.5t-53.5 -141.5v-592h-277v1014h254v-92q114 114 297 114z" />
<glyph unicode="o" horiz-adv-x="1245" d="M623 1036q148 0 272.5 -69t198 -190.5t73.5 -268.5q0 -148 -73.5 -270t-198.5 -191.5t-274 -69.5t-273 69.5t-196 191.5t-72 270q0 223 157.5 375.5t385.5 152.5zM623 784q-115 0 -189 -79t-74 -199t74 -197.5t189 -77.5q113 0 187.5 78.5t74.5 196.5q0 120 -74.5 199 t-187.5 79z" />
<glyph unicode="p" horiz-adv-x="1288" d="M717 1036q215 0 353 -149.5t138 -378.5q0 -230 -138.5 -381.5t-352.5 -151.5q-189 0 -303 123v-467h-277v1383h254v-127q109 149 326 149zM666 227q111 0 186.5 76.5t75.5 202.5t-75 203t-187 77q-105 0 -180.5 -70.5t-75.5 -207.5q0 -136 75 -208.5t181 -72.5z" />
<glyph unicode="q" horiz-adv-x="1288" d="M897 1014h254v-1383h-277v467q-114 -123 -303 -123q-214 0 -352.5 151.5t-138.5 381.5q0 229 138 378.5t353 149.5q217 0 326 -149v127zM623 227q49 0 94 17t81.5 50.5t58.5 88.5t22 125q0 137 -75.5 207.5t-180.5 70.5q-112 0 -187.5 -77t-75.5 -203t76 -202.5 t187 -76.5z" />
<glyph unicode="r" horiz-adv-x="794" d="M670 1026q50 0 90 -12v-244h-74q-125 0 -198.5 -66t-73.5 -198v-506h-277v1014h254v-123q51 66 123 100.5t156 34.5z" />
<glyph unicode="s" horiz-adv-x="931" d="M481 1038q227 0 365 -153l-139 -170q-104 96 -228 96q-108 0 -108 -72q0 -29 23.5 -48t82.5 -42l98 -41q147 -60 216 -128.5t69 -180.5q0 -152 -111.5 -238t-283.5 -86q-132 0 -241.5 53t-178.5 144l139 168q134 -137 285 -137q56 0 92.5 21.5t36.5 62.5q0 17 -6.5 29.5 t-24 24.5t-30 18t-43.5 20l-109 45q-140 57 -208 126.5t-68 182.5q0 143 103.5 224t268.5 81z" />
<glyph unicode="t" horiz-adv-x="851" d="M657 223q25 0 131 8v-231q-102 -25 -190 -25q-193 0 -299 95t-106 286v424h-160v234h160v256h276v-256h287v-234h-287v-399q0 -86 45 -122t143 -36z" />
<glyph unicode="u" horiz-adv-x="1187" d="M1061 1014v-568q0 -212 -132 -341.5t-333 -129.5q-204 0 -336.5 129.5t-132.5 341.5v568h276v-590q0 -88 55 -141.5t138 -53.5q80 0 134 54t54 141v590h277z" />
<glyph unicode="v" horiz-adv-x="1144" d="M827 1014h293l-502 -1039h-92l-501 1039h290l256 -576z" />
<glyph unicode="w" horiz-adv-x="1755" d="M1440 1014h291l-471 -1039h-91l-292 590l-291 -590h-90l-471 1039h290l242 -578l274 600h93l280 -587z" />
<glyph unicode="x" horiz-adv-x="1087" d="M1071 0h-309l-219 324l-217 -324h-310l373 524l-348 490h309l193 -291l194 291h310l-351 -490z" />
<glyph unicode="y" horiz-adv-x="1144" d="M829 1014h291l-485 -1102q-69 -158 -165.5 -231.5t-238.5 -73.5q-87 0 -178 24v232q94 -8 119 -8q74 0 124.5 28.5t86.5 108.5l31 67l-389 955h292l248 -666z" />
<glyph unicode="z" horiz-adv-x="958" d="M440 233h486v-233h-891v74l483 706h-436v234h840v-74z" />
<glyph unicode="{" horiz-adv-x="845" d="M649 1272q-127 0 -127 -133q0 -41 22.5 -168.5t22.5 -179.5q0 -76 -35.5 -118t-111.5 -61q78 -19 112.5 -59.5t34.5 -116.5q0 -50 -22.5 -177.5t-22.5 -170.5q0 -66 33 -99.5t94 -33.5h119v-221h-166q-315 0 -315 286q0 69 22.5 200.5t22.5 168.5q0 56 -27.5 81.5 t-85.5 25.5h-127v235h127q58 0 85.5 25.5t27.5 81.5q0 37 -22.5 168.5t-22.5 199.5q0 289 315 289h166v-223h-119z" />
<glyph unicode="|" horiz-adv-x="679" d="M455 1597v-1845h-230v1845h230z" />
<glyph unicode="}" horiz-adv-x="845" d="M627 731h125v-235h-125q-58 0 -85.5 -25.5t-27.5 -81.5q0 -37 22.5 -168.5t22.5 -200.5q0 -286 -315 -286h-166v221h117q61 0 95 33.5t34 99.5q0 43 -22.5 170.5t-22.5 177.5q0 75 34.5 116t110.5 60q-75 19 -110 61.5t-35 117.5q0 52 22.5 179.5t22.5 168.5 q0 133 -129 133h-117v223h166q315 0 315 -289q0 -68 -22.5 -199.5t-22.5 -168.5q0 -56 27.5 -81.5t85.5 -25.5z" />
<glyph unicode="~" d="M322 885q84 0 174 -54l180 -110q78 -45 112 -45q33 0 51.5 22t18.5 56v32h209q6 -27 6 -67q0 -128 -71.5 -210.5t-176.5 -82.5q-82 0 -174 53l-180 109q-73 47 -113 47q-33 0 -50 -21.5t-17 -58.5v-31h-211q-4 36 -4 68q0 127 71 210t175 83z" />
<glyph unicode="&#xa1;" horiz-adv-x="710" d="M358 1036q80 0 134.5 -53.5t54.5 -134.5t-54.5 -136t-134.5 -55q-84 0 -138 54.5t-54 136.5t54 135t138 53zM469 516l51 -885h-330l54 885h225z" />
<glyph unicode="&#xa2;" horiz-adv-x="1140" d="M614 391q146 0 246 146l191 -148q-55 -100 -147.5 -164.5t-211.5 -81.5v-342h-241v359q-170 50 -276.5 189t-106.5 319t106.5 319t276.5 189v358h241v-342q119 -17 211.5 -81.5t149.5 -164.5l-193 -147q-102 145 -246 145q-117 0 -190.5 -78t-73.5 -198t73.5 -198.5 t190.5 -78.5z" />
<glyph unicode="&#xa3;" horiz-adv-x="1165" d="M631 449q0 -124 -66 -216h510v-233h-989v59q88 65 143.5 119.5t91 123t35.5 142.5v21h-250v233h162q-29 55 -43.5 87t-29.5 87t-15 109q0 178 127 286.5t320 108.5q172 0 295.5 -94t173.5 -276l-232 -84q-63 198 -219 198q-86 0 -135 -51t-49 -133q0 -41 16 -87.5 t28 -69.5t46 -81h330v-233h-250v-16z" />
<glyph unicode="&#xa4;" horiz-adv-x="1345" d="M1169 676q0 -145 -79 -260l221 -226l-164 -163l-229 233q-114 -63 -252 -63q-132 0 -248 61l-217 -231l-166 163l211 224q-80 116 -80 262q0 139 80 258l-211 215l166 166l217 -223q116 63 248 63q136 0 256 -65l223 225l166 -166l-219 -215q77 -116 77 -258zM668 451 q95 0 157 63.5t62 161.5t-62.5 161.5t-156.5 63.5q-98 0 -158.5 -63t-60.5 -162t60.5 -162t158.5 -63z" />
<glyph unicode="&#xa5;" horiz-adv-x="1226" d="M1217 1352l-404 -584h309v-223h-368v-127h368v-223h-368v-195h-277v195h-371v223h371v127h-371v223h308l-404 584h307l297 -437l297 437h306z" />
<glyph unicode="&#xa6;" horiz-adv-x="679" d="M455 1597v-614h-230v614h230zM455 367v-615h-230v615h230z" />
<glyph unicode="&#xa7;" horiz-adv-x="1232" d="M1174 401q0 -109 -64 -184.5t-174 -110.5q4 -32 4 -49q0 -147 -104.5 -238t-278.5 -91q-133 0 -238 57t-167 162l174 141q95 -129 231 -129q123 0 123 98q0 46 -33 80.5t-121 93.5l-186 127q-149 90 -215 172t-66 187q0 109 64 184.5t174 110.5q-4 16 -4 49 q0 147 104.5 238.5t278.5 91.5q133 0 237 -57.5t166 -162.5l-174 -141q-95 129 -231 129q-123 0 -123 -98q0 -46 32.5 -79.5t123.5 -94.5l184 -127q150 -90 216.5 -172t66.5 -187zM662 424q120 -76 182 -141q69 42 69 110q0 41 -32 77t-125 99l-201 133q-106 70 -168 132 q-70 -39 -70 -109q0 -40 33 -76.5t127 -99.5z" />
<glyph unicode="&#xa8;" horiz-adv-x="940" d="M227 1544q68 0 117 -47t49 -115q0 -63 -49.5 -110t-116.5 -47q-64 0 -115 47.5t-51 109.5q0 67 50.5 114.5t115.5 47.5zM715 1544q68 0 117 -47t49 -115q0 -63 -49.5 -110t-116.5 -47q-64 0 -115 47.5t-51 109.5q0 67 50.5 114.5t115.5 47.5z" />
<glyph unicode="&#xa9;" horiz-adv-x="1593" d="M797 1376q143 0 275 -54t230 -146.5t156 -223t58 -276.5t-58.5 -276.5t-156 -223.5t-230 -147t-276.5 -54q-143 0 -275 54t-229 146t-155 222.5t-58 276.5q0 147 58 278.5t156 223.5t230 146t275 54zM795 1212q-106 0 -203 -38t-171.5 -106.5t-118.5 -171t-44 -222.5 t44 -222t118.5 -169.5t171.5 -105.5t203 -38q105 0 202 38t172.5 105.5t120.5 169.5t45 222q0 159 -77 284t-199 189.5t-264 64.5zM811 1057q187 0 309 -162l-143 -125q-70 94 -164 94q-78 0 -127 -53t-49 -135q0 -80 49.5 -133.5t126.5 -53.5q95 0 164 93l143 -125 q-123 -160 -311 -160q-163 0 -274 108.5t-111 270.5q0 163 111.5 272t275.5 109z" />
<glyph unicode="&#xaa;" horiz-adv-x="759" d="M375 1157q135 0 213 -71.5t78 -208.5v-377h-195v51q-71 -68 -184 -68q-104 0 -162.5 57.5t-58.5 143.5q0 90 66 139t183 49h138v23q0 86 -103 86q-72 0 -170 -68l-86 138q118 106 281 106zM352 635q43 0 72 27t29 71v19h-101q-34 0 -52.5 -16.5t-18.5 -43.5 q0 -26 19 -41.5t52 -15.5z" />
<glyph unicode="&#xab;" horiz-adv-x="1222" d="M459 1024l176 -154l-277 -311l277 -313l-176 -154l-400 428v74zM985 1024l176 -154l-276 -311l276 -313l-176 -154l-399 428v74z" />
<glyph unicode="&#xac;" d="M991 774v-563h-258v328h-645v235h903z" />
<glyph unicode="&#xad;" horiz-adv-x="700" d="M608 772v-231h-516v231h516z" />
<glyph unicode="&#xae;" horiz-adv-x="1175" d="M590 1417q105 0 201 -41.5t165.5 -111.5t110.5 -167.5t41 -203.5q0 -143 -69.5 -264t-189 -191.5t-259.5 -70.5q-141 0 -261.5 70.5t-190.5 191.5t-70 264q0 106 41.5 203.5t111.5 167.5t166.5 111.5t202.5 41.5zM590 496q161 0 272 114t111 283q0 168 -111 281.5 t-272 113.5q-163 0 -274 -114t-111 -281q0 -169 111 -283t274 -114zM723 823l135 -188h-158l-116 153h-58v-153h-143v514h213q90 0 148.5 -48.5t58.5 -131.5q0 -95 -80 -146zM526 1024v-113h70q26 0 42.5 15.5t16.5 40.5q0 26 -16.5 41.5t-42.5 15.5h-70z" />
<glyph unicode="&#xaf;" horiz-adv-x="741" d="M680 1491v-217h-619v217h619z" />
<glyph unicode="&#xb0;" horiz-adv-x="739" d="M371 1376q133 0 226 -92t93 -223t-93 -223.5t-226 -92.5q-134 0 -228 93t-94 223t94 222.5t228 92.5zM371 1198q-60 0 -99 -39.5t-39 -99.5q0 -58 39.5 -97.5t98.5 -39.5q60 0 98.5 39.5t38.5 97.5q0 61 -38 100t-99 39z" />
<glyph unicode="&#xb1;" d="M707 1143v-275h329v-223h-329v-289h-265v289h-329v223h329v275h265zM1036 221v-221h-923v221h923z" />
<glyph unicode="&#xb2;" horiz-adv-x="788" d="M438 930h271v-185l-641 -2v43l305 332q106 117 106 199q0 49 -27 78.5t-71 29.5t-72 -29.5t-28 -82.5q0 -10 4 -60h-203q-8 36 -8 72q0 114 85.5 201.5t223.5 87.5q131 0 219 -79t88 -200q0 -87 -46 -161.5t-140 -174.5z" />
<glyph unicode="&#xb3;" horiz-adv-x="737" d="M479 1286q78 -26 133.5 -93.5t55.5 -164.5q0 -129 -95 -214t-233 -85q-109 0 -191.5 54.5t-125.5 146.5l141 100q38 -58 77 -85t93 -27t88.5 29t34.5 81q0 98 -156 98h-98v52l159 235h-272v184h563v-55z" />
<glyph unicode="&#xb4;" horiz-adv-x="604" d="M543 1597v-49l-281 -379h-201l148 428h334z" />
<glyph unicode="&#xb5;" horiz-adv-x="1249" d="M1163 227q27 0 56 2v-229q-68 -20 -148 -20q-155 0 -219 108q-82 -113 -227 -113q-129 0 -211 95v-439h-277v1383h277v-584q0 -93 52.5 -149t135.5 -56q84 0 138.5 56t54.5 149v584h274v-662q0 -65 22.5 -95t71.5 -30z" />
<glyph unicode="&#xb6;" horiz-adv-x="1255" d="M692 1352v-908h-119q-219 0 -363 126.5t-144 330.5t142.5 327.5t364.5 123.5h119zM1102 1352v-1358q0 -195 -106 -291t-302 -96q-96 0 -190 24v236q110 -8 131 -8q98 0 144 37t46 127v1329h277z" />
<glyph unicode="&#xb7;" horiz-adv-x="552" d="M279 846q81 0 134.5 -55.5t53.5 -135.5q0 -82 -53 -136t-135 -54q-83 0 -138 54t-55 136q0 80 55 135.5t138 55.5z" />
<glyph unicode="&#xb8;" horiz-adv-x="591" d="M393 90q137 -77 137 -223q0 -112 -85 -186t-232 -74q-80 0 -152 20v183q66 -5 123 -5q59 0 93 30t34 87q0 54 -26 119z" />
<glyph unicode="&#xb9;" horiz-adv-x="757" d="M504 1597v-667h176v-185h-594v185h211v483h-193v184h400z" />
<glyph unicode="&#xba;" horiz-adv-x="819" d="M410 1157q146 0 248 -97t102 -239q0 -144 -102 -241t-248 -97q-147 0 -248 97t-101 241q0 142 101 239t248 97zM410 967q-61 0 -99.5 -40.5t-38.5 -105.5t38.5 -105t99.5 -40t99 41t38 104q0 65 -38 105.5t-99 40.5z" />
<glyph unicode="&#xbb;" horiz-adv-x="1222" d="M240 1024l397 -430v-74l-397 -428l-177 154l275 313l-275 311zM766 1024l397 -430v-74l-397 -428l-178 154l276 313l-276 311z" />
<glyph unicode="&#xbc;" horiz-adv-x="1916" d="M680 684v-184h-594v184h211v483h-193v185h400v-668h176zM1292 1352h224l-779 -1352h-221zM1896 299v-168h-100v-131h-188v131h-434v53l256 668h210l-215 -553h183v223h188v-223h100z" />
<glyph unicode="&#xbd;" horiz-adv-x="1988" d="M680 684v-184h-594v184h211v483h-193v185h400v-668h176zM1292 1352h224l-779 -1352h-221zM1640 184h269v-184l-639 -2v43l303 332q57 63 82.5 109t25.5 89q0 49 -27.5 79t-72.5 30q-44 0 -71 -30t-27 -83q0 -9 4 -59h-205q-8 36 -8 72q0 113 86.5 200.5t222.5 87.5 q131 0 219 -78.5t88 -199.5q0 -87 -45.5 -161t-138.5 -175z" />
<glyph unicode="&#xbe;" horiz-adv-x="1824" d="M668 782q0 -129 -95 -214t-233 -85q-109 0 -191.5 54.5t-125.5 146.5l141 100q38 -58 77 -85t93 -27t88.5 29t34.5 81q0 99 -156 99h-98v51l159 235h-272v185h563v-56l-174 -256q78 -26 133.5 -93.5t55.5 -164.5zM1200 1352h223l-780 -1352h-221zM1804 299v-168h-100 v-131h-188v131h-435v53l254 668h211l-213 -553h183v223h188v-223h100z" />
<glyph unicode="&#xbf;" horiz-adv-x="923" d="M485 1036q83 0 137 -53t54 -135t-54 -136.5t-137 -54.5q-82 0 -136 54.5t-54 136.5t54 135t136 53zM612 516q23 -62 23 -96q0 -15 -3.5 -30.5t-7 -28t-13 -28t-15 -25.5t-19.5 -25.5t-19.5 -22.5t-22 -23t-21 -20t-22 -19.5t-19.5 -17.5q-67 -62 -94 -100t-27 -84 q0 -60 38.5 -96.5t92.5 -36.5q56 0 96 37.5t70 115.5l228 -98q-43 -153 -150 -232t-252 -79q-172 0 -288.5 103.5t-116.5 266.5q0 99 43 167.5t125 140.5q82 73 112.5 110.5t30.5 79.5q0 8 -1 21.5t-1 19.5h233z" />
<glyph unicode="&#xc0;" horiz-adv-x="1353" d="M778 1483h-200l-281 332v49h334zM1028 0l-76 176h-553l-75 -176h-297l604 1376h92l602 -1376h-297zM854 403l-178 455l-178 -455h356z" />
<glyph unicode="&#xc1;" horiz-adv-x="1353" d="M1051 1815l-281 -332h-201l148 381h334v-49zM1028 0l-76 176h-553l-75 -176h-297l604 1376h92l602 -1376h-297zM854 403l-178 455l-178 -455h356z" />
<glyph unicode="&#xc2;" horiz-adv-x="1353" d="M676 1647l-184 -164h-209l303 381h182l303 -381h-211zM1028 0l-76 176h-553l-75 -176h-297l604 1376h92l602 -1376h-297zM854 403l-178 455l-178 -455h356z" />
<glyph unicode="&#xc3;" horiz-adv-x="1353" d="M485 1505h-211q-6 35 -6 70q0 124 69 199t169 75q75 0 151 -43l64 -37q4 -2 17.5 -9.5t19 -10t16.5 -7t19.5 -6t17.5 -1.5q28 0 42.5 19t14.5 50v25h211q4 -23 4 -68q0 -125 -67.5 -200.5t-167.5 -75.5q-72 0 -154 45l-61 33q-59 34 -92 34q-27 0 -41.5 -19t-14.5 -48 v-25zM1028 0l-76 176h-553l-75 -176h-297l604 1376h92l602 -1376h-297zM854 403l-178 455l-178 -455h356z" />
<glyph unicode="&#xc4;" horiz-adv-x="1353" d="M414 1509q-64 0 -115 48t-51 110q0 67 50.5 113.5t115.5 46.5q68 0 117 -46t49 -114q0 -63 -49.5 -110.5t-116.5 -47.5zM942 1507q-64 0 -115 48t-51 110q0 67 50.5 114.5t115.5 47.5q68 0 117 -47t49 -115q0 -63 -49.5 -110.5t-116.5 -47.5zM1028 0l-76 176h-553 l-75 -176h-297l604 1376h92l602 -1376h-297zM854 403l-178 455l-178 -455h356z" />
<glyph unicode="&#xc5;" horiz-adv-x="1353" d="M676 1382q-112 0 -185 72.5t-73 179.5q0 104 73.5 176t184.5 72q113 0 186.5 -72t73.5 -176q0 -107 -73.5 -179.5t-186.5 -72.5zM678 1718q-36 0 -60 -24t-24 -60q0 -38 24 -62t60 -24q35 0 59.5 24.5t24.5 61.5q0 35 -24.5 59.5t-59.5 24.5zM1028 0l-76 176h-553 l-75 -176h-297l604 1376h92l602 -1376h-297zM854 403l-178 455l-178 -455h356z" />
<glyph unicode="&#xc6;" horiz-adv-x="1744" d="M1165 250h498v-250h-727l-31 176h-506l-92 -176h-297l692 1352h279h657v-250h-616l47 -275h404v-235h-365zM778 954l-264 -551h352z" />
<glyph unicode="&#xc7;" horiz-adv-x="1474" d="M799 231q244 0 387 228l209 -148q-69 -123 -182.5 -205.5t-256.5 -113.5q33 -58 33 -125q0 -112 -85 -186t-232 -74q-80 0 -152 20v183q66 -5 123 -5q59 0 93 30t34 87q0 28 -6 55q-143 6 -269.5 62t-218 148t-145 219t-53.5 270q0 146 56.5 276.5t152.5 223t229.5 146.5 t282.5 54q193 0 349.5 -89.5t246.5 -246.5l-209 -147q-143 227 -387 227q-190 0 -313.5 -125t-123.5 -321q0 -194 123.5 -318.5t313.5 -124.5z" />
<glyph unicode="&#xc8;" horiz-adv-x="1173" d="M557 1864l148 -381h-201l-281 332v49h334zM1065 1352v-250h-633v-275h465v-235h-465v-342h658v-250h-934v1352h909z" />
<glyph unicode="&#xc9;" horiz-adv-x="1173" d="M977 1864v-49l-281 -332h-200l147 381h334zM1065 1352v-250h-633v-275h465v-235h-465v-342h658v-250h-934v1352h909z" />
<glyph unicode="&#xca;" horiz-adv-x="1173" d="M602 1647l-184 -164h-209l303 381h182l303 -381h-211zM432 250h658v-250h-934v1352h909v-250h-633v-275h465v-235h-465v-342z" />
<glyph unicode="&#xcb;" horiz-adv-x="1173" d="M340 1827q68 0 117 -46t49 -114q0 -63 -49.5 -110.5t-116.5 -47.5q-64 0 -115 48t-51 110q0 67 50.5 113.5t115.5 46.5zM868 1827q68 0 117 -47t49 -115q0 -63 -49.5 -110.5t-116.5 -47.5q-64 0 -115 48t-51 110q0 67 50.5 114.5t115.5 47.5zM1065 1352v-250h-633v-275 h465v-235h-465v-342h658v-250h-934v1352h909z" />
<glyph unicode="&#xcc;" horiz-adv-x="585" d="M246 1864l147 -381h-200l-281 332v49h334zM432 1352v-1352h-276v1352h276z" />
<glyph unicode="&#xcd;" horiz-adv-x="585" d="M668 1864v-49l-281 -332h-201l148 381h334zM432 1352v-1352h-276v1352h276z" />
<glyph unicode="&#xce;" horiz-adv-x="585" d="M385 1864l303 -381h-211l-184 164l-184 -164h-209l303 381h182zM156 0v1352h276v-1352h-276z" />
<glyph unicode="&#xcf;" horiz-adv-x="585" d="M29 1827q68 0 117 -46t49 -114q0 -63 -49.5 -110.5t-116.5 -47.5q-64 0 -115 48t-51 110q0 67 50.5 113.5t115.5 46.5zM557 1827q68 0 117 -47t49 -115q0 -63 -49.5 -110.5t-116.5 -47.5q-64 0 -115 48t-51 110q0 67 50.5 114.5t115.5 47.5zM432 1352v-1352h-276v1352 h276z" />
<glyph unicode="&#xd0;" horiz-adv-x="1413" d="M598 1352q216 0 383 -82.5t260.5 -236t93.5 -353.5q0 -197 -93 -352t-261.5 -241.5t-382.5 -86.5h-442v526h-172v232h172v594h442zM596 250q205 0 330 118t125 312q0 197 -124 309.5t-331 112.5h-164v-344h221v-232h-221v-276h164z" />
<glyph unicode="&#xd1;" horiz-adv-x="1460" d="M541 1505h-211q-6 35 -6 70q0 124 68.5 199t168.5 75q76 0 152 -43l63 -37q4 -2 17.5 -9.5t19 -10t16.5 -7t19.5 -6t17.5 -1.5q28 0 43 19t15 50v25h211q4 -23 4 -68q0 -125 -68 -200.5t-168 -75.5q-71 0 -153 45l-62 33q-59 34 -92 34q-27 0 -41 -19t-14 -48v-25z M1030 1352h277v-1377h-93l-782 836v-811h-276v1376h90l784 -829v805z" />
<glyph unicode="&#xd2;" horiz-adv-x="1593" d="M750 1864l147 -381h-201l-280 332v49h334zM795 1376q196 0 361.5 -91.5t262.5 -252.5t97 -356q0 -146 -57 -276.5t-154 -223.5t-230 -147t-280 -54t-279.5 54t-228.5 147t-152.5 223.5t-56.5 276.5q0 195 96 356t260.5 252.5t360.5 91.5zM797 1120q-189 0 -312 -124.5 t-123 -319.5q0 -196 122.5 -320.5t312.5 -124.5q187 0 310.5 125t123.5 320q0 194 -123.5 319t-310.5 125z" />
<glyph unicode="&#xd3;" horiz-adv-x="1593" d="M1169 1864v-49l-280 -332h-201l148 381h333zM795 1376q196 0 361.5 -91.5t262.5 -252.5t97 -356q0 -146 -57 -276.5t-154 -223.5t-230 -147t-280 -54t-279.5 54t-228.5 147t-152.5 223.5t-56.5 276.5q0 195 96 356t260.5 252.5t360.5 91.5zM797 1120q-189 0 -312 -124.5 t-123 -319.5q0 -196 122.5 -320.5t312.5 -124.5q187 0 310.5 125t123.5 320q0 194 -123.5 319t-310.5 125z" />
<glyph unicode="&#xd4;" horiz-adv-x="1593" d="M795 1647l-185 -164h-209l304 381h182l303 -381h-211zM795 1376q196 0 361.5 -91.5t262.5 -252.5t97 -356q0 -146 -57 -276.5t-154 -223.5t-230 -147t-280 -54t-279.5 54t-228.5 147t-152.5 223.5t-56.5 276.5q0 195 96 356t260.5 252.5t360.5 91.5zM797 231 q187 0 310.5 125t123.5 320q0 194 -123.5 319t-310.5 125q-189 0 -312 -124.5t-123 -319.5q0 -196 122.5 -320.5t312.5 -124.5z" />
<glyph unicode="&#xd5;" horiz-adv-x="1593" d="M627 1849q75 0 151 -43l64 -37q4 -2 17.5 -9.5t19 -10t16.5 -7t19.5 -6t17.5 -1.5q28 0 42.5 19t14.5 50v25h211q4 -23 4 -68q0 -125 -67.5 -200.5t-167.5 -75.5q-72 0 -154 45l-61 33q-59 34 -92 34q-27 0 -41.5 -19t-14.5 -48v-25h-211q-6 35 -6 70q0 124 69 199 t169 75zM795 1376q196 0 361.5 -91.5t262.5 -252.5t97 -356q0 -146 -57 -276.5t-154 -223.5t-230 -147t-280 -54t-279.5 54t-228.5 147t-152.5 223.5t-56.5 276.5q0 195 96 356t260.5 252.5t360.5 91.5zM797 1120q-189 0 -312 -124.5t-123 -319.5q0 -196 122.5 -320.5 t312.5 -124.5q187 0 310.5 125t123.5 320q0 194 -123.5 319t-310.5 125z" />
<glyph unicode="&#xd6;" horiz-adv-x="1593" d="M532 1827q68 0 117 -46t49 -114q0 -63 -49.5 -110.5t-116.5 -47.5q-64 0 -114.5 48t-50.5 110q0 67 50 113.5t115 46.5zM1061 1827q68 0 117 -47t49 -115q0 -63 -49.5 -110.5t-116.5 -47.5q-64 0 -115 48t-51 110q0 67 50.5 114.5t115.5 47.5zM795 1376 q196 0 361.5 -91.5t262.5 -252.5t97 -356q0 -146 -57 -276.5t-154 -223.5t-230 -147t-280 -54t-279.5 54t-228.5 147t-152.5 223.5t-56.5 276.5q0 195 96 356t260.5 252.5t360.5 91.5zM797 1120q-189 0 -312 -124.5t-123 -319.5q0 -196 122.5 -320.5t312.5 -124.5 q187 0 310.5 125t123.5 320q0 194 -123.5 319t-310.5 125z" />
<glyph unicode="&#xd7;" d="M874 1126l164 -163l-301 -301l301 -302l-164 -165l-303 301l-301 -301l-164 165l302 302l-302 301l164 163l303 -301z" />
<glyph unicode="&#xd8;" horiz-adv-x="1593" d="M1530 1245l-154 -153q140 -183 140 -416q0 -146 -57 -276.5t-154 -223.5t-230 -147t-280 -54q-225 0 -410 123l-156 -157l-166 165l152 152q-137 186 -137 418q0 195 96 356t260.5 252.5t360.5 91.5q228 0 411 -125l158 160zM350 676q0 -127 53 -230l625 627 q-105 60 -231 60q-194 0 -320.5 -129t-126.5 -328zM1243 676q0 123 -55 227l-623 -624q102 -60 232 -60q192 0 319 128.5t127 328.5z" />
<glyph unicode="&#xd9;" horiz-adv-x="1433" d="M670 1864l147 -381h-201l-280 332v49h334zM1290 1352v-793q0 -177 -75 -311t-204.5 -203.5t-293.5 -69.5q-165 0 -294.5 69.5t-204.5 203.5t-75 311v793h277v-813q0 -147 83 -227.5t214 -80.5q132 0 214.5 80t82.5 228v813h276z" />
<glyph unicode="&#xda;" horiz-adv-x="1433" d="M1090 1864v-49l-281 -332h-201l148 381h334zM1290 1352v-793q0 -177 -75 -311t-204.5 -203.5t-293.5 -69.5q-165 0 -294.5 69.5t-204.5 203.5t-75 311v793h277v-813q0 -147 83 -227.5t214 -80.5q132 0 214.5 80t82.5 228v813h276z" />
<glyph unicode="&#xdb;" horiz-adv-x="1433" d="M715 1647l-185 -164h-208l303 381h182l303 -381h-211zM1014 1352h276v-793q0 -177 -75 -311t-204.5 -203.5t-293.5 -69.5q-165 0 -294.5 69.5t-204.5 203.5t-75 311v793h277v-813q0 -147 83 -227.5t214 -80.5q132 0 214.5 80t82.5 228v813z" />
<glyph unicode="&#xdc;" horiz-adv-x="1433" d="M453 1827q68 0 116.5 -46t48.5 -114q0 -63 -49 -110.5t-116 -47.5q-64 0 -115 48t-51 110q0 67 50.5 113.5t115.5 46.5zM981 1827q68 0 117 -47t49 -115q0 -63 -49.5 -110.5t-116.5 -47.5q-64 0 -115 48t-51 110q0 67 50.5 114.5t115.5 47.5zM1290 1352v-793 q0 -177 -75 -311t-204.5 -203.5t-293.5 -69.5q-165 0 -294.5 69.5t-204.5 203.5t-75 311v793h277v-813q0 -147 83 -227.5t214 -80.5q132 0 214.5 80t82.5 228v813h276z" />
<glyph unicode="&#xdd;" horiz-adv-x="1277" d="M1010 1815l-281 -332h-201l148 381h334v-49zM1243 1352l-465 -820v-532h-276v530l-467 822h307l297 -537l299 537h305z" />
<glyph unicode="&#xde;" horiz-adv-x="1216" d="M432 1352v-207h232q215 0 351 -121t136 -319q0 -197 -136 -320t-351 -123h-232v-262h-276v1352h276zM664 901h-232v-397h232q95 0 149.5 54.5t54.5 143.5t-54.5 144t-149.5 55z" />
<glyph unicode="&#xdf;" horiz-adv-x="1331" d="M631 1561q194 0 310 -91t116 -241q0 -78 -35 -170l-74 -191q-33 -79 -33 -112q0 -11 2.5 -21t5.5 -18t10 -17.5t12 -15.5t17 -15.5t18.5 -14.5t22 -15t23 -14.5t26.5 -16t27 -16.5q101 -63 151 -128t50 -165q0 -148 -105.5 -236t-279.5 -88q-213 0 -360 125l104 195 q133 -86 256 -86q117 0 117 86q0 37 -27 61t-109 72q-5 3 -8 4.5t-7.5 4.5t-8.5 5q-106 64 -157.5 120t-51.5 130q0 52 37 150l70 178q28 73 28 135q0 71 -41.5 113.5t-118.5 42.5q-91 0 -149.5 -62t-58.5 -192v-1057h-273v1069q0 232 132.5 362t361.5 130z" />
<glyph unicode="&#xe0;" horiz-adv-x="1116" d="M657 1169h-200l-281 379v49h332zM553 1036q199 0 316.5 -111.5t117.5 -322.5v-602h-254v98q-117 -123 -309 -123q-162 0 -256 85.5t-94 218.5q0 137 103.5 215.5t279.5 78.5h254v45q0 85 -48.5 132t-140.5 47q-77 0 -138.5 -34.5t-129.5 -105.5l-143 170q176 209 442 209 zM498 178q89 0 151 56.5t62 144.5v12h-217q-142 0 -142 -102q0 -52 40 -81.5t106 -29.5z" />
<glyph unicode="&#xe1;" horiz-adv-x="1116" d="M936 1548l-281 -379h-200l147 428h334v-49zM553 1036q199 0 316.5 -111.5t117.5 -322.5v-602h-254v98q-117 -123 -309 -123q-162 0 -256 85.5t-94 218.5q0 137 103.5 215.5t279.5 78.5h254v45q0 85 -48.5 132t-140.5 47q-77 0 -138.5 -34.5t-129.5 -105.5l-143 170 q176 209 442 209zM498 178q89 0 151 56.5t62 144.5v12h-217q-142 0 -142 -102q0 -52 40 -81.5t106 -29.5z" />
<glyph unicode="&#xe2;" horiz-adv-x="1116" d="M555 1358l-164 -189h-203l277 428h180l275 -428h-201zM553 1036q199 0 316.5 -111.5t117.5 -322.5v-602h-254v98q-117 -123 -309 -123q-162 0 -256 85.5t-94 218.5q0 137 103.5 215.5t279.5 78.5h254v45q0 85 -48.5 132t-140.5 47q-77 0 -138.5 -34.5t-129.5 -105.5 l-143 170q176 209 442 209zM498 178q89 0 151 56.5t62 144.5v12h-217q-142 0 -142 -102q0 -52 40 -81.5t106 -29.5z" />
<glyph unicode="&#xe3;" horiz-adv-x="1116" d="M375 1208h-211q-4 46 -4 68q0 126 67 202t166 76q81 0 146 -45l57 -36q3 -2 12.5 -8t12.5 -8t10.5 -6.5t12 -6.5t11 -4t12 -3t11.5 -1q57 0 57 71v25h211q4 -50 4 -70q0 -125 -66 -200.5t-167 -75.5q-78 0 -146 45l-57 35q-5 3 -20.5 13.5t-21.5 14t-17.5 7.5t-22.5 4 q-57 0 -57 -72v-25zM553 1036q199 0 316.5 -111.5t117.5 -322.5v-602h-254v98q-117 -123 -309 -123q-162 0 -256 85.5t-94 218.5q0 137 103.5 215.5t279.5 78.5h254v45q0 85 -48.5 132t-140.5 47q-77 0 -138.5 -34.5t-129.5 -105.5l-143 170q176 209 442 209zM498 178 q89 0 151 56.5t62 144.5v12h-217q-142 0 -142 -102q0 -52 40 -81.5t106 -29.5z" />
<glyph unicode="&#xe4;" horiz-adv-x="1116" d="M311 1225q-64 0 -115 47.5t-51 109.5q0 67 50.5 114.5t115.5 47.5q68 0 117 -47t49 -115q0 -63 -49.5 -110t-116.5 -47zM799 1225q-64 0 -115 47.5t-51 109.5q0 67 50.5 114.5t115.5 47.5q68 0 117 -47t49 -115q0 -63 -49.5 -110t-116.5 -47zM553 1036 q199 0 316.5 -111.5t117.5 -322.5v-602h-254v98q-117 -123 -309 -123q-162 0 -256 85.5t-94 218.5q0 137 103.5 215.5t279.5 78.5h254v45q0 85 -48.5 132t-140.5 47q-77 0 -138.5 -34.5t-129.5 -105.5l-143 170q176 209 442 209zM498 178q89 0 151 56.5t62 144.5v12h-217 q-142 0 -142 -102q0 -52 40 -81.5t106 -29.5z" />
<glyph unicode="&#xe5;" horiz-adv-x="1116" d="M553 1122q-111 0 -184.5 73t-73.5 179q0 105 73.5 177.5t184.5 72.5q113 0 186.5 -72t73.5 -178t-73.5 -179t-186.5 -73zM555 1458q-37 0 -60.5 -23.5t-23.5 -60.5t23.5 -60.5t60.5 -23.5q36 0 60 24t24 60t-24 60t-60 24zM553 1036q199 0 316.5 -111.5t117.5 -322.5 v-602h-254v98q-117 -123 -309 -123q-162 0 -256 85.5t-94 218.5q0 137 103.5 215.5t279.5 78.5h254v45q0 85 -48.5 132t-140.5 47q-77 0 -138.5 -34.5t-129.5 -105.5l-143 170q176 209 442 209zM498 178q89 0 151 56.5t62 144.5v12h-217q-142 0 -142 -102q0 -52 40 -81.5 t106 -29.5z" />
<glyph unicode="&#xe6;" horiz-adv-x="1798" d="M1720 565q0 -88 -20 -162h-707q28 -92 101.5 -141t181.5 -49q150 0 280 102l115 -188q-178 -152 -401 -152q-136 0 -245.5 54.5t-180.5 150.5q-60 -100 -163 -152.5t-237 -52.5q-178 0 -274 86t-96 220q0 141 104 223t279 82h254v32q0 85 -48 132t-139 47 q-75 0 -138.5 -35t-131.5 -105l-141 170q176 209 440 209q227 0 334 -149q139 149 358 149q209 0 342 -135.5t133 -335.5zM1235 813q-94 0 -162 -61t-88 -166h469q1 105 -61 166t-158 61zM496 180q91 0 153 55.5t62 141.5v26h-217q-68 0 -105 -27t-37 -79q0 -56 39.5 -86.5 t104.5 -30.5z" />
<glyph unicode="&#xe7;" horiz-adv-x="1130" d="M627 229q140 0 243 146l193 -148q-99 -177 -297 -233q35 -53 35 -127q0 -111 -85.5 -185.5t-232.5 -74.5q-79 0 -151 20v183q66 -5 123 -5q59 0 93 30t34 87q0 27 -7 55q-212 19 -353.5 169t-141.5 362q0 223 157.5 375.5t385.5 152.5q149 0 262 -66.5t178 -183.5 l-193 -149q-97 147 -243 147q-118 0 -192.5 -78.5t-74.5 -197.5q0 -121 74.5 -200t192.5 -79z" />
<glyph unicode="&#xe8;" horiz-adv-x="1165" d="M713 1169h-201l-281 379v49h332zM1087 565q0 -72 -18 -151h-713q26 -96 101.5 -148.5t185.5 -52.5q150 0 283 102l114 -188q-182 -152 -405 -152q-158 0 -285.5 70t-198.5 191.5t-71 269.5q0 224 153 377t377 153q210 0 343.5 -135.5t133.5 -335.5zM600 813 q-88 0 -153.5 -55t-90.5 -150h463q-1 94 -64.5 149.5t-154.5 55.5z" />
<glyph unicode="&#xe9;" horiz-adv-x="1165" d="M991 1548l-280 -379h-201l147 428h334v-49zM1087 565q0 -72 -18 -151h-713q26 -96 101.5 -148.5t185.5 -52.5q150 0 283 102l114 -188q-182 -152 -405 -152q-158 0 -285.5 70t-198.5 191.5t-71 269.5q0 224 153 377t377 153q210 0 343.5 -135.5t133.5 -335.5zM600 813 q-88 0 -153.5 -55t-90.5 -150h463q-1 94 -64.5 149.5t-154.5 55.5z" />
<glyph unicode="&#xea;" horiz-adv-x="1165" d="M610 1358l-164 -189h-202l276 428h180l275 -428h-201zM1087 565q0 -72 -18 -151h-713q26 -96 101.5 -148.5t185.5 -52.5q150 0 283 102l114 -188q-182 -152 -405 -152q-158 0 -285.5 70t-198.5 191.5t-71 269.5q0 224 153 377t377 153q210 0 343.5 -135.5t133.5 -335.5z M600 813q-88 0 -153.5 -55t-90.5 -150h463q-1 94 -64.5 149.5t-154.5 55.5z" />
<glyph unicode="&#xeb;" horiz-adv-x="1165" d="M367 1225q-64 0 -115 47.5t-51 109.5q0 67 50.5 114.5t115.5 47.5q68 0 116.5 -47t48.5 -115q0 -63 -49 -110t-116 -47zM854 1225q-64 0 -115 47.5t-51 109.5q0 67 50.5 114.5t115.5 47.5q68 0 117 -47t49 -115q0 -63 -49.5 -110t-116.5 -47zM1087 565q0 -72 -18 -151 h-713q26 -96 101.5 -148.5t185.5 -52.5q150 0 283 102l114 -188q-182 -152 -405 -152q-158 0 -285.5 70t-198.5 191.5t-71 269.5q0 224 153 377t377 153q210 0 343.5 -135.5t133.5 -335.5zM600 813q-88 0 -153.5 -55t-90.5 -150h463q-1 94 -64.5 149.5t-154.5 55.5z" />
<glyph unicode="&#xec;" horiz-adv-x="550" d="M295 1597l86 -428h-201l-219 379v49h334zM414 1014v-1014h-277v1014h277z" />
<glyph unicode="&#xed;" horiz-adv-x="550" d="M592 1597v-49l-217 -379h-201l86 428h332zM414 1014v-1014h-277v1014h277z" />
<glyph unicode="&#xee;" horiz-adv-x="550" d="M367 1597l274 -428h-201l-164 187l-163 -187h-203l276 428h181zM137 0v1014h277v-1014h-277z" />
<glyph unicode="&#xef;" horiz-adv-x="550" d="M49 1544q69 0 117.5 -46.5t48.5 -115.5q0 -64 -49 -110.5t-117 -46.5q-64 0 -114 47.5t-50 109.5q0 67 49.5 114.5t114.5 47.5zM500 1544q69 0 117.5 -46.5t48.5 -115.5q0 -64 -49 -110.5t-117 -46.5q-64 0 -114 47.5t-50 109.5q0 67 49.5 114.5t114.5 47.5zM414 1014 v-1014h-277v1014h277z" />
<glyph unicode="&#xf0;" horiz-adv-x="1173" d="M852 987q60 -78 95.5 -130.5t73.5 -121t55.5 -134.5t17.5 -136q0 -213 -144 -351.5t-360 -138.5q-222 0 -366 136.5t-144 339.5q0 132 64 238t172.5 164t238.5 58h20l-124 170l-279 -137l-96 197l243 121l-108 147l207 152l137 -183l319 158l99 -195l-283 -141zM586 221 q100 0 164.5 65.5t64.5 166.5q0 100 -64.5 164.5t-164.5 64.5t-164 -65t-64 -166q0 -100 63.5 -165t164.5 -65z" />
<glyph unicode="&#xf1;" horiz-adv-x="1198" d="M395 1208h-211q-4 46 -4 68q0 126 67 202t167 76q80 0 145 -45l57 -36q3 -2 12.5 -8t12.5 -8t10.5 -6.5t12 -6.5t11 -4t12 -3t11.5 -1q58 0 58 71v25h211q4 -50 4 -70q0 -125 -66.5 -200.5t-167.5 -75.5q-77 0 -145 45l-57 35q-5 3 -20.5 13.5t-21.5 14t-17.5 7.5 t-22.5 4q-58 0 -58 -72v-25zM688 1036q177 0 279 -111t102 -296v-629h-274v592q0 88 -52 142t-137 54t-138.5 -54.5t-53.5 -141.5v-592h-277v1014h254v-92q114 114 297 114z" />
<glyph unicode="&#xf2;" horiz-adv-x="1245" d="M575 1597l150 -428h-201l-280 379v49h331zM623 1036q148 0 272.5 -69t198 -190.5t73.5 -268.5q0 -148 -73.5 -270t-198.5 -191.5t-274 -69.5t-273 69.5t-196 191.5t-72 270q0 223 157.5 375.5t385.5 152.5zM623 784q-115 0 -189 -79t-74 -199t74 -197.5t189 -77.5 q113 0 187.5 78.5t74.5 196.5q0 120 -74.5 199t-187.5 79z" />
<glyph unicode="&#xf3;" horiz-adv-x="1245" d="M1004 1597v-49l-281 -379h-201l148 428h334zM623 1036q148 0 272.5 -69t198 -190.5t73.5 -268.5q0 -148 -73.5 -270t-198.5 -191.5t-274 -69.5t-273 69.5t-196 191.5t-72 270q0 223 157.5 375.5t385.5 152.5zM623 784q-115 0 -189 -79t-74 -199t74 -197.5t189 -77.5 q113 0 187.5 78.5t74.5 196.5q0 120 -74.5 199t-187.5 79z" />
<glyph unicode="&#xf4;" horiz-adv-x="1245" d="M625 1358l-164 -189h-203l277 428h180l274 -428h-201zM623 1036q148 0 272.5 -69t198 -190.5t73.5 -268.5q0 -148 -73.5 -270t-198.5 -191.5t-274 -69.5t-273 69.5t-196 191.5t-72 270q0 223 157.5 375.5t385.5 152.5zM623 231q113 0 187.5 78.5t74.5 196.5 q0 120 -74.5 199t-187.5 79q-115 0 -189 -79t-74 -199t74 -197.5t189 -77.5z" />
<glyph unicode="&#xf5;" horiz-adv-x="1245" d="M461 1554q80 0 145 -45l58 -36q4 -3 14.5 -9.5t14.5 -9t12 -7t13 -6.5t12.5 -3.5t14.5 -1.5q58 0 58 71v25h211q4 -50 4 -70q0 -125 -66.5 -200.5t-167.5 -75.5q-77 0 -145 45l-57 35q-5 3 -20.5 13.5t-21.5 14t-17.5 7.5t-22.5 4q-58 0 -58 -72v-25h-211q-4 46 -4 68 q0 126 67 202t167 76zM623 1036q148 0 272.5 -69t198 -190.5t73.5 -268.5q0 -148 -73.5 -270t-198.5 -191.5t-274 -69.5t-273 69.5t-196 191.5t-72 270q0 223 157.5 375.5t385.5 152.5zM623 784q-115 0 -189 -79t-74 -199t74 -197.5t189 -77.5q113 0 187.5 78.5t74.5 196.5 q0 120 -74.5 199t-187.5 79z" />
<glyph unicode="&#xf6;" horiz-adv-x="1245" d="M379 1544q68 0 117 -47t49 -115q0 -63 -49.5 -110t-116.5 -47q-64 0 -115 47.5t-51 109.5q0 67 50.5 114.5t115.5 47.5zM866 1544q68 0 117 -47t49 -115q0 -63 -49.5 -110t-116.5 -47q-64 0 -115 47.5t-51 109.5q0 67 50.5 114.5t115.5 47.5zM623 1036q148 0 272.5 -69 t198 -190.5t73.5 -268.5q0 -148 -73.5 -270t-198.5 -191.5t-274 -69.5t-273 69.5t-196 191.5t-72 270q0 223 157.5 375.5t385.5 152.5zM623 784q-115 0 -189 -79t-74 -199t74 -197.5t189 -77.5q113 0 187.5 78.5t74.5 196.5q0 120 -74.5 199t-187.5 79z" />
<glyph unicode="&#xf7;" d="M571 1196q68 0 117 -45.5t49 -110.5q0 -67 -49 -113t-117 -46q-70 0 -119 46t-49 113q0 66 49.5 111t118.5 45zM1055 774v-235h-965v235h965zM571 428q68 0 117 -45.5t49 -112.5q0 -66 -49 -111.5t-117 -45.5q-69 0 -118.5 45.5t-49.5 111.5q0 67 49 112.5t119 45.5z" />
<glyph unicode="&#xf8;" horiz-adv-x="1253" d="M1192 907l-109 -108q88 -134 88 -293q0 -147 -73.5 -269t-198.5 -192t-274 -70q-156 0 -285 80l-113 -114l-166 165l109 109q-86 131 -86 291q0 111 42.5 209.5t115 168.5t173 111t212.5 41q152 0 286 -78l113 113zM627 803q-126 0 -205.5 -83t-79.5 -214q0 -61 25 -127 l393 393q-60 31 -133 31zM625 209q125 0 205.5 83t80.5 214q0 70 -24 129l-393 -395q67 -31 131 -31z" />
<glyph unicode="&#xf9;" horiz-adv-x="1187" d="M547 1597l149 -428h-200l-281 379v49h332zM1061 1014v-568q0 -212 -132 -341.5t-333 -129.5q-204 0 -336.5 129.5t-132.5 341.5v568h276v-590q0 -88 55 -141.5t138 -53.5q80 0 134 54t54 141v590h277z" />
<glyph unicode="&#xfa;" horiz-adv-x="1187" d="M975 1597v-49l-281 -379h-200l147 428h334zM1061 1014v-568q0 -212 -132 -341.5t-333 -129.5q-204 0 -336.5 129.5t-132.5 341.5v568h276v-590q0 -88 55 -141.5t138 -53.5q80 0 134 54t54 141v590h277z" />
<glyph unicode="&#xfb;" horiz-adv-x="1187" d="M596 1358l-164 -189h-203l277 428h180l275 -428h-201zM784 1014h277v-568q0 -212 -132 -341.5t-333 -129.5q-204 0 -336.5 129.5t-132.5 341.5v568h276v-590q0 -88 55 -141.5t138 -53.5q80 0 134 54t54 141v590z" />
<glyph unicode="&#xfc;" horiz-adv-x="1187" d="M350 1544q68 0 117 -47t49 -115q0 -63 -49.5 -110t-116.5 -47q-64 0 -115 47.5t-51 109.5q0 67 50.5 114.5t115.5 47.5zM838 1544q68 0 117 -47t49 -115q0 -63 -49.5 -110t-116.5 -47q-64 0 -115 47.5t-51 109.5q0 67 50.5 114.5t115.5 47.5zM1061 1014v-568 q0 -212 -132 -341.5t-333 -129.5q-204 0 -336.5 129.5t-132.5 341.5v568h276v-590q0 -88 55 -141.5t138 -53.5q80 0 134 54t54 141v590h277z" />
<glyph unicode="&#xfd;" horiz-adv-x="1144" d="M952 1548l-280 -379h-201l147 428h334v-49zM829 1014h291l-485 -1102q-69 -158 -165.5 -231.5t-238.5 -73.5q-87 0 -178 24v232q94 -8 119 -8q74 0 124.5 28.5t86.5 108.5l31 67l-389 955h292l248 -666z" />
<glyph unicode="&#xfe;" horiz-adv-x="1288" d="M717 1036q215 0 353 -149.5t138 -378.5q0 -230 -138.5 -381.5t-352.5 -151.5q-189 0 -303 123v-467h-277v1905h277v-621q109 121 303 121zM666 227q111 0 186.5 76.5t75.5 202.5t-75 203t-187 77q-105 0 -180.5 -70.5t-75.5 -207.5q0 -136 75 -208.5t181 -72.5z" />
<glyph unicode="&#xff;" horiz-adv-x="1144" d="M328 1225q-64 0 -115 47.5t-51 109.5q0 67 50.5 114.5t115.5 47.5q68 0 117 -47t49 -115q0 -63 -49.5 -110t-116.5 -47zM815 1225q-64 0 -115 47.5t-51 109.5q0 67 50.5 114.5t115.5 47.5q68 0 117 -47t49 -115q0 -63 -49.5 -110t-116.5 -47zM829 1014h291l-485 -1102 q-69 -158 -165.5 -231.5t-238.5 -73.5q-87 0 -178 24v232q94 -8 119 -8q74 0 124.5 28.5t86.5 108.5l31 67l-389 955h292l248 -666z" />
<glyph unicode="&#x152;" horiz-adv-x="2248" d="M1507 250h658v-250h-934v141q-80 -79 -193.5 -122.5t-244.5 -43.5q-199 0 -363 92t-258 253t-94 356q0 147 55.5 276.5t150.5 222.5t228 147t283 54q134 0 246 -44t190 -122v142h909v-250h-633v-277h467v-231h-467v-344zM795 231q189 0 312.5 124.5t123.5 318.5 q0 195 -123.5 320.5t-312.5 125.5q-188 0 -310.5 -125t-122.5 -321q0 -194 122.5 -318.5t310.5 -124.5z" />
<glyph unicode="&#x153;" horiz-adv-x="1929" d="M1851 565q0 -74 -18 -153h-700q23 -96 95.5 -147.5t180.5 -51.5q151 0 281 102l114 -188q-178 -152 -401 -152q-128 0 -232.5 49.5t-173.5 137.5q-66 -88 -164 -137.5t-217 -49.5q-146 0 -269 70t-195 192t-72 269t72.5 269.5t195.5 191.5t268 69q243 0 381 -184 q68 87 166 135.5t217 48.5q204 0 337.5 -136.5t133.5 -334.5zM1366 813q-86 0 -149.5 -55t-86.5 -152h453q-1 95 -64 151t-153 56zM621 229q111 0 180 78.5t69 198.5q0 121 -69 199.5t-180 78.5q-114 0 -187.5 -78.5t-73.5 -199.5q0 -120 73.5 -198.5t187.5 -78.5z" />
<glyph unicode="&#x174;" horiz-adv-x="2119" d="M1059 1647l-185 -164h-208l303 381h182l303 -381h-211zM1761 1352h307l-540 -1377h-90l-377 846l-379 -846h-90l-541 1377h307l301 -797l355 821h92l354 -821z" />
<glyph unicode="&#x175;" horiz-adv-x="1755" d="M877 1358l-164 -189h-203l276 428h181l274 -428h-201zM1440 1014h291l-471 -1039h-91l-292 590l-291 -590h-90l-471 1039h290l242 -578l274 600h93l280 -587z" />
<glyph unicode="&#x176;" horiz-adv-x="1277" d="M635 1647l-184 -164h-209l303 381h182l303 -381h-211zM1243 1352l-465 -820v-532h-276v530l-467 822h307l297 -537l299 537h305z" />
<glyph unicode="&#x177;" horiz-adv-x="1144" d="M571 1358l-163 -189h-203l276 428h181l274 -428h-201zM829 1014h291l-485 -1102q-69 -158 -165.5 -231.5t-238.5 -73.5q-87 0 -178 24v232q94 -8 119 -8q74 0 124.5 28.5t86.5 108.5l31 67l-389 955h292l248 -666z" />
<glyph unicode="&#x178;" horiz-adv-x="1277" d="M373 1509q-64 0 -115 48t-51 110q0 67 50.5 113.5t115.5 46.5q68 0 117 -46t49 -114q0 -63 -49.5 -110.5t-116.5 -47.5zM901 1507q-64 0 -115 48t-51 110q0 67 50.5 114.5t115.5 47.5q68 0 117 -47t49 -115q0 -63 -49.5 -110.5t-116.5 -47.5zM1243 1352l-465 -820v-532 h-276v530l-467 822h307l297 -537l299 537h305z" />
<glyph unicode="&#x2c6;" horiz-adv-x="854" d="M793 1169h-201l-164 189l-164 -189h-203l277 428h180z" />
<glyph unicode="&#x2c7;" horiz-adv-x="854" d="M592 1597h201l-275 -428h-180l-277 428h203l164 -188z" />
<glyph unicode="&#x2d8;" horiz-adv-x="829" d="M768 1532q0 -154 -98.5 -254t-253.5 -100q-156 0 -255.5 100t-99.5 254h218q0 -68 38 -109t99 -41t98 41t37 109h217z" />
<glyph unicode="&#x2d9;" horiz-adv-x="477" d="M240 1554q73 0 124.5 -49.5t51.5 -122.5q0 -71 -51.5 -120.5t-124.5 -49.5q-74 0 -126.5 49.5t-52.5 120.5q0 73 52.5 122.5t126.5 49.5z" />
<glyph unicode="&#x2da;" horiz-adv-x="641" d="M319 1624q113 0 187 -72.5t74 -177.5q0 -106 -74 -179t-187 -73q-111 0 -184.5 73t-73.5 179q0 105 73.5 177.5t184.5 72.5zM322 1458q-37 0 -60.5 -23.5t-23.5 -60.5t23.5 -60.5t60.5 -23.5q36 0 60 24t24 60t-24 60t-60 24z" />
<glyph unicode="&#x2db;" horiz-adv-x="546" d="M362 111l113 -111l-82 -51q-22 -13 -32 -20t-23 -18t-18 -22t-5 -24q0 -60 74 -60q14 0 86 13v-180q-95 -31 -176 -31q-115 0 -181.5 57t-66.5 148q0 90 73.5 159.5t237.5 139.5z" />
<glyph unicode="&#x2dc;" horiz-adv-x="913" d="M295 1554q80 0 145 -45l58 -36q3 -2 12.5 -8t12.5 -8t10.5 -6.5t12 -6.5t11 -4t12 -3t11.5 -1q57 0 57 71v25h211q4 -50 4 -70q0 -125 -66.5 -200.5t-167.5 -75.5q-77 0 -145 45l-57 35q-5 3 -20.5 13.5t-21.5 14t-17.5 7.5t-22.5 4q-58 0 -58 -72v-25h-210q-5 58 -5 68 q0 126 67 202t167 76z" />
<glyph unicode="&#x2dd;" horiz-adv-x="960" d="M496 1597v-49l-248 -379h-187l148 428h287zM899 1597v-49l-248 -379h-188l149 428h287z" />
<glyph unicode="&#x30c;" horiz-adv-x="0" d="M-61 1536l-101 -422h-194l10 422h285z" />
<glyph unicode="&#x326;" horiz-adv-x="0" d="M-61 -94l-52 -357h-211l9 357h254z" />
<glyph unicode="&#x385;" horiz-adv-x="1269" d="M811 1597v-49l-127 -379h-190v428h317zM246 1544q67 0 115.5 -47t48.5 -115q0 -63 -49 -110t-115 -47q-62 0 -113 47.5t-51 109.5q0 67 50.5 114.5t113.5 47.5zM1024 1544q68 0 116 -47t48 -115q0 -63 -48.5 -110t-115.5 -47q-62 0 -112 47.5t-50 109.5q0 67 49.5 114.5 t112.5 47.5z" />
<glyph unicode="&#x1e80;" horiz-adv-x="2119" d="M1161 1483h-200l-281 332v49h334zM1761 1352h307l-540 -1377h-90l-377 846l-379 -846h-90l-541 1377h307l301 -797l355 821h92l354 -821z" />
<glyph unicode="&#x1e81;" horiz-adv-x="1755" d="M979 1169h-201l-280 379v49h331zM1440 1014h291l-471 -1039h-91l-292 590l-291 -590h-90l-471 1039h290l242 -578l274 600h93l280 -587z" />
<glyph unicode="&#x1e82;" horiz-adv-x="2119" d="M1434 1815l-281 -332h-201l148 381h334v-49zM1761 1352h307l-540 -1377h-90l-377 846l-379 -846h-90l-541 1377h307l301 -797l355 821h92l354 -821z" />
<glyph unicode="&#x1e83;" horiz-adv-x="1755" d="M1257 1548l-280 -379h-201l148 428h333v-49zM1440 1014h291l-471 -1039h-91l-292 590l-291 -590h-90l-471 1039h290l242 -578l274 600h93l280 -587z" />
<glyph unicode="&#x1e84;" horiz-adv-x="2119" d="M797 1509q-64 0 -115 48t-51 110q0 67 50.5 113.5t115.5 46.5q68 0 117 -46t49 -114q0 -63 -49.5 -110.5t-116.5 -47.5zM1325 1507q-64 0 -115 48t-51 110q0 67 50.5 114.5t115.5 47.5q68 0 117 -47t49 -115q0 -63 -49.5 -110.5t-116.5 -47.5zM1761 1352h307l-540 -1377 h-90l-377 846l-379 -846h-90l-541 1377h307l301 -797l355 821h92l354 -821z" />
<glyph unicode="&#x1e85;" horiz-adv-x="1755" d="M633 1225q-64 0 -115 47.5t-51 109.5q0 67 50.5 114.5t115.5 47.5q68 0 117 -47t49 -115q0 -63 -49.5 -110t-116.5 -47zM1120 1225q-64 0 -115 47.5t-51 109.5q0 67 50.5 114.5t115.5 47.5q68 0 117 -47t49 -115q0 -63 -49.5 -110t-116.5 -47zM1440 1014h291l-471 -1039 h-91l-292 590l-291 -590h-90l-471 1039h290l242 -578l274 600h93l280 -587z" />
<glyph unicode="&#x1ef2;" horiz-adv-x="1277" d="M737 1483h-200l-281 332v49h334zM1243 1352l-465 -820v-532h-276v530l-467 822h307l297 -537l299 537h305z" />
<glyph unicode="&#x1ef3;" horiz-adv-x="1144" d="M674 1169h-201l-280 379v49h331zM829 1014h291l-485 -1102q-69 -158 -165.5 -231.5t-238.5 -73.5q-87 0 -178 24v232q94 -8 119 -8q74 0 124.5 28.5t86.5 108.5l31 67l-389 955h292l248 -666z" />
<glyph unicode="&#x2000;" horiz-adv-x="941" />
<glyph unicode="&#x2001;" horiz-adv-x="1882" />
<glyph unicode="&#x2002;" horiz-adv-x="941" />
<glyph unicode="&#x2003;" horiz-adv-x="1882" />
<glyph unicode="&#x2004;" horiz-adv-x="627" />
<glyph unicode="&#x2005;" horiz-adv-x="470" />
<glyph unicode="&#x2006;" horiz-adv-x="313" />
<glyph unicode="&#x2007;" horiz-adv-x="313" />
<glyph unicode="&#x2008;" horiz-adv-x="235" />
<glyph unicode="&#x2009;" horiz-adv-x="303" />
<glyph unicode="&#x200a;" horiz-adv-x="104" />
<glyph unicode="&#x2010;" horiz-adv-x="700" d="M608 772v-231h-516v231h516z" />
<glyph unicode="&#x2011;" horiz-adv-x="700" d="M608 772v-231h-516v231h516z" />
<glyph unicode="&#x2012;" horiz-adv-x="700" d="M608 772v-231h-516v231h516z" />
<glyph unicode="&#x2013;" horiz-adv-x="1028" d="M956 772v-231h-884v231h884z" />
<glyph unicode="&#x2014;" horiz-adv-x="2048" d="M1946 772v-231h-1844v231h1844z" />
<glyph unicode="&#x2015;" horiz-adv-x="2048" d="M1946 772v-231h-1844v231h1844z" />
<glyph unicode="&#x2018;" horiz-adv-x="616" d="M446 1352l-10 -570h-315l115 570h210z" />
<glyph unicode="&#x2019;" horiz-adv-x="616" d="M496 1352l-115 -570h-211l10 570h316z" />
<glyph unicode="&#x201a;" horiz-adv-x="616" d="M496 252l-115 -569h-211l10 569h316z" />
<glyph unicode="&#x201c;" horiz-adv-x="1101" d="M446 1352l-10 -570h-315l115 570h210zM932 1352l-10 -570h-316l115 570h211z" />
<glyph unicode="&#x201d;" horiz-adv-x="1101" d="M496 1352l-115 -570h-211l10 570h316zM981 1352l-115 -570h-211l11 570h315z" />
<glyph unicode="&#x201e;" horiz-adv-x="1101" d="M496 252l-115 -569h-211l10 569h316zM981 252l-115 -569h-211l11 569h315z" />
<glyph unicode="&#x2022;" horiz-adv-x="874" d="M438 881q139 0 235.5 -93.5t96.5 -232.5q0 -137 -96.5 -230.5t-235.5 -93.5q-138 0 -236 93.5t-98 230.5q0 138 98 232t236 94z" />
<glyph unicode="&#x2026;" horiz-adv-x="1613" d="M809 356q81 0 134.5 -55t53.5 -135q0 -82 -53.5 -136.5t-134.5 -54.5q-83 0 -138 54.5t-55 136.5q0 80 55 135t138 55zM1339 356q79 0 134 -55t55 -135q0 -81 -54.5 -136t-134.5 -55q-83 0 -137.5 54.5t-54.5 136.5q0 80 54.5 135t137.5 55zM279 356q81 0 134.5 -55 t53.5 -135q0 -82 -53.5 -136.5t-134.5 -54.5q-83 0 -138 54.5t-55 136.5q0 80 55 135t138 55z" />
<glyph unicode="&#x202f;" horiz-adv-x="376" />
<glyph unicode="&#x2039;" horiz-adv-x="696" d="M459 1024l176 -154l-277 -311l277 -313l-176 -154l-400 428v74z" />
<glyph unicode="&#x203a;" horiz-adv-x="696" d="M240 1024l397 -430v-74l-397 -428l-177 154l275 313l-275 311z" />
<glyph unicode="&#x2044;" horiz-adv-x="514" d="M758 1352l-778 -1352h-224l779 1352h223z" />
<glyph unicode="&#x205f;" horiz-adv-x="470" />
<glyph unicode="&#x20ac;" horiz-adv-x="1384" d="M817 231q95 0 171 40t124 108l193 -150q-68 -117 -199.5 -185.5t-296.5 -68.5q-218 0 -377 119.5t-225 319.5h-203v196h164q-2 23 -2 68q0 37 2 55h-162v197h197q64 204 224 325t382 121q165 0 296.5 -68.5t199.5 -185.5l-193 -149q-48 67 -124 107t-171 40 q-106 0 -186 -50t-125 -140h481l-53 -197h-481q-4 -36 -4 -57q0 -26 4 -66h444l-53 -196h-334q46 -87 125 -135t182 -48z" />
<glyph unicode="&#x20b4;" horiz-adv-x="1107" d="M969 926h121v-195h-1072v195h660q20 26 20 65q0 65 -45.5 97t-115.5 32q-146 0 -265 -116l-147 180q76 97 185 144.5t229 47.5q198 0 321 -104.5t123 -276.5q0 -34 -14 -69zM18 418v192h1072v-192h-707q-4 -28 -4 -41q0 -72 48 -109t134 -37t175.5 36.5t166.5 101.5 l135 -183q-94 -104 -219.5 -157.5t-257.5 -53.5q-211 0 -339 108.5t-128 293.5q0 17 4 41h-80z" />
<glyph unicode="&#x2113;" horiz-adv-x="1015" d="M500 406q0 -95 47.5 -139t142.5 -44q41 0 201 21v-232q-141 -37 -254 -37q-180 0 -285 83t-125 247l-108 -72l-123 216q151 102 227 155v512q0 226 104 335.5t283 109.5q164 0 253 -88.5t89 -270.5q0 -191 -107 -355.5t-345 -350.5v-90zM500 1128v-313q115 101 165 188.5 t50 186.5q0 137 -94 137q-121 0 -121 -199z" />
<glyph unicode="&#x2116;" horiz-adv-x="2299" d="M1030 547v805h277v-1377h-93l-782 836v-811h-276v1376h90zM1872 483q-147 0 -247.5 97t-100.5 241q0 142 100.5 239t247.5 97q144 0 246 -97.5t102 -238.5q0 -143 -102 -240.5t-246 -97.5zM1872 967q-61 0 -100 -40.5t-39 -105.5q0 -64 38.5 -104.5t100.5 -40.5 q61 0 100 41t39 104q0 65 -39 105.5t-100 40.5zM1540 172v174h666v-174h-666z" />
<glyph unicode="&#x2122;" horiz-adv-x="2015" d="M1874 1368v-936h-229v414l-199 -250h-74l-196 250v-414h-232v936h76l391 -485l391 485h72zM813 1352v-207h-281v-713h-229v713h-280v207h790z" />
<glyph unicode="&#x212e;" horiz-adv-x="1628" d="M1497 670h-1114v-406q72 -99 186 -156t262 -57q160 0 295.5 66t227.5 174l53 -47q-100 -124 -249 -194t-324 -70q-151 0 -283.5 54t-226 146t-147.5 219t-54 269q0 146 57 277t152 224.5t223.5 148t267.5 54.5q99 0 197.5 -27t185.5 -79.5t154 -123t106 -164.5t39 -198 q0 -24 -2 -51.5t-4 -42.5zM834 1298q-143 0 -259 -56.5t-192 -156.5v-344h862v375q-74 88 -179 135t-232 47z" />
<glyph unicode="&#x2190;" horiz-adv-x="1331" d="M1239 541h-627l-139 6l326 -326l-162 -162l-571 570v53l571 571l162 -163l-322 -322l135 6h627v-233z" />
<glyph unicode="&#x2191;" horiz-adv-x="1331" d="M1262 664l-164 -164l-314 313l7 -131v-600h-250v600l4 131l-312 -313l-163 164l569 569h53z" />
<glyph unicode="&#x2192;" horiz-adv-x="1331" d="M694 1253l572 -571v-53l-572 -570l-162 162l326 326l-139 -6h-627v233h627l135 -6l-322 322z" />
<glyph unicode="&#x2193;" horiz-adv-x="1331" d="M1098 813l164 -162l-570 -571h-53l-569 571l163 162l312 -313l-4 131v602h250v-602l-7 -131z" />
<glyph unicode="&#x2194;" horiz-adv-x="1937" d="M1300 1253l570 -571v-53l-570 -570l-161 162l323 326l-139 -6h-195h-270h-246l-139 6l326 -326l-162 -162l-571 570v53l571 571l162 -163l-322 -322l135 6h516h195l135 -6l-319 322z" />
<glyph unicode="&#x2195;" horiz-adv-x="1314" d="M778 272l303 303l164 -161l-561 -564h-53l-561 564l163 161l306 -305l-7 131v381v168l7 131l-306 -305l-163 162l561 563h53l561 -563l-164 -162l-303 303l4 -129v-452v-97z" />
<glyph unicode="&#x2196;" horiz-adv-x="1331" d="M705 766l485 -485l-170 -170l-483 483l-80 88v-473h-240v840l37 36h827v-231h-473z" />
<glyph unicode="&#x2197;" horiz-adv-x="1331" d="M1077 1085l37 -36v-840h-240v473l-79 -88l-484 -483l-170 170l486 485l96 88h-473v231h827z" />
<glyph unicode="&#x2198;" horiz-adv-x="1331" d="M874 1065h240v-840l-37 -39h-827v234h473l-96 88l-486 485l170 170l484 -483l79 -88v473z" />
<glyph unicode="&#x2199;" horiz-adv-x="1331" d="M705 508l-97 -88h473v-234h-827l-37 39v840h240v-473l80 88l483 483l170 -170z" />
<glyph unicode="&#x2212;" d="M1055 774v-235h-965v235h965z" />
<glyph unicode="&#x221e;" horiz-adv-x="1796" d="M1333 1061q129 0 228 -58t148.5 -150t49.5 -200t-49.5 -199.5t-147 -148.5t-225.5 -57q-73 0 -137.5 18t-119 53.5t-96 73t-87.5 90.5q-96 -110 -199 -172.5t-241 -62.5q-127 0 -224.5 57.5t-146.5 148.5t-49 199t49 200t147 150t226 58q136 0 239 -61.5t199 -170.5 q96 109 198.5 170.5t237.5 61.5zM489 492q72 0 134.5 42.5t130.5 122.5q-69 77 -131.5 118.5t-135.5 41.5q-81 0 -131.5 -42.5t-50.5 -117.5q0 -76 50 -120.5t134 -44.5zM1309 492q82 0 132 44.5t50 120.5q0 75 -50.5 117.5t-133.5 42.5q-72 0 -135.5 -42t-129.5 -118 q68 -80 130.5 -122.5t136.5 -42.5z" />
<glyph unicode="&#x24ea;" horiz-adv-x="1988" d="M993 1561q180 0 344 -70.5t282.5 -189t188.5 -282.5t70 -343t-70 -343t-188.5 -282.5t-282.5 -189t-344 -70.5q-179 0 -342.5 70t-281.5 188.5t-188 282.5t-70 344t70 344t188 282.5t281.5 188.5t342.5 70zM993 1352q-138 0 -261 -51.5t-212.5 -140.5t-141.5 -215 t-52 -269t52 -269t141.5 -215t212.5 -140.5t261 -51.5q185 0 338.5 87.5t242.5 243t89 345.5t-89 345.5t-242.5 243t-338.5 87.5zM993 1151q183 0 280 -130t97 -339q0 -136 -40.5 -243.5t-127 -173.5t-209.5 -66t-209.5 66.5t-126 173t-39.5 243.5q0 209 96.5 339t278.5 130 zM993 946q-75 0 -110 -65t-35 -201q0 -277 145 -277q150 0 150 277q0 266 -150 266z" />
<glyph unicode="&#x24ff;" horiz-adv-x="1988" d="M993 1561q180 0 344 -70.5t282.5 -189t188.5 -282.5t70 -343t-70 -343t-188.5 -282.5t-282.5 -189t-344 -70.5q-179 0 -342.5 70t-281.5 188.5t-188 282.5t-70 344t70 344t188 282.5t281.5 188.5t342.5 70zM993 1151q-182 0 -279.5 -130.5t-97.5 -338.5 q0 -136 40.5 -243.5t127 -173.5t209.5 -66q124 0 211 66t127.5 173t40.5 244q0 136 -40.5 240t-127.5 166.5t-211 62.5zM993 942q148 0 148 -262q0 -272 -148 -272q-143 0 -143 272q0 262 143 262z" />
<glyph unicode="&#x25a0;" horiz-adv-x="1495" d="M1311 1239v-1126h-1127v1126h1127z" />
<glyph unicode="&#x25a1;" horiz-adv-x="1495" d="M1311 1239v-1126h-1127v1126h1127zM1071 1010h-647v-668h647v668z" />
<glyph unicode="&#x25aa;" horiz-adv-x="1107" d="M944 897v-778h-780v778h780z" />
<glyph unicode="&#x25ab;" horiz-adv-x="1107" d="M944 897v-778h-780v778h780zM721 680h-334v-346h334v346z" />
<glyph unicode="&#x25b2;" horiz-adv-x="1495" d="M766 1352l688 -1207l-18 -32h-1377l-18 32l688 1207h37z" />
<glyph unicode="&#x25b3;" horiz-adv-x="1495" d="M766 1352l688 -1207l-18 -32h-1377l-18 32l688 1207h37zM1067 348l-319 559l-318 -559h637z" />
<glyph unicode="&#x25b4;" horiz-adv-x="1081" d="M559 977l471 -825l-18 -33h-942l-19 33l471 825h37z" />
<glyph unicode="&#x25b5;" horiz-adv-x="1081" d="M559 977l471 -825l-18 -33h-942l-19 33l471 825h37zM721 297l-180 315l-179 -315h359z" />
<glyph unicode="&#x25b6;" horiz-adv-x="1320" d="M217 1376l1057 -682v-37l-1057 -682l-33 19v1364z" />
<glyph unicode="&#x25b7;" horiz-adv-x="1320" d="M217 1376l1057 -682v-37l-1057 -682l-33 19v1364zM870 676l-446 287v-574z" />
<glyph unicode="&#x25b8;" horiz-adv-x="983" d="M197 991l723 -465v-37l-723 -462l-33 16v930z" />
<glyph unicode="&#x25b9;" horiz-adv-x="983" d="M197 991l723 -465v-37l-723 -462l-33 16v930zM600 508l-252 162v-322z" />
<glyph unicode="&#x25ba;" horiz-adv-x="1968" d="M217 1376l1690 -682v-37l-1690 -682l-33 19v1364z" />
<glyph unicode="&#x25bb;" horiz-adv-x="1968" d="M217 1376l1690 -682v-37l-1690 -682l-33 19v1364zM1319 676l-895 362v-725z" />
<glyph unicode="&#x25bc;" horiz-adv-x="1495" d="M766 0h-37l-688 1206l18 33h1377l18 -33z" />
<glyph unicode="&#x25bd;" horiz-adv-x="1495" d="M1436 1239l18 -33l-688 -1206h-37l-688 1206l18 33h1377zM1067 1004h-637l318 -560z" />
<glyph unicode="&#x25be;" horiz-adv-x="1081" d="M1012 897l18 -33l-471 -825h-37l-471 825l19 33h942z" />
<glyph unicode="&#x25bf;" horiz-adv-x="1081" d="M1012 897l18 -33l-471 -825h-37l-471 825l19 33h942zM721 717h-359l179 -316z" />
<glyph unicode="&#x25c0;" horiz-adv-x="1320" d="M1104 1376l33 -18v-1364l-33 -19l-1057 682v37z" />
<glyph unicode="&#x25c1;" horiz-adv-x="1396" d="M1180 1376l32 -18v-1364l-32 -19l-1057 682v37zM973 963l-447 -287l447 -289v576z" />
<glyph unicode="&#x25c2;" horiz-adv-x="983" d="M786 991l33 -18v-930l-33 -16l-723 462v37z" />
<glyph unicode="&#x25c3;" horiz-adv-x="983" d="M786 991l33 -18v-930l-33 -16l-723 462v37zM635 348v322l-252 -162z" />
<glyph unicode="&#x25c4;" horiz-adv-x="1968" d="M1751 1376l33 -18v-1364l-33 -19l-1690 682v37z" />
<glyph unicode="&#x25c5;" horiz-adv-x="1968" d="M1751 1376l33 -18v-1364l-33 -19l-1690 682v37zM1544 1038l-895 -362l895 -363v725z" />
<glyph unicode="&#x25cb;" horiz-adv-x="1587" d="M797 1350q180 0 335 -91t245.5 -246t90.5 -335q0 -181 -90.5 -337.5t-245.5 -248.5t-335 -92q-181 0 -337 91.5t-248.5 247.5t-92.5 337t92 336.5t248.5 246.5t337.5 91zM797 1118q-184 0 -312.5 -128.5t-128.5 -313.5t128 -315t311 -130t309.5 130.5t126.5 316.5 q0 184 -126 312t-308 128z" />
<glyph unicode="&#x25cf;" horiz-adv-x="1587" d="M797 1350q180 0 335 -91t245.5 -246t90.5 -335q0 -181 -90.5 -337.5t-245.5 -248.5t-335 -92q-181 0 -337 91.5t-248.5 247.5t-92.5 337t92 336.5t248.5 246.5t337.5 91z" />
<glyph unicode="&#x25fc;" horiz-adv-x="1013" d="M0 1014h1014v-1014h-1014v1014z" />
<glyph unicode="&#x261c;" horiz-adv-x="2482" d="M2437 584v-80l-182 -150l106 -364l-71 -49l-475 299q-196 -99 -391.5 -157t-342.5 -58q-127 0 -186 41t-59 110q0 48 28 76q-44 14 -69 45t-25 74q0 62 49 98q-71 33 -71 109q0 41 22 69l-373 4q-170 3 -249.5 54t-79.5 159q0 119 94 161t303 42q155 0 334 -18 q4 94 64.5 146t140.5 52q84 0 165 -51l506 -311q40 -12 131 -43l484 305l71 -47l-104 -367zM1051 1081q-47 0 -56 -53q105 -13 236 -37l-125 72q-40 18 -55 18zM1047 178q119 0 329 60t375 151v303q-232 97 -609.5 156t-764.5 59q-71 0 -99 -10.5t-28 -36.5t24 -37t86 -14 l215 -4q334 -5 588 -21v-141l-223 2q-12 0 -21.5 -7.5t-9.5 -19.5t8.5 -21t20.5 -9h250v-139h-225q-12 0 -20.5 -8.5t-8.5 -20.5t8.5 -20.5t20.5 -8.5h245v-141q-90 -12 -161 -12h-17q-13 0 -22 -8.5t-9 -20.5q0 -31 48 -31zM1925 727v-367l207 -127l-59 193l153 119 l-153 117l59 192z" />
<glyph unicode="&#x261e;" horiz-adv-x="2482" d="M2040 1067q207 0 302 -42t95 -161q0 -108 -80 -159t-250 -54l-372 -4q22 -28 22 -69q0 -76 -74 -109q52 -39 52 -98q0 -43 -26 -74t-69 -45q29 -33 29 -76q0 -69 -60 -110t-186 -41q-148 0 -342.5 57.5t-392.5 157.5l-473 -299l-72 49l105 364l-180 150v80l180 149 l-105 367l72 47l483 -305q60 22 129 43l508 311q79 51 166 51q80 0 140.5 -52t64.5 -146q178 18 334 18zM1399 1063l-125 -72q140 25 235 37q-9 53 -55 53q-8 0 -16 -2t-13 -4t-13.5 -6t-12.5 -6zM2144 809q62 3 85.5 14t23.5 37t-27.5 36.5t-97.5 10.5q-388 0 -766 -59 t-610 -156v-303q167 -92 377 -151.5t329 -59.5q45 0 45 31q0 12 -7.5 20.5t-20.5 8.5h-17q-70 0 -164 12v141h248q12 0 19.5 8.5t7.5 20.5t-8 20.5t-19 8.5h-225v139h250q10 0 18 9t8 21t-8 19.5t-20 7.5l-226 -2v141q258 16 588 21zM580 360v367l-207 127l57 -192 l-154 -117l154 -119l-57 -193z" />
<glyph unicode="&#x2661;" horiz-adv-x="1761" d="M1257 1376q165 0 280.5 -112.5t115.5 -288.5q0 -102 -49 -194t-170 -224l-533 -582h-41l-532 582q-123 132 -172.5 224t-49.5 194q0 176 115.5 288.5t280.5 112.5q131 0 233 -72.5t146 -189.5q44 117 144.5 189.5t231.5 72.5zM1227 696q47 54 71.5 85t45 77.5t20.5 91.5 q0 75 -45.5 119.5t-114.5 44.5q-66 0 -118.5 -44t-84.5 -111.5t-49 -153.5h-141q-29 134 -94 221.5t-160 87.5q-69 0 -115.5 -44.5t-46.5 -119.5q0 -64 34.5 -119.5t105.5 -134.5l346 -389z" />
<glyph unicode="&#x2665;" horiz-adv-x="1761" d="M1257 1376q165 0 280.5 -112.5t115.5 -288.5q0 -102 -49 -194t-170 -224l-533 -582h-41l-532 582q-123 132 -172.5 224t-49.5 194q0 176 115.5 288.5t280.5 112.5q131 0 233 -72.5t146 -189.5q44 117 144.5 189.5t231.5 72.5z" />
<glyph unicode="&#x275b;" horiz-adv-x="1300" d="M774 870q185 0 316 -130.5t131 -317.5q0 -90 -33 -170t-93.5 -141.5t-152 -97.5t-201.5 -36q-135 0 -257.5 53t-211.5 144.5t-141.5 220.5t-52.5 273q0 145 52 274.5t143.5 224t222.5 150t282 55.5q237 0 420 -143l-111 -176q-133 102 -296 102q-202 0 -338 -138.5 t-136 -346.5q0 -70 21 -152q34 152 156 252t280 100z" />
<glyph unicode="&#x275c;" horiz-adv-x="1300" d="M559 1374q135 0 257 -53t211 -144t141.5 -219.5t52.5 -273.5t-52.5 -274.5t-143.5 -224t-222 -150t-281 -55.5q-237 0 -420 143l111 176q133 -102 297 -102q202 0 337.5 138t135.5 347q0 74 -20 152q-34 -153 -157 -253t-282 -100q-185 0 -315.5 131t-130.5 318 q0 90 33 170t93.5 141t152 97t202.5 36z" />
<glyph unicode="&#x275d;" horiz-adv-x="2557" d="M774 870q185 0 316 -130.5t131 -317.5q0 -90 -33 -170t-93.5 -141.5t-152 -97.5t-201.5 -36q-135 0 -257.5 53t-211.5 144.5t-141.5 220.5t-52.5 273q0 145 52 274.5t143.5 224t222.5 150t282 55.5q237 0 420 -143l-111 -176q-133 102 -296 102q-202 0 -338 -138.5 t-136 -346.5q0 -70 21 -152q34 152 156 252t280 100zM2032 870q185 0 315.5 -130.5t130.5 -317.5q0 -90 -33 -170t-93 -141.5t-151.5 -97.5t-201.5 -36q-135 0 -257.5 53t-212 144.5t-142 220.5t-52.5 273q0 194 89 355t250 255t362 94q237 0 420 -143l-111 -176 q-133 102 -297 102q-202 0 -337.5 -138t-135.5 -347q0 -72 20 -150q34 152 156 251t281 99z" />
<glyph unicode="&#x275e;" horiz-adv-x="2570" d="M559 1374q135 0 257 -53t211 -144t141.5 -219.5t52.5 -273.5t-52.5 -274.5t-143.5 -224t-222 -150t-281 -55.5q-237 0 -420 143l111 176q133 -102 297 -102q202 0 337.5 138t135.5 347q0 74 -20 152q-34 -153 -157 -253t-282 -100q-185 0 -315.5 131t-130.5 318 q0 90 33 170t93.5 141t152 97t202.5 36zM1829 1374q135 0 257 -53t210.5 -144t141 -219.5t52.5 -273.5t-52 -274.5t-143.5 -224t-222 -150t-280.5 -55.5q-237 0 -420 143l111 176q133 -102 297 -102q202 0 337.5 138t135.5 347q0 74 -23 154q-33 -154 -154.5 -254.5 t-281.5 -100.5q-185 0 -315.5 131t-130.5 318q0 90 33 170t93.5 141t152 97t202.5 36z" />
<glyph unicode="&#x2776;" horiz-adv-x="1988" d="M993 1561q180 0 344 -70.5t282.5 -189t188.5 -282.5t70 -343t-70 -343t-188.5 -282.5t-282.5 -189t-344 -70.5q-179 0 -342.5 70t-281.5 188.5t-188 282.5t-70 344t70 344t188 282.5t281.5 188.5t342.5 70zM1116 1135h-403v-191h176v-538h-191v-191h594v191h-176v729z " />
<glyph unicode="&#x2777;" horiz-adv-x="1988" d="M993 1561q180 0 344 -70.5t282.5 -189t188.5 -282.5t70 -343t-70 -343t-188.5 -282.5t-282.5 -189t-344 -70.5q-179 0 -342.5 70t-281.5 188.5t-188 282.5t-70 344t70 344t188 282.5t281.5 188.5t342.5 70zM987 1151q-150 0 -246 -93.5t-96 -221.5q0 -30 10 -78h207 q-1 8 -3.5 29t-2.5 30q0 55 32.5 90t88.5 35q51 0 82 -30.5t31 -82.5q0 -50 -27 -93t-92 -115l-322 -361v-47h699v193h-306l115 126q81 86 123.5 158.5t42.5 159.5q0 132 -94.5 216.5t-241.5 84.5z" />
<glyph unicode="&#x2778;" horiz-adv-x="1988" d="M993 1561q180 0 344 -70.5t282.5 -189t188.5 -282.5t70 -343t-70 -343t-188.5 -282.5t-282.5 -189t-344 -70.5q-179 0 -342.5 70t-281.5 188.5t-188 282.5t-70 344t70 344t188 282.5t281.5 188.5t342.5 70zM1311 1135h-615v-205h275l-172 -250v-57h127q166 0 166 -105 q0 -52 -36.5 -81t-94.5 -29q-56 0 -97.5 28.5t-83.5 89.5l-157 -110q47 -100 137.5 -158.5t208.5 -58.5q151 0 253.5 90.5t102.5 230.5q0 105 -58.5 177t-148.5 100l193 278v60z" />
<glyph unicode="&#x2779;" horiz-adv-x="1988" d="M993 1561q180 0 344 -70.5t282.5 -189t188.5 -282.5t70 -343t-70 -343t-188.5 -282.5t-282.5 -189t-344 -70.5q-179 0 -342.5 70t-281.5 188.5t-188 282.5t-70 344t70 344t188 282.5t281.5 188.5t342.5 70zM1077 1135h-243l-259 -721v-62h461v-137h228v137h108v199h-108 v211h-228v-211h-186z" />
<glyph unicode="&#x277a;" horiz-adv-x="1988" d="M993 1561q180 0 344 -70.5t282.5 -189t188.5 -282.5t70 -343t-70 -343t-188.5 -282.5t-282.5 -189t-344 -70.5q-179 0 -342.5 70t-281.5 188.5t-188 282.5t-70 344t70 344t188 282.5t281.5 188.5t342.5 70zM1288 1135h-563v-512h219q166 0 166 -103q0 -54 -39 -84 t-100 -30q-59 0 -102 29t-85 91l-157 -110q47 -100 139 -158.5t215 -58.5q155 0 258.5 91.5t103.5 231.5q0 92 -46.5 161t-115.5 101.5t-147 32.5q-51 0 -92 -8v121h346v205z" />
<glyph unicode="&#x277b;" horiz-adv-x="1988" d="M993 1561q180 0 344 -70.5t282.5 -189t188.5 -282.5t70 -343t-70 -343t-188.5 -282.5t-282.5 -189t-344 -70.5q-179 0 -342.5 70t-281.5 188.5t-188 282.5t-70 344t70 344t188 282.5t281.5 188.5t342.5 70zM1247 1135h-268l-229 -310q-70 -95 -98.5 -154t-28.5 -134 q0 -146 104 -242t246 -96q141 0 246.5 96t105.5 240q0 102 -56 180t-143 108q-54 20 -96 17zM973 664q53 0 90 -36t37 -91t-37 -92t-90 -37t-89 38t-36 93q0 53 36 89t89 36z" />
<glyph unicode="&#x277c;" horiz-adv-x="1988" d="M993 1561q180 0 344 -70.5t282.5 -189t188.5 -282.5t70 -343t-70 -343t-188.5 -282.5t-282.5 -189t-344 -70.5q-179 0 -342.5 70t-281.5 188.5t-188 282.5t-70 344t70 344t188 282.5t281.5 188.5t342.5 70zM1346 1135h-662v-207h360l-344 -713h248l398 860v60z" />
<glyph unicode="&#x277d;" horiz-adv-x="1988" d="M993 1561q180 0 344 -70.5t282.5 -189t188.5 -282.5t70 -343t-70 -343t-188.5 -282.5t-282.5 -189t-344 -70.5q-179 0 -342.5 70t-281.5 188.5t-188 282.5t-70 344t70 344t188 282.5t281.5 188.5t342.5 70zM995 1151q-139 0 -227 -66.5t-88 -185.5q0 -130 129 -209 q-170 -70 -170 -223q0 -123 100 -195.5t256 -72.5t255.5 72.5t99.5 195.5q0 154 -166 225q127 78 127 209q0 118 -89 184t-227 66zM995 973q46 0 75.5 -23.5t29.5 -64.5q0 -37 -27 -61.5t-80 -47.5q-50 22 -75 47t-25 62q0 41 28.5 64.5t73.5 23.5zM993 612q66 -25 99.5 -54 t33.5 -77q0 -46 -33.5 -75t-97.5 -29q-65 0 -98 29t-33 77q0 47 32.5 75.5t96.5 53.5z" />
<glyph unicode="&#x277e;" horiz-adv-x="1988" d="M995 1561q179 0 342.5 -70t282 -188.5t188.5 -282.5t70 -344t-70 -344t-188.5 -282.5t-282 -188.5t-342.5 -70q-180 0 -344 70.5t-282 189t-188 282.5t-70 343t70 343t188 282.5t282 189t344 70.5zM1016 1153q-141 0 -246.5 -96t-105.5 -240q0 -103 56 -181t142 -108 q49 -19 96 -16l-217 -295h269l229 309q48 66 70 101.5t39.5 85.5t17.5 102q0 146 -104 242t-246 96zM1016 944q53 0 89 -38t36 -93q0 -53 -36.5 -89t-88.5 -36q-53 0 -90 36t-37 91t37 92t90 37z" />
<glyph unicode="&#x2780;" horiz-adv-x="1988" d="M993 1561q180 0 344 -70.5t282.5 -189t188.5 -282.5t70 -343t-70 -343t-188.5 -282.5t-282.5 -189t-344 -70.5q-179 0 -342.5 70t-281.5 188.5t-188 282.5t-70 344t70 344t188 282.5t281.5 188.5t342.5 70zM993 1346q-137 0 -259.5 -50.5t-210.5 -138.5t-139.5 -213 t-51.5 -268t51.5 -268t139.5 -213t210.5 -138.5t259.5 -50.5t260 51t211.5 139t140.5 213t52 267t-52 267t-140.5 213t-211.5 139t-260 51zM1116 1135v-729h176v-191h-594v191h191v538h-176v191h403z" />
<glyph unicode="&#x2781;" horiz-adv-x="1988" d="M993 1561q180 0 344 -70.5t282.5 -189t188.5 -282.5t70 -343t-70 -343t-188.5 -282.5t-282.5 -189t-344 -70.5q-179 0 -342.5 70t-281.5 188.5t-188 282.5t-70 344t70 344t188 282.5t281.5 188.5t342.5 70zM993 1346q-137 0 -259.5 -50.5t-210.5 -138.5t-139.5 -213 t-51.5 -268t51.5 -268t139.5 -213t210.5 -138.5t259.5 -50.5t260 51t211.5 139t140.5 213t52 267t-52 267t-140.5 213t-211.5 139t-260 51zM987 1151q147 0 241.5 -84.5t94.5 -216.5q0 -87 -42.5 -159.5t-123.5 -158.5l-115 -126h306v-193h-699v47l322 361q65 72 92 115 t27 93q0 52 -31 82.5t-82 30.5q-56 0 -88.5 -35t-32.5 -90q0 -9 2.5 -30t3.5 -29h-207q-10 48 -10 78q0 128 96 221.5t246 93.5z" />
<glyph unicode="&#x2782;" horiz-adv-x="1988" d="M993 1561q180 0 344 -70.5t282.5 -189t188.5 -282.5t70 -343t-70 -343t-188.5 -282.5t-282.5 -189t-344 -70.5q-179 0 -342.5 70t-281.5 188.5t-188 282.5t-70 344t70 344t188 282.5t281.5 188.5t342.5 70zM993 1346q-137 0 -259.5 -50.5t-210.5 -138.5t-139.5 -213 t-51.5 -268t51.5 -268t139.5 -213t210.5 -138.5t259.5 -50.5t260 51t211.5 139t140.5 213t52 267t-52 267t-140.5 213t-211.5 139t-260 51zM1311 1135v-60l-193 -278q90 -28 148.5 -100t58.5 -177q0 -140 -102.5 -230.5t-253.5 -90.5q-118 0 -208.5 58.5t-137.5 158.5 l157 110q42 -61 83.5 -89.5t97.5 -28.5q58 0 94.5 29t36.5 81q0 105 -166 105h-127v57l172 250h-275v205h615z" />
<glyph unicode="&#x2783;" horiz-adv-x="1988" d="M993 1561q180 0 344 -70.5t282.5 -189t188.5 -282.5t70 -343t-70 -343t-188.5 -282.5t-282.5 -189t-344 -70.5q-179 0 -342.5 70t-281.5 188.5t-188 282.5t-70 344t70 344t188 282.5t281.5 188.5t342.5 70zM993 1346q-137 0 -259.5 -50.5t-210.5 -138.5t-139.5 -213 t-51.5 -268t51.5 -268t139.5 -213t210.5 -138.5t259.5 -50.5t260 51t211.5 139t140.5 213t52 267t-52 267t-140.5 213t-211.5 139t-260 51zM1077 1135l-227 -584h186v211h228v-211h108v-199h-108v-137h-228v137h-461v62l259 721h243z" />
<glyph unicode="&#x2784;" horiz-adv-x="1988" d="M993 1561q180 0 344 -70.5t282.5 -189t188.5 -282.5t70 -343t-70 -343t-188.5 -282.5t-282.5 -189t-344 -70.5q-179 0 -342.5 70t-281.5 188.5t-188 282.5t-70 344t70 344t188 282.5t281.5 188.5t342.5 70zM993 1346q-137 0 -259.5 -50.5t-210.5 -138.5t-139.5 -213 t-51.5 -268t51.5 -268t139.5 -213t210.5 -138.5t259.5 -50.5t260 51t211.5 139t140.5 213t52 267t-52 267t-140.5 213t-211.5 139t-260 51zM1290 1135v-205h-346v-121q41 8 92 8q76 0 145.5 -32.5t117 -101.5t47.5 -161q0 -140 -104.5 -231.5t-260.5 -91.5q-121 0 -213 58.5 t-141 158.5l159 110q42 -62 84.5 -91t100.5 -29q62 0 101.5 30t39.5 84q0 103 -166 103h-219v512h563z" />
<glyph unicode="&#x2785;" horiz-adv-x="1988" d="M993 1561q180 0 344 -70.5t282.5 -189t188.5 -282.5t70 -343t-70 -343t-188.5 -282.5t-282.5 -189t-344 -70.5q-179 0 -342.5 70t-281.5 188.5t-188 282.5t-70 344t70 344t188 282.5t281.5 188.5t342.5 70zM993 1346q-137 0 -259.5 -50.5t-210.5 -138.5t-139.5 -213 t-51.5 -268t51.5 -268t139.5 -213t210.5 -138.5t259.5 -50.5t260 51t211.5 139t140.5 213t52 267t-52 267t-140.5 213t-211.5 139t-260 51zM1247 1135l-217 -295q42 3 96 -17q87 -30 143 -108t56 -180q0 -144 -105.5 -240t-246.5 -96q-142 0 -246 96t-104 242q0 75 28.5 134 t98.5 154l229 310h268zM973 664q-53 0 -89 -36t-36 -89q0 -55 36 -93t89 -38t90 37t37 92t-37 91t-90 36z" />
<glyph unicode="&#x2786;" horiz-adv-x="1988" d="M993 1561q180 0 344 -70.5t282.5 -189t188.5 -282.5t70 -343t-70 -343t-188.5 -282.5t-282.5 -189t-344 -70.5q-179 0 -342.5 70t-281.5 188.5t-188 282.5t-70 344t70 344t188 282.5t281.5 188.5t342.5 70zM993 1346q-137 0 -259.5 -50.5t-210.5 -138.5t-139.5 -213 t-51.5 -268t51.5 -268t139.5 -213t210.5 -138.5t259.5 -50.5t260 51t211.5 139t140.5 213t52 267t-52 267t-140.5 213t-211.5 139t-260 51zM1346 1135v-60l-398 -860h-250l346 713h-360v207h662z" />
<glyph unicode="&#x2787;" horiz-adv-x="1988" d="M993 1561q180 0 344 -70.5t282.5 -189t188.5 -282.5t70 -343t-70 -343t-188.5 -282.5t-282.5 -189t-344 -70.5q-179 0 -342.5 70t-281.5 188.5t-188 282.5t-70 344t70 344t188 282.5t281.5 188.5t342.5 70zM993 1346q-137 0 -259.5 -50.5t-210.5 -138.5t-139.5 -213 t-51.5 -268t51.5 -268t139.5 -213t210.5 -138.5t259.5 -50.5t260 51t211.5 139t140.5 213t52 267t-52 267t-140.5 213t-211.5 139t-260 51zM995 1151q138 0 227 -66t89 -184q0 -131 -127 -209q166 -71 166 -225q0 -123 -99.5 -195.5t-255.5 -72.5t-256 72.5t-100 195.5 q0 153 170 223q-129 79 -129 209q0 119 88 185.5t227 66.5zM995 973q-45 0 -73.5 -23.5t-28.5 -64.5q0 -37 25 -62t75 -47q53 23 80 47.5t27 61.5q0 41 -29.5 64.5t-75.5 23.5zM993 612q-64 -25 -96.5 -53.5t-32.5 -75.5q0 -48 33 -77t98 -29q64 0 97.5 29t33.5 75 q0 48 -33.5 77t-99.5 54z" />
<glyph unicode="&#x2788;" horiz-adv-x="1988" d="M995 1561q179 0 342.5 -70t282 -188.5t188.5 -282.5t70 -344t-70 -344t-188.5 -282.5t-282 -188.5t-342.5 -70q-180 0 -344 70.5t-282 189t-188 282.5t-70 343t70 343t188 282.5t282 189t344 70.5zM995 1346q-184 0 -336 -86.5t-239.5 -240.5t-87.5 -343t87.5 -343 t239.5 -240.5t336 -86.5q137 0 259 50.5t210.5 138.5t140.5 213.5t52 267.5t-52 267.5t-140.5 213.5t-210.5 138.5t-259 50.5zM1016 1153q142 0 246 -96t104 -242q0 -74 -28.5 -132.5t-98.5 -156.5l-229 -309h-269l217 295q-47 -3 -96 16q-86 30 -142 108t-56 181 q0 144 105.5 240t246.5 96zM1016 944q-53 0 -90 -37t-37 -92t37 -91t90 -36q52 0 88.5 36t36.5 89q0 55 -36 93t-89 38z" />
<glyph unicode="&#x27f5;" horiz-adv-x="2490" d="M2398 541h-1767l-139 6l323 -326l-162 -162l-571 570v53l571 571l162 -163l-321 -322l137 6h1767v-233z" />
<glyph unicode="&#x27f6;" horiz-adv-x="2490" d="M1837 1253l571 -571v-53l-571 -570l-162 162l324 326l-139 -6h-1768v233h1768l137 -6l-322 322z" />
<glyph unicode="&#xf8ff;" horiz-adv-x="1478" d="M203 0v1352h1073v-1352h-1073zM938 252q73 0 118.5 46t45.5 110q0 55 -35 113.5t-92 92.5l-49 -51q92 -89 92 -155q0 -35 -20 -57.5t-56 -22.5q-46 0 -87.5 55t-111.5 211q168 97 226.5 159t58.5 128q0 81 -56 124.5t-153 43.5q-10 0 -67 -5l53 113l-84 14l-68 -145 q-91 -18 -211 -74q-47 -130 -47 -329q0 -160 41 -324l86 -16q47 234 88 379.5t107 304.5q41 8 84 8q143 0 143 -103q0 -34 -20.5 -62.5t-82 -72.5t-184.5 -114l-2 -13q40 -102 68.5 -162t62 -108.5t70 -68t82.5 -19.5zM473 414q-4 72 -4 166q0 182 47 321q54 28 105 41 q-105 -269 -134 -528h-14z" />
<glyph horiz-adv-x="1300" d="M651 1376q133 0 236 -52t168 -146t98 -218.5t33 -273.5t-33 -276t-97 -225t-168 -154t-237 -56q-134 0 -238 56t-168 154t-97 225t-33 276q0 150 33 274t97.5 218t168 146t237.5 52zM651 1120q-131 0 -191.5 -110t-60.5 -326q0 -453 252 -453q250 0 250 453 q0 216 -60.5 326t-189.5 110z" />
<glyph horiz-adv-x="821" d="M543 1352h92v-1352h-277v1024l-256 -82l-65 244z" />
<glyph horiz-adv-x="1196" d="M586 236h504v-236l-998 -2v59l483 525q101 109 146 185.5t45 154.5q0 88 -51 143t-137 55t-138.5 -57t-52.5 -150q0 -36 10 -98h-278q-15 59 -15 115q0 84 33.5 164t93.5 143t151.5 101t199.5 38q202 0 335.5 -123t133.5 -309q0 -72 -21 -140t-65 -135t-89.5 -121 t-115.5 -128z" />
<glyph horiz-adv-x="1124" d="M707 856q138 -37 231.5 -145t93.5 -269q0 -136 -69 -243.5t-185 -165.5t-256 -58q-167 0 -294.5 84.5t-196.5 223.5l192 135q61 -93 129.5 -140t161.5 -47q102 0 169 56.5t67 152.5q0 94 -71 144.5t-206 50.5h-170v72l283 395h-451v250h871v-74z" />
<glyph horiz-adv-x="1181" d="M1153 455v-234h-172v-221h-276v221h-672v74l418 1057h284l-358 -897h328v379h276v-379h172z" />
<glyph horiz-adv-x="1155" d="M606 872q86 0 166.5 -27.5t146 -79.5t105 -135.5t39.5 -185.5q0 -137 -69.5 -245t-187.5 -166t-261 -58q-172 0 -302.5 84.5t-199.5 223.5l193 135q60 -93 131.5 -140t169.5 -47q105 0 173 56t68 153q0 96 -70.5 145.5t-205.5 49.5h-316v717h783v-250h-516v-246 q78 16 153 16z" />
<glyph horiz-adv-x="1150" d="M625 918q114 0 216 -57t167 -164t65 -238q0 -137 -69.5 -249t-183 -173.5t-245.5 -61.5q-98 0 -188.5 36.5t-158 99.5t-108 154.5t-40.5 195.5q0 111 42.5 199t141.5 225l338 467h326l-312 -434h9zM575 229q94 0 159 66t65 164q0 97 -64.5 162t-159.5 65 q-94 0 -158.5 -65.5t-64.5 -161.5q0 -97 64.5 -163.5t158.5 -66.5z" />
<glyph horiz-adv-x="1075" d="M78 1352h950v-74l-618 -1278h-301l548 1102h-579v250z" />
<glyph horiz-adv-x="1204" d="M844 700q264 -107 264 -340q0 -176 -141 -280.5t-365 -104.5q-225 0 -366.5 104.5t-141.5 280.5q0 234 266 340q-204 119 -204 318q0 168 126 263t320 95q127 0 227 -40.5t160 -123t60 -194.5q0 -200 -205 -318zM602 1153q-82 0 -135 -39t-53 -108q0 -60 46 -101.5 t142 -85.5q96 42 142.5 84.5t46.5 104.5q0 67 -54 106t-135 39zM602 201q113 0 172.5 46.5t59.5 123.5q0 76 -58.5 123.5t-173.5 89.5q-115 -41 -173 -89t-58 -124t59.5 -123t171.5 -47z" />
<glyph horiz-adv-x="1150" d="M575 1376q133 0 246.5 -61t182.5 -173t69 -251q0 -111 -43 -199.5t-143 -224.5l-336 -467h-328l314 434h-11q-113 0 -214.5 57t-166.5 164t-65 238q0 137 68.5 248.5t181.5 173t245 61.5zM575 666q95 0 159.5 65t64.5 162t-64.5 163t-159.5 66q-93 0 -158 -66t-65 -163 t65 -162t158 -65z" />
<glyph horiz-adv-x="1300" d="M651 1376q133 0 236 -52t168 -146t98 -218.5t33 -273.5t-33 -276t-97 -225t-168 -154t-237 -56q-134 0 -238 56t-168 154t-97 225t-33 276q0 150 33 274t97.5 218t168 146t237.5 52zM651 1137q-268 0 -268 -453q0 -43 4 -121l465 461q-69 113 -201 113zM651 215 q134 0 200.5 123.5t66.5 345.5q0 66 -5 107l-458 -461q67 -115 196 -115z" />
<glyph horiz-adv-x="1349" d="M674 1122q161 0 296.5 -75t214.5 -207t79 -291t-79 -291.5t-215 -208.5t-298 -76q-161 0 -295.5 76t-212.5 208.5t-78 291.5t78 291t213 207t297 75zM674 883q-137 0 -228.5 -94.5t-91.5 -239.5q0 -79 29 -148l444 445q-67 37 -153 37zM674 215q137 0 229 93.5t92 240.5 q0 89 -34 158l-449 -451q71 -41 162 -41z" />
<glyph d="M573 1376q166 0 279.5 -88.5t166 -241t52.5 -360.5q0 -123 -18.5 -230t-58.5 -196t-98 -152t-140 -98t-183 -35t-183 35t-140 98t-97.5 152t-58 196t-18.5 230q0 208 52.5 360.5t165.5 241t279 88.5zM573 1120q-113 0 -163 -106.5t-50 -329.5q0 -225 51 -339t162 -114 t162 114t51 339q0 223 -50 329.5t-163 106.5z" />
<glyph d="M768 236h317v-236h-956v236h363v794l-322 -88l-68 244l574 166h92v-1116z" />
<glyph d="M575 236h502v-236l-997 -2v59l485 525q101 109 146 185.5t45 154.5q0 88 -51.5 143t-137.5 55t-138 -57t-52 -150q0 -36 10 -98h-278q-15 59 -15 115q0 84 33.5 164t93 143t151 101t199.5 38q202 0 335.5 -123t133.5 -309q0 -72 -21 -140t-65 -135t-89 -121.5 t-115 -127.5z" />
<glyph d="M707 856q137 -37 231 -145.5t94 -270.5q0 -202 -148 -333.5t-362 -131.5q-167 0 -294.5 84.5t-196.5 223.5l192 135q61 -93 129.5 -140t161.5 -47q102 0 169 56.5t67 152.5q0 94 -71.5 144.5t-207.5 50.5h-168v72l283 395h-453v250h873v-74z" />
<glyph d="M1102 455v-234h-141v-221h-277v221h-657v74l358 1057h287l-303 -897h315v379h277v-379h141z" />
<glyph d="M610 872q86 0 166.5 -27.5t146 -79.5t105 -135.5t39.5 -185.5q0 -137 -69.5 -245t-187 -166t-259.5 -58q-174 0 -304 84.5t-200 223.5l193 135q60 -93 131.5 -140t169.5 -47q106 0 173.5 56t67.5 153q0 96 -70.5 145.5t-205.5 49.5h-316v717h783v-250h-518v-246 q78 16 155 16z" />
<glyph d="M623 918q114 0 216 -57t167 -164t65 -238q0 -137 -69.5 -249t-183 -173.5t-245.5 -61.5q-98 0 -189 36.5t-159 99.5t-108.5 154.5t-40.5 195.5q0 111 43 199.5t143 224.5l338 467h326l-312 -434h9zM573 229q94 0 159 66t65 164q0 97 -64.5 162t-159.5 65 q-94 0 -158.5 -65.5t-64.5 -161.5q0 -97 64.5 -163.5t158.5 -66.5z" />
<glyph d="M127 1352h948v-74l-618 -1278h-301l551 1102h-580v250z" />
<glyph d="M815 700q264 -108 264 -340q0 -176 -141 -280.5t-365 -104.5q-225 0 -366 104.5t-141 280.5q0 231 264 340q-203 120 -203 318q0 168 125 263t321 95q194 0 319.5 -95t125.5 -263q0 -198 -203 -318zM573 1153q-82 0 -135 -39t-53 -108q0 -60 45.5 -101.5t142.5 -85.5 q95 43 142 85.5t47 103.5q0 66 -53.5 105.5t-135.5 39.5zM573 201q113 0 172.5 47.5t59.5 122.5q0 76 -58 123t-176 90q-114 -41 -171.5 -89t-57.5 -124t58.5 -123t172.5 -47z" />
<glyph d="M573 1376q132 0 245.5 -61t183 -173t69.5 -251q0 -111 -43 -199.5t-143 -224.5l-338 -467h-326l311 434h-8q-114 0 -216 57t-167 164t-65 238q0 137 69 248.5t182.5 173t245.5 61.5zM573 666q94 0 159 65.5t65 161.5q0 97 -65 163t-159 66t-158.5 -65.5t-64.5 -163.5 t64.5 -162.5t158.5 -64.5z" />
<glyph d="M573 1376q166 0 279.5 -88.5t166 -241t52.5 -360.5q0 -123 -18.5 -230t-58.5 -196t-98 -152t-140 -98t-183 -35t-183 35t-140 98t-97.5 152t-58 196t-18.5 230q0 208 52.5 360.5t165.5 241t279 88.5zM573 1141q-121 0 -178 -114.5t-57 -342.5q0 -32 4 -94l418 420 q-59 131 -187 131zM573 211q236 0 236 473q0 14 -1 38t-1 36l-416 -416q61 -131 182 -131z" />
<glyph d="M571 1122q110 0 208 -42.5t169 -117t112.5 -182t41.5 -231.5t-41.5 -232t-112.5 -183t-169 -118t-208 -43q-225 0 -375.5 162.5t-150.5 413.5t150.5 412t375.5 161zM571 868q-111 0 -176 -84.5t-65 -234.5t65 -236t176 -86t178.5 87t67.5 235t-67.5 233.5t-178.5 85.5z " />
<glyph d="M756 1100v-867h334v-233h-973v233h362v619h-338v248h615z" />
<glyph d="M672 233h391v-233h-1002v59l424 320q55 41 84.5 64.5t68 59t57 63t32.5 62t14 70.5q0 74 -50 123t-134 49q-85 0 -133.5 -51.5t-48.5 -130.5q0 -37 8 -84h-272q-15 58 -15 113q0 77 33 150t92 130.5t148.5 92t195.5 34.5q198 0 327.5 -115t129.5 -288q0 -89 -40 -169.5 t-103 -144.5t-164 -141z" />
<glyph d="M709 610q136 -38 229.5 -148t93.5 -269q0 -135 -69 -242t-185 -165t-256 -58q-167 0 -294.5 83.5t-196.5 221.5l192 137q61 -94 129 -141t162 -47q103 0 169.5 56t66.5 152t-71.5 147.5t-207.5 51.5h-164v72l279 391h-453v248h873v-74z" />
<glyph d="M1100 233v-233h-142v-248h-276v248h-657v74l346 1026h286l-290 -867h315v381h276v-381h142z" />
<glyph d="M610 627q86 0 166.5 -28.5t146 -81t105 -136.5t39.5 -186q0 -136 -69.5 -243.5t-187 -165.5t-259.5 -58q-174 0 -304.5 83.5t-197.5 221.5l191 137q61 -93 132 -140.5t169 -47.5q106 0 174.5 57t68.5 154q0 95 -71 145.5t-207 50.5h-316v711h785v-248h-520v-242 q83 17 155 17z" />
<glyph d="M623 918q114 0 216 -57t167 -164t65 -238q0 -137 -69.5 -249t-183 -173.5t-245.5 -61.5q-98 0 -189 36.5t-159 99.5t-108.5 154.5t-40.5 195.5q0 111 43 199.5t143 224.5l338 467h326l-312 -434h9zM573 229q94 0 159 66t65 164q0 97 -64.5 162t-159.5 65 q-94 0 -158.5 -65.5t-64.5 -161.5q0 -97 64.5 -163.5t158.5 -66.5z" />
<glyph d="M127 1100h948v-74l-618 -1274h-299l549 1100h-580v248z" />
<glyph d="M815 700q264 -108 264 -340q0 -176 -141 -280.5t-365 -104.5q-225 0 -366 104.5t-141 280.5q0 231 264 340q-203 120 -203 318q0 168 125 263t321 95q194 0 319.5 -95t125.5 -263q0 -198 -203 -318zM573 1153q-82 0 -135 -39t-53 -108q0 -60 45.5 -101.5t142.5 -85.5 q95 43 142 85.5t47 103.5q0 66 -53.5 105.5t-135.5 39.5zM573 201q113 0 172.5 47.5t59.5 122.5q0 76 -58 123t-176 90q-114 -41 -171.5 -89t-57.5 -124t58.5 -123t172.5 -47z" />
<glyph d="M575 1124q131 0 244 -61t182.5 -173.5t69.5 -250.5q0 -110 -42 -196t-144 -228l-334 -463h-328l309 430h-8q-114 0 -216 57.5t-167 165t-65 238.5q0 137 69 248t183 172t247 61zM573 414q94 0 159 65.5t65 161.5q0 98 -65 163.5t-159 65.5q-95 0 -159 -65t-64 -164 q0 -98 64.5 -162.5t158.5 -64.5z" />
<glyph d="M571 1122q110 0 208 -42.5t169 -117t112.5 -182t41.5 -231.5t-41.5 -232t-112.5 -183t-169 -118t-208 -43q-225 0 -375.5 162.5t-150.5 413.5t150.5 412t375.5 161zM573 889q-121 0 -193.5 -93t-72.5 -247q0 -61 12 -113l404 404q-61 49 -150 49zM573 207 q122 0 194.5 93.5t72.5 248.5q0 54 -15 123l-409 -410q68 -55 157 -55z" />
<glyph horiz-adv-x="1327" d="M6 1559h293l1024 -1764h-295z" />
<glyph horiz-adv-x="552" d="M279 903q81 0 134.5 -55t53.5 -135q0 -82 -53.5 -136.5t-134.5 -54.5q-83 0 -138 54.5t-55 136.5q0 80 55 135t138 55z" />
<glyph horiz-adv-x="874" d="M438 938q139 0 235.5 -93.5t96.5 -232.5q0 -137 -96.5 -230t-235.5 -93q-138 0 -236 93t-98 230q0 138 98 232t236 94z" />
<glyph horiz-adv-x="710" d="M358 1376q80 0 134.5 -54.5t54.5 -135.5q0 -80 -55 -135.5t-134 -55.5q-84 0 -138 55t-54 136q0 82 54 136t138 54zM469 840l51 -840h-330l54 840h225z" />
<glyph horiz-adv-x="925" d="M485 1376q83 0 138 -54t55 -136q0 -80 -55 -135.5t-138 -55.5q-79 0 -133.5 55.5t-54.5 135.5q0 81 54 135.5t134 54.5zM612 856q23 -52 23 -98q0 -35 -13 -67t-41.5 -64t-48.5 -50.5t-59 -50.5q-41 -35 -56 -48.5t-34.5 -36t-25 -41t-5.5 -42.5q0 -58 37.5 -93.5 t91.5 -35.5q108 0 168 156l228 -98q-43 -153 -149.5 -232.5t-254.5 -79.5q-171 0 -287 99.5t-116 259.5q0 92 41.5 158t128.5 141q7 6 23.5 20.5t23 20.5t20 18t19.5 18t16 17t14.5 17.5t11 16t9 17.5t4.5 17t2 18t-2 23t-2 20h233z" />
<glyph horiz-adv-x="1327" d="M1323 1559l-1024 -1764h-293l1022 1764h295z" />
<glyph horiz-adv-x="419" d="M342 -33l-82 -469h-168l8 469h242z" />
<glyph horiz-adv-x="419" d="M211 25q61 0 102 -42t41 -102q0 -63 -40.5 -104t-102.5 -41q-63 0 -105.5 41t-42.5 104q0 60 42.5 102t105.5 42z" />
<glyph horiz-adv-x="845" d="M649 1335q-61 0 -94 -33.5t-33 -99.5q0 -42 22.5 -170t22.5 -180q0 -75 -35 -116t-112 -60q78 -19 112.5 -59.5t34.5 -116.5q0 -52 -22.5 -180t-22.5 -170q0 -66 33 -100t94 -34h119v-221h-166q-315 0 -315 289q0 68 22.5 200t22.5 169q0 56 -27.5 81t-85.5 25h-127v234 h127q58 0 85.5 25t27.5 81q0 37 -22.5 169t-22.5 200q0 288 315 288h166v-221h-119z" />
<glyph horiz-adv-x="845" d="M627 793h125v-234h-125q-58 0 -85.5 -25t-27.5 -81q0 -37 22.5 -169t22.5 -200q0 -289 -315 -289h-166v221h117q61 0 95 34t34 100q0 42 -22.5 170t-22.5 180q0 74 35 115.5t112 60.5q-76 17 -111.5 58.5t-35.5 117.5q0 52 22.5 180t22.5 170q0 66 -34 99.5t-95 33.5 h-117v221h166q315 0 315 -288q0 -68 -22.5 -200t-22.5 -169q0 -56 27.5 -81t85.5 -25z" />
<glyph horiz-adv-x="731" d="M653 1556v-221h-233v-1317h233v-223h-469v1761h469z" />
<glyph horiz-adv-x="731" d="M549 1556v-1761h-471v223h233v1317h-233v221h471z" />
<glyph horiz-adv-x="747" d="M586 1569l108 -164q-313 -208 -313 -727t313 -727l-108 -164q-93 42 -170.5 113.5t-141 178t-99.5 260t-36 339.5t36 339.5t99.5 260t141 178t170.5 113.5z" />
<glyph horiz-adv-x="747" d="M164 1569q73 -33 136 -83.5t120.5 -128t98.5 -174t65 -226t24 -279.5t-24 -279.5t-65 -226t-98.5 -174t-120.5 -128t-136 -83.5l-111 164q316 210 316 727t-316 727z" />
<glyph horiz-adv-x="2048" d="M1946 829v-231h-1844v231h1844z" />
<glyph horiz-adv-x="1028" d="M956 829v-231h-884v231h884z" />
<glyph horiz-adv-x="2048" d="M1946 829v-231h-1844v231h1844z" />
<glyph horiz-adv-x="700" d="M608 829v-231h-516v231h516z" />
<glyph horiz-adv-x="700" d="M608 829v-231h-516v231h516z" />
<glyph horiz-adv-x="1222" d="M459 1094l176 -154l-277 -311l277 -314l-176 -151l-400 426v74zM985 1094l176 -154l-276 -311l276 -314l-176 -153l-399 428v74z" />
<glyph horiz-adv-x="1222" d="M240 1094l397 -430v-74l-397 -426l-177 151l275 314l-275 311zM766 1094l397 -430v-74l-397 -428l-178 153l276 314l-276 311z" />
<glyph horiz-adv-x="696" d="M459 1094l176 -154l-277 -311l277 -314l-176 -151l-400 426v74z" />
<glyph horiz-adv-x="696" d="M240 1094l397 -430v-74l-397 -426l-177 151l275 314l-275 311z" />
<glyph horiz-adv-x="419" d="M342 961l-82 -472h-168l8 472h242z" />
<glyph horiz-adv-x="419" d="M211 1016q61 0 102 -42t41 -102q0 -63 -40.5 -104t-102.5 -41q-63 0 -105.5 41t-42.5 104q0 60 42.5 102t105.5 42z" />
<glyph d="M627 391q145 0 245 146l191 -148q-55 -100 -147 -164.5t-211 -81.5v-342h-240v359q-170 50 -277.5 189t-107.5 319t107.5 319t277.5 189v358h240v-342q119 -17 211 -81.5t149 -164.5l-193 -147q-102 145 -245 145q-117 0 -191 -78t-74 -198t74 -198.5t191 -78.5z" />
<glyph d="M1022 410q0 -144 -93.5 -239t-246.5 -122v-248h-242v254q-240 51 -362 277l188 139q116 -186 309 -186q78 0 127.5 31t49.5 90q0 49 -37.5 78.5t-118.5 62.5l-141 51q-305 114 -305 356q0 125 79.5 214t210.5 120v246h242v-242q203 -43 305 -235l-184 -139 q-96 139 -234 139q-63 0 -105 -25.5t-42 -79.5q0 -46 33 -73.5t104 -55.5l152 -53q156 -58 233.5 -146t77.5 -214z" />
<glyph d="M989 926h121v-195h-1071v195h659q21 31 21 65q0 65 -46 97t-116 32q-145 0 -264 -116l-148 180q76 97 185 144.5t229 47.5q198 0 320 -104.5t122 -276.5q0 -39 -12 -69zM39 418v192h1071v-192h-707q-4 -24 -4 -41q0 -72 48 -109t135 -37q86 0 175.5 36.5t166.5 101.5 l135 -183q-94 -104 -219.5 -157.5t-257.5 -53.5q-212 0 -339.5 108.5t-127.5 293.5q0 29 2 41h-78z" />
<glyph d="M1057 274l67 -235q-134 -64 -299 -64q-223 0 -382.5 119.5t-225.5 319.5h-182v196h143q-2 23 -2 68v55h-139v197h176q65 204 225 325t385 121q167 0 299 -63l-65 -236q-107 43 -221 43q-112 0 -193.5 -49.5t-128.5 -140.5h502l-53 -197h-502q-2 -18 -2 -57q0 -46 2 -66 h467l-56 -196h-354q46 -88 127.5 -135.5t190.5 -47.5q111 0 221 43z" />
<glyph horiz-adv-x="604" d="M543 1864v-49l-281 -332h-201l148 381h334z" />
<glyph horiz-adv-x="829" d="M768 1849q0 -154 -98.5 -254t-253.5 -100q-156 0 -255.5 100t-99.5 254h218q0 -68 38 -108.5t99 -40.5t98 40.5t37 108.5h217z" />
<glyph horiz-adv-x="911" d="M639 1864h211l-303 -381h-182l-304 381h209l185 -164z" />
<glyph horiz-adv-x="911" d="M850 1483h-211l-184 164l-185 -164h-209l304 381h182z" />
<glyph horiz-adv-x="980" d="M227 1827q68 0 117 -46t49 -114q0 -63 -49.5 -110.5t-116.5 -47.5q-64 0 -115 48t-51 110q0 67 50.5 113.5t115.5 46.5zM756 1827q68 0 117 -47t49 -115q0 -63 -49.5 -110.5t-116.5 -47.5q-64 0 -115 48t-51 110q0 67 50.5 114.5t115.5 47.5z" />
<glyph horiz-adv-x="477" d="M240 1841q72 0 124 -50t52 -122t-52 -122t-124 -50q-74 0 -126.5 50t-52.5 122t52.5 122t126.5 50z" />
<glyph horiz-adv-x="589" d="M381 1864l147 -381h-200l-281 332v49h334z" />
<glyph horiz-adv-x="1001" d="M496 1864v-49l-248 -332h-187l148 381h287zM940 1864v-49l-248 -332h-188l149 381h287z" />
<glyph horiz-adv-x="782" d="M721 1763v-217h-660v217h660z" />
<glyph horiz-adv-x="641" d="M319 1882q113 0 187 -72t74 -176q0 -107 -74 -179.5t-187 -72.5q-112 0 -185 72.5t-73 179.5q0 104 73.5 176t184.5 72zM322 1718q-36 0 -60 -24t-24 -60q0 -38 24 -62t60 -24q35 0 59.5 24.5t24.5 61.5q0 35 -24.5 59.5t-59.5 24.5z" />
<glyph horiz-adv-x="937" d="M299 1849q76 0 152 -43l63 -37q4 -2 17.5 -9.5t19 -10t16.5 -7t19.5 -6t17.5 -1.5q28 0 43 19t15 50v25h210q5 -29 5 -68q0 -125 -68 -200.5t-168 -75.5q-72 0 -154 45l-61 33q-59 34 -92 34q-27 0 -41 -19t-14 -48v-25h-211q-7 40 -7 70q0 124 69 199t169 75z" />
<glyph horiz-adv-x="542" d="M481 1597v-49l-219 -379h-201l86 428h334z" />
<glyph horiz-adv-x="903" d="M227 1544q68 0 117 -47t49 -115q0 -63 -49.5 -110t-116.5 -47q-65 0 -115.5 47t-50.5 110q0 68 50 115t116 47zM678 1544q68 0 117 -47t49 -115q0 -63 -49.5 -110t-116.5 -47q-64 0 -115 47.5t-51 109.5q0 67 50.5 114.5t115.5 47.5z" />
<glyph horiz-adv-x="542" d="M393 1597l88 -428h-200l-220 379v49h332z" />
<glyph horiz-adv-x="649" d="M588 1493v-219h-527v219h527z" />
<glyph horiz-adv-x="862" d="M289 1554q74 0 139 -53l41 -33q40 -32 66 -32q51 0 51 71v25h209q6 -30 6 -70q0 -125 -63.5 -200.5t-162.5 -75.5q-71 0 -139 53l-41 31q-41 35 -63 35q-56 0 -56 -72v-25h-208q-7 35 -7 68q0 126 64 202t164 76z" />
</font>
</defs>
</svg>
