<?xml version="1.0" standalone="no"?>
<!DOCTYPE svg PUBLIC "-//W3C//DTD SVG 1.1//EN" "http://www.w3.org/Graphics/SVG/1.1/DTD/svg11.dtd" >
<svg xmlns="http://www.w3.org/2000/svg">
<metadata></metadata>
<defs>
<font id="db_ozone_xbold" horiz-adv-x="0" >
<font-face units-per-em="2048" ascent="1638" descent="-410" />
<missing-glyph horiz-adv-x="428" />
<glyph unicode="&#x2b;&#x2d;" horiz-adv-x="846" d="M780 176v-176h-664v176h664zM542 471v-245h-186v245h-248v187h248v247h186v-247h246v-187h-246z" />
<glyph unicode="&#x2e;&#x2e;&#x2e;" horiz-adv-x="1220" d="M92 110q0 24 9.5 46.5t26 39t38.5 26.5t47 10q26 0 48 -10t38.5 -26.5t26.5 -38.5q10 -23 10 -47q0 -26 -10 -48t-26.5 -38.5t-39 -26t-47.5 -9.5q-26 0 -47.5 9.5t-38 26t-26 38.5t-9.5 48zM887 110q0 24 9.5 46.5t26.5 39t39 26.5t48 10q24 0 46 -10t38.5 -26.5 t25.5 -38.5q10 -23 10 -47q0 -26 -9.5 -48t-26 -38.5t-38.5 -26t-46 -9.5q-26 0 -48 9.5t-39 26t-26.5 38.5t-9.5 48zM492 110q0 24 9 46.5t25.5 39t38.5 26.5q21 10 47 10t48 -10t38 -26.5t26 -38.5q9 -23 9 -47q0 -26 -9.5 -48t-25.5 -38.5t-38 -26t-48 -9.5t-47.5 9.5 t-38 26t-25.5 38.5t-9 48z" />
<glyph unicode="&#x3c;&#x3d;" horiz-adv-x="905" d="M828 266l-750 297v147l750 300v-201l-466 -172l466 -170v-201zM78 0v186h750v-186h-750z" />
<glyph unicode="&#x3e;&#x3d;" horiz-adv-x="905" d="M78 467l464 170l-464 172v201l750 -300v-147l-750 -297v201zM78 0v186h750v-186h-750z" />
<glyph unicode="&#xe4f;&#x22;" horiz-adv-x="1089" d="M342 966l-12 298h166l-12 -298h-142zM596 966l-12 298h166l-12 -298h-142zM448 432q0 -20 8 -37.5t21 -30.5t30.5 -20.5t37.5 -7.5q19 0 36 7.5t30 20.5t20.5 30.5t7.5 37.5t-7.5 37t-20.5 30t-30 20t-36 7q-20 0 -37.5 -7t-30.5 -20t-21 -30t-8 -37zM322 432q0 46 18 86 t48 70t71 48t86 18t85 -18t70.5 -48t48 -70t17.5 -86q0 -45 -17.5 -85.5t-48 -71t-70.5 -48.5t-85 -18q-46 0 -86.5 18t-70.5 48.5t-48 71t-18 85.5zM223 432q0 -44 11.5 -85t32.5 -77t51 -65t65.5 -50t76.5 -33t85 -12t85.5 12t77 33t65 50t50.5 65t32 77t11 85t-11 85 t-32 77t-50.5 65t-65 50t-76.5 33t-86 12q-44 0 -85 -12t-76.5 -33t-65.5 -50t-51 -65t-32.5 -77t-11.5 -85zM80 432q0 65 16 124.5t46 111.5t72.5 94t94 72t111.5 46.5t125 16.5t125 -16.5t111 -46.5t93.5 -72t72.5 -94t46.5 -111.5t16.5 -124.5t-16.5 -124.5t-46.5 -111.5 t-72.5 -94t-93.5 -72t-111 -46.5t-125 -16.5t-125 16.5t-111.5 46.5t-94 72t-72.5 94t-46 111.5t-16 124.5z" />
<glyph unicode="&#xe0e;&#xe3a;" horiz-adv-x="962" d="M354 219q0 -50 -13.5 -85.5t-36 -60t-52 -39.5t-60 -23t-60.5 -10.5t-54 -2.5l-39 180q38 -2 60 4t32.5 15t13.5 20t3 21v241l-78 111q76 124 176.5 186t232.5 62q95 0 166 -22t119 -64t71.5 -104t24.5 -142v-627q0 -39 -12 -68t-29 -49t-34 -32q-17 -10 -27 -14 q-32 -14 -67 -14t-71 14l-155 65q-8 3 -13.5 3t-13.5 -3l-202 -99l-120 142l277 133q14 7 27.5 11t27.5 4t29 -4t33 -11l127 -53q6 -2 11.5 0t5.5 12v576q0 44 -12 75t-34.5 50.5t-55 29t-75.5 9.5q-22 0 -43.5 -3t-43 -10t-42 -18t-39.5 -29l45 -64v-313zM633 -504 q0 24 9.5 46t25.5 38t38 26q22 9 46 9t46 -9.5t38 -25.5t25 -38t9 -46t-9 -46t-25 -38t-38 -25t-46 -9t-46 9t-38 25t-25.5 38t-9.5 46z" />
<glyph unicode="&#xe0f;&#xe3a;" horiz-adv-x="962" d="M654 494q0 44 -12 74.5t-34.5 50t-55 28.5t-75.5 9q-44 0 -86.5 -12t-81.5 -46l45 -64v-315q0 -50 -14 -85.5t-37 -59.5t-52 -39t-60 -22.5t-61 -10t-54 -2.5l-37 178q36 -2 58 3t33 14t14.5 20t3.5 23v241l-78 111q76 124 176.5 186t232.5 62q95 0 166 -22t119 -64 t71.5 -104t24.5 -142v-629q0 -32 -11 -64.5t-32.5 -58t-53 -41.5t-73.5 -16q-20 0 -39 5.5t-37 15.5l-110 59q-10 6 -18 0l-97 -57q-19 -12 -37 -16t-35 -3t-32 7t-27 14l-234 155l181 103l117 -80q9 -6 18 0l92 55q32 17 64 15.5t63 -15.5l82 -45q4 -2 8.5 1t4.5 9v574z M633 -504q0 24 9.5 46t25.5 38t38 26q22 9 46 9t46 -9.5t38 -25.5t25 -38t9 -46t-9 -46t-25 -38t-38 -25t-46 -9t-46 9t-38 25t-25.5 38t-9.5 46z" />
<glyph unicode="&#xe0e;&#xe38;" horiz-adv-x="962" d="M354 219q0 -50 -13.5 -85.5t-36 -60t-52 -39.5t-60 -23t-60.5 -10.5t-54 -2.5l-39 180q38 -2 60 4t32.5 15t13.5 20t3 21v241l-78 111q76 124 176.5 186t232.5 62q95 0 166 -22t119 -64t71.5 -104t24.5 -142v-627q0 -39 -12 -68t-29 -49t-34 -32q-17 -10 -27 -14 q-32 -14 -67 -14t-71 14l-155 65q-8 3 -13.5 3t-13.5 -3l-202 -99l-120 142l277 133q14 7 27.5 11t27.5 4t29 -4t33 -11l127 -53q6 -2 11.5 0t5.5 12v576q0 44 -12 75t-34.5 50.5t-55 29t-75.5 9.5q-22 0 -43.5 -3t-43 -10t-42 -18t-39.5 -29l45 -64v-313zM670 -588 q0 12 -4 17.5t-10 5.5h-72v165h86q53 0 89.5 -7t58.5 -28.5t32 -60.5t10 -102v-146h-190v156z" />
<glyph unicode="&#xe0f;&#xe38;" horiz-adv-x="962" d="M654 494q0 44 -12 74.5t-34.5 50t-55 28.5t-75.5 9q-44 0 -86.5 -12t-81.5 -46l45 -64v-315q0 -50 -14 -85.5t-37 -59.5t-52 -39t-60 -22.5t-61 -10t-54 -2.5l-37 178q36 -2 58 3t33 14t14.5 20t3.5 23v241l-78 111q76 124 176.5 186t232.5 62q95 0 166 -22t119 -64 t71.5 -104t24.5 -142v-629q0 -32 -11 -64.5t-32.5 -58t-53 -41.5t-73.5 -16q-20 0 -39 5.5t-37 15.5l-110 59q-10 6 -18 0l-97 -57q-19 -12 -37 -16t-35 -3t-32 7t-27 14l-234 155l181 103l117 -80q9 -6 18 0l92 55q32 17 64 15.5t63 -15.5l82 -45q4 -2 8.5 1t4.5 9v574z M670 -588q0 12 -4 17.5t-10 5.5h-72v165h86q53 0 89.5 -7t58.5 -28.5t32 -60.5t10 -102v-146h-190v156z" />
<glyph unicode="&#xe0e;&#xe39;" horiz-adv-x="962" d="M354 219q0 -50 -13.5 -85.5t-36 -60t-52 -39.5t-60 -23t-60.5 -10.5t-54 -2.5l-39 180q38 -2 60 4t32.5 15t13.5 20t3 21v241l-78 111q76 124 176.5 186t232.5 62q95 0 166 -22t119 -64t71.5 -104t24.5 -142v-627q0 -39 -12 -68t-29 -49t-34 -32q-17 -10 -27 -14 q-32 -14 -67 -14t-71 14l-155 65q-8 3 -13.5 3t-13.5 -3l-202 -99l-120 142l277 133q14 7 27.5 11t27.5 4t29 -4t33 -11l127 -53q6 -2 11.5 0t5.5 12v576q0 44 -12 75t-34.5 50.5t-55 29t-75.5 9.5q-22 0 -43.5 -3t-43 -10t-42 -18t-39.5 -29l45 -64v-313zM444 -560l-2 2 q-2 1 -4 1h-59v155h96q42 0 70 -8t44.5 -26t22.5 -46t6 -69v-10q0 -10 9 -18.5t25 -8.5q15 0 22.5 9t7.5 18v159h180v-159q0 -42 -16 -77t-44 -59.5t-66 -38.5t-82 -14q-46 0 -84 14t-66 38t-44 59t-16 76v3z" />
<glyph unicode="&#xe0f;&#xe39;" horiz-adv-x="962" d="M654 494q0 44 -12 74.5t-34.5 50t-55 28.5t-75.5 9q-44 0 -86.5 -12t-81.5 -46l45 -64v-315q0 -50 -14 -85.5t-37 -59.5t-52 -39t-60 -22.5t-61 -10t-54 -2.5l-37 178q36 -2 58 3t33 14t14.5 20t3.5 23v241l-78 111q76 124 176.5 186t232.5 62q95 0 166 -22t119 -64 t71.5 -104t24.5 -142v-629q0 -32 -11 -64.5t-32.5 -58t-53 -41.5t-73.5 -16q-20 0 -39 5.5t-37 15.5l-110 59q-10 6 -18 0l-97 -57q-19 -12 -37 -16t-35 -3t-32 7t-27 14l-234 155l181 103l117 -80q9 -6 18 0l92 55q32 17 64 15.5t63 -15.5l82 -45q4 -2 8.5 1t4.5 9v574z M444 -560l-2 2q-2 1 -4 1h-59v155h96q42 0 70 -8t44.5 -26t22.5 -46t6 -69v-10q0 -10 9 -18.5t25 -8.5q15 0 22.5 9t7.5 18v159h180v-159q0 -42 -16 -77t-44 -59.5t-66 -38.5t-82 -14q-46 0 -84 14t-66 38t-44 59t-16 76v3z" />
<glyph unicode="&#xd;" horiz-adv-x="485" />
<glyph unicode=" "  horiz-adv-x="428" />
<glyph unicode="&#x09;" horiz-adv-x="428" />
<glyph unicode="&#xa0;" horiz-adv-x="428" />
<glyph unicode="!" horiz-adv-x="491" d="M356 340h-172l-28 692h227zM158 102q0 23 9 43.5t24 35.5t36 23.5t43 8.5q23 0 43.5 -8.5t35.5 -23.5t23.5 -35t8.5 -44q0 -23 -8.5 -43.5t-23.5 -35.5t-35 -24t-44 -9q-23 0 -43.5 9t-35.5 24t-24 35.5t-9 43.5z" />
<glyph unicode="&#x22;" horiz-adv-x="719" d="M424 731v321h188v-321h-188zM106 731v321h189v-321h-189z" />
<glyph unicode="#" horiz-adv-x="1042" d="M817 596l-21 -135h99v-191h-129l-43 -270h-213l45 270h-151l-44 -270h-214l44 270h-98v191h131l19 135h-98v190h128l37 250h217l-40 -250h147l43 250h211l-39 -250h98v-190h-129zM456 596l-24 -135h150l24 135h-150z" />
<glyph unicode="$" horiz-adv-x="880" d="M824 305q0 -66 -23 -119t-64 -92t-98.5 -63.5t-126.5 -32.5v-162h-160v154q-52 2 -98 11t-88.5 26t-81.5 43t-76 63l144 139q45 -46 100 -67q54 -21 118 -23v242l-36 8q-64 8 -116 30t-89 58t-56.5 86t-19.5 115q0 62 20.5 114.5t59.5 93.5t94 67.5t125 35.5v129h160 v-127q88 -6 158 -36t131 -86l-137 -136q-18 17 -39.5 29.5t-43.5 21.5t-44.5 14t-42.5 7v-232q11 -2 23.5 -5t22.5 -5q70 -10 123 -32t89 -58.5t54 -88.5t18 -122zM370 846q-28 -6 -48 -17t-33.5 -26t-20 -34t-6.5 -40q0 -17 6 -35q6 -16 21 -32q29 -32 81 -38v222zM610 303 q0 24 -6 43q-6 20 -22 33q-18 17 -41 25t-47 12v-232q58 10 87 40.5t29 78.5z" />
<glyph unicode="%" horiz-adv-x="1306" d="M1214 194q0 -50 -17 -88t-47 -64t-70 -39q-38 -13 -82 -13t-83 13t-68.5 39t-47 64t-17.5 88v142q0 49 17.5 86.5t47 62.5t68.5 38t83 13t83 -13t69 -38t47 -62.5t17 -86.5v-142zM490 0h-166l493 1026h164zM522 692q0 -50 -17.5 -87.5t-47 -63t-69 -37.5t-83.5 -12 t-83 12t-68.5 37.5t-46.5 63t-17 87.5v142q0 50 17 88t46.5 63.5t69 38t82.5 12.5q44 0 83.5 -12.5t69 -38t47 -63.5t17.5 -88v-142zM1063 328q0 38 -17.5 56t-47.5 18q-31 0 -48 -18q-18 -18 -18 -56v-128q0 -37 17 -55t49 -18q31 0 48 18.5t17 54.5v128zM370 828 q0 37 -17 55t-48 18t-48 -18.5t-17 -54.5v-130q0 -36 17 -55t48 -19t48 20q17 18 17 54v130z" />
<glyph unicode="&#x26;" horiz-adv-x="1118" d="M784 0l-74 86q-18 -14 -41 -31t-55 -31t-73 -24t-95 -10q-86 0 -150.5 22t-108 63t-65.5 99.5t-22 130.5q0 48 16 88.5t42 74.5t59 62t65 50q-16 18 -33 39t-31 47.5t-24 57t-10 66.5q0 54 19 99t55 78t89 51t120 18q62 0 111 -18t83.5 -51t53 -79t18.5 -100 q0 -30 -7.5 -55t-21.5 -47t-34 -41t-46 -39q-12 -10 -22 -18q-10 -7 -21.5 -15t-21.5 -14q39 -46 81 -94q42 -49 83 -95q7 16 14 36t13.5 43t10.5 47t5 46h192q-4 -100 -29 -179t-75 -140l190 -223h-260zM540 786q0 34 -19.5 55t-53.5 21q-40 0 -60 -21t-20 -55 q0 -12 5.5 -24t14.5 -24.5t20 -26t23 -27.5q6 3 13 7t12 8q7 3 13 9q22 16 37 35t15 43zM391 454q-20 -14 -37.5 -29t-29.5 -32.5t-18.5 -38.5t-6.5 -47q0 -29 11.5 -53t31.5 -41.5t46 -27t56 -9.5q22 0 41 3t36 9t33.5 15t33.5 23z" />
<glyph unicode="'" horiz-adv-x="407" d="M106 740v321h191v-321h-191z" />
<glyph unicode="(" horiz-adv-x="456" d="M272 -146q-40 38 -75 76t-62 84q-13 23 -21 47.5t-12.5 49.5t-6 51t-1.5 51v695q0 26 1.5 51.5t6 50t12.5 49t21 47.5q14 24 29.5 45t33 40t36 38t38.5 39l134 -136q-14 -14 -26 -25t-22 -23t-19 -25t-19 -31q-11 -20 -17 -53t-6 -76v-676q0 -44 5.5 -76.5t17.5 -54.5 q10 -17 19 -30t19 -24.5t22 -23.5l26 -26z" />
<glyph unicode=")" horiz-adv-x="456" d="M45 -12q13 14 24.5 26t22 23.5t20 24.5t19.5 30q11 22 17 54t6 77v676q0 44 -6 76.5t-17 52.5q-10 18 -19.5 31t-20 25t-22 23t-24.5 25l133 136l39 -39t36 -38t33 -40t30 -45q13 -23 20.5 -47.5t12.5 -49t6 -50t1 -51.5v-695q0 -26 -1 -51.5t-6 -50.5t-13 -49t-20 -48 q-28 -46 -63 -84t-75 -76z" />
<glyph unicode="*" horiz-adv-x="753" d="M604 551l-164 103l8 -193h-143l9 193l-166 -103l-68 123l170 88l-170 90l68 125l166 -103l-9 193h143l-8 -193l164 103l72 -125l-172 -90l172 -88z" />
<glyph unicode="+" horiz-adv-x="897" d="M542 332v-248h-186v248h-248v186h248v246h186v-246h246v-186h-246z" />
<glyph unicode="," horiz-adv-x="415" d="M100 -254v473h222v-303z" />
<glyph unicode="-" horiz-adv-x="688" d="M106 330v186h476v-186h-476z" />
<glyph unicode="." horiz-adv-x="426" d="M92 112q0 26 9.5 48t26 39t38.5 27t47 10q26 0 48 -10t38.5 -27t26.5 -39t10 -48q0 -24 -10 -46t-26.5 -38.5t-39 -26t-47.5 -9.5q-26 0 -47.5 9.5t-38 26t-26 38.5t-9.5 46z" />
<glyph unicode="/" horiz-adv-x="598" d="M176 -112h-190l440 1355h188z" />
<glyph unicode="0" horiz-adv-x="780" d="M710 303q0 -76 -26 -134.5t-70 -98t-102 -60t-121 -20.5q-64 0 -122.5 20.5t-102.5 60t-70 98t-26 134.5v426q0 76 26 133.5t70 96t102 58t123 19.5q64 0 121.5 -19.5t101.5 -58t70 -96.5t26 -133v-426zM508 725q0 30 -8.5 54.5t-24 40.5t-37 25t-47.5 9t-47 -9 t-36.5 -25t-24.5 -40t-9 -55v-422q0 -31 9 -55t24.5 -40.5t37 -25t46.5 -8.5q26 0 47.5 8.5t37 25t24 40.5t8.5 55v422z" />
<glyph unicode="1" horiz-adv-x="780" d="M356 0v803l-206 -179v222l208 182h201v-1028h-203z" />
<glyph unicode="2" horiz-adv-x="780" d="M70 0v178l384 444q12 14 22 28t16.5 28t10 29t3.5 33q0 26 -8 47t-23 36t-36 23t-48 8q-23 0 -44.5 -6t-38 -21t-26.5 -39.5t-10 -60.5h-202q0 74 25 131.5t68 97t102 60t126 20.5q69 0 128 -20t101 -58.5t66 -94t24 -125.5q0 -39 -7 -69.5t-22 -57.5t-36 -54t-49 -59 l-274 -316h388v-182h-640z" />
<glyph unicode="3" horiz-adv-x="780" d="M719 303q0 -53 -12.5 -97t-34.5 -79t-52.5 -60.5t-67 -42.5t-78.5 -25.5t-87 -8.5q-43 0 -84 8t-78 24t-68 41.5t-54 60.5t-36 80t-14 101h201q2 -34 13 -58.5t29 -40.5t41.5 -24t49.5 -8q28 0 52 9t41 25t26.5 41t9.5 56q0 30 -9 55.5t-26 43t-42.5 27t-57.5 9.5h-35 v176h35q32 0 55 9t37.5 25t21.5 37.5t7 47.5q0 29 -9 51t-25 37t-37.5 23t-45.5 8t-45.5 -8t-37 -23.5t-25 -38t-11.5 -49.5h-202q2 72 28 127.5t69 94.5t100.5 59t123.5 20q70 0 129 -21.5t101.5 -60.5t66.5 -93.5t24 -118.5q0 -40 -8 -72.5t-23 -58t-35 -45.5 q-19 -20 -42 -34q26 -16 48 -36.5t38 -48.5t25.5 -64t9.5 -80z" />
<glyph unicode="4" horiz-adv-x="780" d="M647 144v-144h-195v144h-419v188l354 696h223l-352 -692h194v188h195v-188h95v-192h-95z" />
<glyph unicode="5" horiz-adv-x="780" d="M712 350q0 -75 -18 -140.5t-58 -114.5t-101 -77t-146 -28q-73 0 -129.5 21t-96 60t-63.5 97t-30 131h198q8 -60 37 -92.5t84 -32.5q25 0 46 7t38 26q24 22 31.5 57.5t7.5 85.5q0 41 -7 73.5t-21 55.5t-37 35t-54 12q-27 0 -47 -8t-34 -20t-22 -27q-10 -15 -14 -29h-186 v586h600v-182h-414v-190q23 17 61.5 28.5t84.5 11.5q76 0 131 -26t90 -73t52 -110t17 -137z" />
<glyph unicode="6" horiz-adv-x="780" d="M729 328q0 -80 -26 -143.5t-71.5 -106.5t-108 -65.5t-134.5 -22.5t-133.5 22t-107.5 65t-72.5 105t-26.5 142q0 38 7.5 74t20 71.5t29 71t34.5 71.5l204 416h226l-198 -387q24 4 40 5q14 1 30 1q54 0 106 -21.5t92 -62.5t64.5 -100t24.5 -135zM524 326q0 34 -10 61.5 t-27.5 46.5t-42.5 29t-55 10t-54.5 -9.5t-42.5 -28.5t-28 -47q-10 -26 -10 -62t10 -64t28 -47.5t42.5 -30t54.5 -10.5q29 0 54 10.5t43 30t28 47.5t10 64z" />
<glyph unicode="7" horiz-adv-x="780" d="M387 0h-221l332 846h-250v-150h-195v332h666v-178z" />
<glyph unicode="8" horiz-adv-x="780" d="M725 303q0 -78 -26.5 -136.5t-71.5 -97.5t-106 -59t-130 -20q-70 0 -132 20t-107.5 59t-72 98t-26.5 136q0 46 11.5 82t29 63.5t39 47.5t43.5 34q-19 14 -38.5 34t-35 46t-24.5 60q-10 34 -10 74q0 69 25.5 123.5t70 91.5t103 57t124.5 20q64 0 122.5 -20t102 -57t69 -92 t25.5 -123q0 -40 -9.5 -74t-25 -60t-34.5 -46t-39 -34q22 -14 44 -34t39 -47.5t28.5 -63.5t11.5 -82zM508 738q0 26 -9 47t-24 36t-37 24t-47 9q-26 0 -48.5 -9t-39 -24t-25.5 -37q-10 -20 -10 -46q0 -28 9.5 -50.5t26 -38t39 -24.5t48.5 -9t47.5 9t36.5 24.5t24 38t9 50.5z M520 305q0 28 -10 52.5t-27 43t-41 29t-51 10.5q-29 0 -54 -10.5t-43 -29t-28 -43.5t-10 -52q0 -28 10 -51.5t28 -41.5t43 -28t54 -10q28 0 51.5 10t40.5 28t27 41.5t10 51.5z" />
<glyph unicode="9" horiz-adv-x="780" d="M49 700q0 80 26.5 143t72.5 106.5t108.5 66t134.5 22.5t133.5 -22t107 -65t71.5 -105t26 -142q0 -38 -7.5 -74t-20 -71.5t-29 -71t-33.5 -71.5l-205 -416h-225l197 387q-23 -4 -38.5 -5t-31.5 -1q-36 0 -71.5 9.5t-67.5 28.5t-59 46t-46.5 62.5t-31 78.5t-11.5 94z M254 702q0 -34 10 -61t28 -46.5t43 -29.5t56 -10q29 0 54 9.5t42 28.5t27 47q10 26 10 62q0 35 -10 63.5t-27 48t-42 30t-54 10.5q-30 0 -55 -10.5t-43.5 -30t-28.5 -48t-10 -63.5z" />
<glyph unicode=":" horiz-adv-x="471" d="M135 112q0 24 9.5 46.5t25.5 39t38 26.5t48 10t48 -10t38 -26.5t26 -38.5q9 -23 9 -47q0 -26 -9.5 -48t-25.5 -38t-38 -26t-48 -10t-48 10t-38 26t-25.5 38t-9.5 48zM135 570q0 26 9.5 47.5t25.5 38t38 25.5t48 9t48 -9t38 -25.5t26 -38.5q9 -21 9 -47t-9.5 -48 t-25.5 -38t-38 -26t-48 -10t-48 10t-38 26t-25.5 38t-9.5 48z" />
<glyph unicode=";" horiz-adv-x="471" d="M148 -254v473h218v-303zM137 570q0 26 9.5 47.5t25.5 38t38 25.5t48 9t48 -9t38 -25.5t26 -38.5q9 -21 9 -47t-9.5 -48t-25.5 -38t-38 -26t-48 -10t-48 10t-38 26t-25.5 38t-9.5 48z" />
<glyph unicode="&#x3c;" horiz-adv-x="923" d="M848 102l-770 298v147l770 299v-201l-478 -172l478 -170v-201z" />
<glyph unicode="=" horiz-adv-x="884" d="M102 498v188h682v-188h-682zM102 164v186h682v-186h-682z" />
<glyph unicode="&#x3e;" horiz-adv-x="923" d="M78 303l475 170l-475 172v201l770 -299v-147l-770 -298v201z" />
<glyph unicode="?" horiz-adv-x="735" d="M680 750q0 -27 -5.5 -51.5t-15 -46.5t-23.5 -44t-30 -43l-114 -151q-6 -8 -10.5 -24t-4.5 -34v-36h-203v48q0 24 3.5 44t10.5 38t17.5 36t26.5 38l104 136q19 22 30 45t11 47t-7.5 43.5t-21.5 34t-34 22.5t-46 8t-46 -9t-33 -25.5t-20 -38t-7 -45.5h-202q0 70 24 126 t66 95t98 59t120 20q62 0 118 -19t99.5 -56t69 -92t25.5 -125zM264 102q0 23 9 43.5t24 35.5t35 23.5t43 8.5t43 -8.5t36 -23.5t25 -35t9 -44q0 -23 -9 -43.5t-25 -35.5t-36 -24t-43 -9t-43 9t-35 24t-24 35.5t-9 43.5z" />
<glyph unicode="@" horiz-adv-x="1345" d="M908 205q-21 0 -40.5 5.5t-36.5 13.5t-32 19t-27 23q-23 -16 -45.5 -27t-44.5 -17t-44 -8.5t-44 -2.5q-42 0 -75 12t-58 33.5t-42 50.5t-26 63t-10.5 71t4.5 75q9 59 32.5 111.5t61 91.5t88.5 61.5t117 22.5q37 0 67.5 -8.5t53.5 -28.5l4 22h153l-65 -366 q-2 -10 -4.5 -23.5t-1.5 -26t6 -21.5t17 -9q37 -3 67 12t52.5 41.5t35.5 62.5t17 74q8 86 -18 160t-79 129t-130 87t-171 32q-58 0 -112 -15t-101 -42t-86 -65.5t-67 -86t-45 -102.5t-19 -115q-2 -62 12.5 -117t42 -103t66.5 -86t85 -65t96 -42t102 -15q34 0 72 4t77 14 t79 25.5t76 38.5l101 -115q-48 -36 -100.5 -59.5t-104.5 -37t-103 -19t-97 -5.5q-84 0 -159.5 22t-140 61t-116 93t-87 118t-53.5 137.5t-16 150.5q2 81 24.5 155.5t61.5 138.5t93.5 117t120 90t141 58t157.5 21q85 0 160.5 -19.5t139 -55t113 -86t83 -113t48.5 -134.5 q16 -74 11 -154q-4 -63 -27.5 -121.5t-66.5 -104.5t-104 -73.5t-139 -27.5zM760 516q3 16 5.5 33t2 35t-4.5 34t-13.5 28.5t-24.5 20t-39 7.5q-36 0 -62 -14t-44 -38t-29 -55t-17 -65q-4 -14 -5 -31t0 -34.5t6 -34.5t15 -30.5t25 -21.5t35 -8q38 0 64.5 14t43.5 37t26.5 55 t15.5 68z" />
<glyph unicode="A" horiz-adv-x="932" d="M700 0l-57 178h-354q-16 -44 -32 -89q-15 -45 -31 -89h-224l377 1028h168l381 -1028h-228zM469 696l-119 -336h232z" />
<glyph unicode="B" horiz-adv-x="952" d="M864 301q0 -74 -24 -130t-67.5 -94t-103 -57.5t-129.5 -19.5h-415v1028h401q75 0 135.5 -20t102.5 -58t64 -92t22 -120q0 -40 -11 -73.5t-27.5 -60t-37 -45.5t-39.5 -31q22 -12 45.5 -31t42 -46t30 -64.5t11.5 -85.5zM635 729q0 24 -8.5 44.5t-24.5 34.5t-39 22t-53 8 h-172v-218h172q60 0 92.5 29t32.5 80zM649 307q0 26 -7.5 47.5t-23.5 37.5t-40 25t-56 9h-184v-234h184q32 0 56 9.5t40 25t23.5 36.5t7.5 44z" />
<glyph unicode="C" horiz-adv-x="911" d="M848 318q-12 -80 -46 -142t-84 -103t-113.5 -62t-135.5 -21q-86 0 -155.5 30t-123.5 84q-40 39 -61 83.5t-30 94.5t-10 107.5t-1 124.5q0 66 1 123.5t10 108t30 94.5t61 84q54 58 123 87t156 29q72 0 135.5 -21.5t113.5 -64t84.5 -105.5t47.5 -147h-215q-7 30 -20 57 t-34 47t-48.5 31t-63.5 11q-38 0 -69.5 -14t-51.5 -40q-14 -16 -23 -34t-14 -48t-7.5 -77.5t-2.5 -120.5q0 -72 2.5 -119t7.5 -77.5t14 -49.5q9 -18 23 -34q20 -22 51 -37t70 -15q36 0 63.5 11.5t48.5 31t34 45.5q13 28 20 58h207z" />
<glyph unicode="D" horiz-adv-x="983" d="M882 520q0 -66 -4.5 -131t-19 -122.5t-40 -106t-68 -84.5t-103.5 -56t-145 -20h-377v1028h377q82 0 142.5 -19t103 -53t68.5 -82t41 -104t20 -120t5 -130zM670 520q0 76 -4 135t-21.5 99.5t-55 62t-105.5 21.5h-146v-646h146q46 0 78 10t52.5 30t32 48t16.5 64t6 80.5 t1 95.5z" />
<glyph unicode="E" horiz-adv-x="858" d="M125 0v1028h690v-190h-477v-222h408v-192h-408v-232h477v-192h-690z" />
<glyph unicode="F" horiz-adv-x="801" d="M338 838v-234h383v-192h-383v-412h-213v1028h667v-190h-454z" />
<glyph unicode="G" horiz-adv-x="938" d="M860 424q0 -57 -5 -102.5t-17 -83.5t-30.5 -69t-45.5 -59q-32 -33 -66 -55.5t-71 -37t-76 -21t-80 -6.5q-86 0 -155.5 30t-123.5 84q-40 39 -61 83.5t-30 94.5t-10 107.5t-1 124.5q0 66 1 123.5t10 108t30 94.5t61 84q54 58 122.5 87t156.5 29q60 0 110.5 -12.5 t91.5 -35.5t73 -55t55.5 -70t38.5 -80.5t22 -88.5h-215q-17 70 -60.5 110t-115.5 40q-40 0 -70.5 -15t-50.5 -39q-14 -16 -23.5 -34t-15 -49t-7 -78t-1.5 -119t1.5 -119t7 -77.5t14.5 -49.5q10 -18 24 -34q20 -22 50 -37t71 -15q44 0 77 16q33 18 56 42q25 25 36 57.5 t11 70.5v32h-186v180h397v-156v0z" />
<glyph unicode="H" horiz-adv-x="1016" d="M676 0v426h-338v-426h-213v1028h213v-412h338v412h215v-1028h-215z" />
<glyph unicode="I" horiz-adv-x="483" d="M135 0v1028h213v-1028h-213z" />
<glyph unicode="J" horiz-adv-x="702" d="M584 340q0 -57 -14 -105t-39 -86.5t-59 -68.5t-75 -50t-87 -30t-95 -10q-42 0 -78.5 6t-69.5 19.5t-65 34.5q-32 22 -62 52l144 142q13 -13 26.5 -24.5t29 -19.5t34 -13t41.5 -5q35 0 63.5 11t48.5 32t30.5 52t10.5 73v678h216v-688v0z" />
<glyph unicode="K" horiz-adv-x="973" d="M725 0l-262 454l-125 -147v-307h-213v1028h213v-424l350 424h266l-348 -410l369 -618h-250z" />
<glyph unicode="L" horiz-adv-x="788" d="M125 0v1028h213v-836h438v-192h-651z" />
<glyph unicode="M" horiz-adv-x="1194" d="M854 0v582l-184 -361h-144l-188 359v-580h-213v1028h195l276 -555l276 555h197v-1028h-215z" />
<glyph unicode="N" horiz-adv-x="1075" d="M776 0l-438 637v-637h-213v1028h172l436 -630v630h217v-1028h-174z" />
<glyph unicode="O" horiz-adv-x="942" d="M854 514q0 -67 -1.5 -124.5t-11 -107.5t-30.5 -94t-59 -84q-28 -26 -58.5 -47t-65 -36t-73.5 -23t-84 -8q-88 0 -157 30q-68 30 -122 84q-40 39 -61 83.5t-30 94.5t-10 107.5t-1 124.5q0 66 1 123.5t10 108t30 94.5t61 84q54 58 122.5 87t156.5 29q89 0 158 -30t123 -86 q38 -39 59 -83.5t30.5 -95t11 -108t1.5 -123.5zM641 514q0 72 -2.5 119t-8.5 78t-15 49t-23 34q-20 24 -49.5 39t-71.5 15q-38 0 -69.5 -15t-51.5 -39q-10 -10 -17 -21t-12 -26.5t-9 -35.5t-6 -47.5t-2.5 -64.5t-0.5 -85q0 -72 2 -118.5t7.5 -77t14.5 -48.5t23 -34 q20 -22 51 -38t70 -16q42 0 71.5 16t49.5 38q14 16 23 34t15 48.5t8.5 77t2.5 118.5z" />
<glyph unicode="P" horiz-adv-x="887" d="M856 706q0 -67 -24 -125.5t-68 -103.5t-108 -70.5t-144 -25.5h-174v-381h-213v1028h387q80 0 144 -25.5t108 -69t68 -102.5t24 -125zM641 706q0 30 -9.5 54.5t-28 41.5t-45 26.5t-58.5 9.5h-162v-262h162q33 0 59 9t44.5 26t28 41t9.5 54z" />
<glyph unicode="Q" horiz-adv-x="942" d="M768 -47l-90 92q-44 -26 -95 -40.5t-110 -14.5q-44 0 -82.5 8t-73.5 23t-66 36t-59 47q-39 39 -59.5 83.5t-30.5 94.5t-11 107.5t-1 124.5q0 66 1 123.5t11 108t31 94.5t59 84q54 58 123.5 87t157.5 29t157 -30q70 -28 122 -86q39 -39 60 -83.5t30.5 -95t11.5 -108 t2 -123.5q0 -56 -1 -105.5t-7 -93.5t-18 -83q-14 -38 -36 -74l88 -88zM643 514q0 72 -2.5 119t-8.5 78t-15 49t-23 34q-20 24 -50 39t-71 15q-38 0 -69.5 -15t-51.5 -39q-10 -10 -17 -21t-12 -26.5t-9 -35.5t-6 -47.5t-2.5 -64.5t-0.5 -85q0 -72 2 -118.5t7.5 -77 t14.5 -48.5t23 -34q20 -22 51 -38t70 -16q14 0 29 4q14 4 24 8l-86 86l117 118l71 -72q8 31 11.5 76.5t3.5 111.5z" />
<glyph unicode="R" horiz-adv-x="952" d="M672 0l-201 404h-133v-404h-213v1028h409q80 0 144 -25t107 -68t66 -101t23 -124q0 -50 -15 -92t-41 -76t-59 -59t-69 -41l232 -442h-250zM658 710q0 28 -9.5 52t-27 40.5t-42.5 26t-57 9.5h-184v-250h184q32 0 57 9t42.5 25t27 38t9.5 50z" />
<glyph unicode="S" horiz-adv-x="839" d="M784 305q0 -75 -30 -134t-82 -99t-122 -61t-152 -21q-60 0 -113 7t-101 24t-91 44.5t-83 67.5l142 139q50 -49 113 -69.5t133 -20.5q86 0 130 32t44 89q0 27 -8.5 46t-23.5 32t-36.5 21t-47.5 14l-122 16q-64 10 -116 32t-88 57t-55 85t-19 117q0 70 24.5 128t71 99.5 t114.5 64.5t154 23q53 0 99.5 -7t88.5 -22t80 -39t74 -56l-140 -136q-26 24 -52 38t-53 22t-53 10t-50 2q-38 0 -66.5 -9.5t-47 -25.5t-27.5 -37.5t-9 -46.5q0 -24 9 -42.5t25 -31.5t37 -21t46 -12l121 -16q66 -10 118.5 -33t89 -60t55.5 -89.5t19 -120.5z" />
<glyph unicode="T" horiz-adv-x="758" d="M486 842v-842h-216v842h-266v186h750v-186h-268z" />
<glyph unicode="U" horiz-adv-x="995" d="M878 354q0 -82 -29 -149t-80 -115t-121 -74t-150 -26t-150.5 26t-122 74t-81.5 116q-30 66 -30 148v674h218v-666q0 -42 11 -75t32.5 -56.5t52 -36t70.5 -12.5q39 0 70 12.5t52.5 36t33.5 56.5t12 75v666h212v-674v0z" />
<glyph unicode="V" horiz-adv-x="887" d="M524 0h-162l-346 1028h226l200 -639l201 639h227z" />
<glyph unicode="W" horiz-adv-x="1304" d="M1014 0h-154l-206 641l-212 -641h-151l-279 1028h226l153 -614l181 614h161l181 -614l155 614h223z" />
<glyph unicode="X" horiz-adv-x="876" d="M631 0l-195 346l-192 -346h-246l324 528l-306 500h246l174 -320l178 320h242l-303 -500l325 -528h-247z" />
<glyph unicode="Y" horiz-adv-x="862" d="M538 422v-422h-214v422l-314 606h238l184 -393l184 393h236z" />
<glyph unicode="Z" horiz-adv-x="835" d="M74 0v168l432 670h-414v190h670v-164l-432 -672h432v-192h-688z" />
<glyph unicode="[" horiz-adv-x="579" d="M144 -190v1519h380v-193h-168v-1136h168v-190h-380z" />
<glyph unicode="\" horiz-adv-x="637" d="M-14 1323h200l468 -1444h-202z" />
<glyph unicode="]" horiz-adv-x="579" d="M56 -190v190h167v1136h-167v193h380v-1519h-380z" />
<glyph unicode="^" horiz-adv-x="870" d="M594 540l-158 292l-158 -292h-208l274 508h184l275 -508h-209z" />
<glyph unicode="_" horiz-adv-x="829" d="M0 -293v133h830v-133h-830z" />
<glyph unicode="`" horiz-adv-x="807" d="M356 790l-188 267h202l162 -267h-176z" />
<glyph unicode="a" horiz-adv-x="784" d="M498 0v68q-20 -19 -40 -33.5t-43 -24t-49.5 -14t-60.5 -4.5q-54 0 -101.5 16t-83.5 47t-56.5 77t-20.5 106q0 46 16 88t48.5 74t82.5 51.5t117 19.5h187v29q0 32 -8.5 55.5t-26.5 39t-46 22.5t-67 7q-26 0 -47 -4t-39 -12.5t-34 -20t-32 -26.5l-120 119q28 28 58.5 48 t65 33t72.5 19t84 6q164 0 248 -68t84 -206v-512h-188zM494 320h-156q-52 0 -80 -19t-28 -61q0 -20 6.5 -37t20.5 -29t34.5 -18t48.5 -6q21 0 38 1t32 5.5t28.5 12t26.5 19.5q16 16 23 40q6 22 6 58v34z" />
<glyph unicode="b" horiz-adv-x="831" d="M776 391q0 -47 -4 -95t-15 -92.5t-31 -83.5t-52 -67.5t-78 -45.5t-108 -17q-63 0 -112 20q-48 20 -90 64v-74h-186v1126h195v-416q38 42 84.5 59t108.5 17q58 0 101.5 -14t75.5 -40t53.5 -62.5t34.5 -80.5t18 -94t5 -104zM576 391q0 47 -6 87.5t-22.5 70t-45 46.5 t-72.5 17q-46 0 -73 -17t-41 -46.5t-17.5 -70t-3.5 -87.5q0 -48 3.5 -89t17.5 -71.5t41 -47.5t73 -17q44 0 72.5 17t45 47.5t22.5 71.5t6 89z" />
<glyph unicode="c" horiz-adv-x="741" d="M692 96q-52 -54 -115 -80t-145 -26q-39 0 -80 8t-79.5 26t-73.5 48t-61 75t-41 105t-15 139q0 78 15 138t41 104t61 73.5t73.5 47.5t79.5 25t80 7q82 0 145 -25t115 -77l-133 -133q-14 16 -28.5 27.5t-30 19.5t-32 11t-36.5 3q-30 0 -53 -9t-40 -24.5t-29 -37t-19.5 -46 t-11 -51t-3.5 -53.5q0 -24 3 -50t10 -51t19 -47.5t29 -39.5t40.5 -27t54.5 -10q20 0 36.5 3t32 10.5t29.5 19t29 29.5l133 -132v0z" />
<glyph unicode="d" horiz-adv-x="831" d="M56 391q0 54 5 104t18 94t34 80.5t53 62.5t76 40t102 14q30 0 57 -4t51 -13t45 -23t39 -36v416h195v-1126h-186v74q-42 -44 -90 -64t-111 -20t-108.5 17t-78 45.5t-52 67.5t-31 83.5t-15 92.5t-3.5 95zM256 391q0 -48 6 -89t22 -71.5t44 -47.5q30 -17 74 -17q46 0 73 17 t40.5 47.5t17 72t3.5 88.5t-3.5 87.5t-17 70t-40.5 46.5t-73 17q-44 0 -73 -17t-45 -46.5t-22 -70t-6 -87.5z" />
<glyph unicode="e" horiz-adv-x="790" d="M244 330q0 -38 12 -70t34 -55t54 -36t72 -13q33 0 58 4t45.5 13t39 23t37.5 34l119 -118q-31 -29 -62 -51.5t-66 -38.5t-77 -24t-96 -8q-46 0 -91 8t-86 26t-75 48t-59 75t-39.5 105t-14.5 139q0 94 25.5 167.5t71 124.5t109 77t141.5 26q82 0 145 -28t107 -77t67 -117 t23 -148v-86h-494zM542 463q0 30 -9 59.5t-28 52t-46 36t-63 13.5q-34 0 -61.5 -12t-46.5 -34t-30.5 -51t-13.5 -64h298z" />
<glyph unicode="f" horiz-adv-x="430" d="M291 628v-628h-195v628h-80v150h80v125q0 42 13.5 82t41 71.5t70.5 50.5t103 19h110v-166h-76q-36 0 -51.5 -17.5t-15.5 -51.5v-113h143v-150h-143z" />
<glyph unicode="g" horiz-adv-x="827" d="M727 -49q0 -70 -24.5 -129t-69.5 -101.5t-109 -66.5t-145 -24q-46 0 -85.5 5t-74 16.5t-65.5 30.5q-32 20 -64 48l125 124q32 -32 69 -48q36 -15 86 -15q46 0 76.5 14.5t49 37.5t26.5 52t8 58v119q-37 -42 -82.5 -60t-105.5 -18q-56 0 -98.5 15t-73 42t-51 64.5t-32.5 82 t-16.5 93.5t-4.5 100q0 46 4 93.5t15 91.5t30 82t50 67t75 45t104 16q32 0 58 -4t50 -14t45 -26t41 -38v74h189v-827zM530 410q0 39 -3.5 75.5t-17 64.5t-39.5 45t-70 17q-30 0 -52 -9t-37.5 -25t-26 -37t-16.5 -46t-8 -51.5t-2 -52.5q0 -38 6 -77.5t21 -71.5t43 -52t72 -20 q30 0 51 10.5t35 29t23 42t14 50t6 54.5t1 54z" />
<glyph unicode="h" horiz-adv-x="839" d="M547 0v475q0 38 -11.5 64.5t-29.5 42.5t-40.5 23t-45.5 7t-45.5 -7t-40 -23t-28.5 -42t-11 -65v-475h-195v1126h195v-420q38 40 85.5 60t101.5 20q64 0 112 -21t81 -58.5t50 -89t17 -113.5v-504h-195z" />
<glyph unicode="i" horiz-adv-x="403" d="M104 0v778h195v-778h-195zM88 1038q0 23 9 43.5t24 35.5t36 23.5t43 8.5q23 0 43.5 -8.5t35.5 -23.5t24 -35t9 -44q0 -23 -9 -43.5t-24 -35.5t-35 -24t-44 -9q-23 0 -43.5 9t-35.5 24t-24 35.5t-9 43.5z" />
<glyph unicode="j" horiz-adv-x="403" d="M299 -96q0 -42 -13 -82t-40.5 -71t-70.5 -50t-103 -19h-113v164h76q37 0 53 17.5t16 54.5v860h195v-874zM88 1038q0 23 9 43.5t24 35.5t36 23.5t43 8.5q23 0 43.5 -8.5t35.5 -23.5t24 -35t9 -44q0 -23 -9 -43.5t-24 -35.5t-35 -24t-44 -9q-23 0 -43.5 9t-35.5 24 t-24 35.5t-9 43.5z" />
<glyph unicode="k" horiz-adv-x="788" d="M568 0l-193 324l-80 -92v-232h-195v1126h195v-665l258 317h233l-278 -313l299 -465h-239z" />
<glyph unicode="l" horiz-adv-x="438" d="M328 0q-60 0 -103 19t-71 51t-41 72t-13 81v903h195v-890q0 -36 15.5 -54t51.5 -18h74v-164h-108z" />
<glyph unicode="m" horiz-adv-x="1353" d="M1054 0v469q0 40 -14 67.5t-36 44.5t-48 24t-48 7t-46 -7t-43.5 -23t-32 -42t-12.5 -65v-475h-194v469q0 40 -14 67.5t-35 44.5t-46.5 24t-48.5 7t-47.5 -7t-44.5 -24t-32.5 -44t-12.5 -68v-469h-195v778h189v-72q19 20 43 35t51 25t55 15t56 5q32 0 63 -5.5t60 -17.5 t53 -30.5t43 -42.5q49 49 106 72.5t129 23.5q62 0 116 -21t94 -60t64 -92t24 -115v-498h-196z" />
<glyph unicode="n" horiz-adv-x="839" d="M553 0v469q0 40 -10.5 67.5t-27.5 44.5t-39.5 24t-45.5 7t-47 -9t-43.5 -28.5t-32 -48t-12.5 -65.5v-461h-195v778h189v-82q40 42 87.5 66t107.5 24q62 0 110 -22t82.5 -61t53.5 -91q18 -52 18 -114v-498h-195z" />
<glyph unicode="o" horiz-adv-x="813" d="M748 391q0 -87 -17.5 -160.5t-57.5 -127t-106 -83.5q-65 -30 -163 -30q-97 0 -162 30.5t-104.5 84t-55.5 127t-16 159.5q0 57 7 108t23 95t42 80t63.5 61t87.5 38q51 13 115 13q96 0 161.5 -29t106 -82t58.5 -125.5t18 -158.5zM553 391q0 42 -5.5 82t-21.5 71t-45 49.5 t-77 18.5q-47 0 -75.5 -19t-44.5 -50t-21 -71t-5 -81q0 -43 5 -83.5t21 -72t44 -50.5t76 -19t77 19t45 50t21.5 71.5t5.5 84.5z" />
<glyph unicode="p" horiz-adv-x="831" d="M776 387q0 -54 -5 -104.5t-18 -94.5t-34.5 -80t-53.5 -62.5t-75.5 -41t-101.5 -14.5q-62 0 -108.5 18t-84.5 60v-416h-195v1126h186v-74q21 22 43.5 38t47 26t52 14t59.5 4q63 0 108.5 -16t77.5 -45t52 -68t31 -83t15 -92t4 -95zM576 387q0 48 -6 89t-22.5 71.5t-45 47.5 t-72.5 17q-46 0 -73 -17t-41 -47.5t-17.5 -72t-3.5 -88.5t3.5 -87t17.5 -70t41 -47t73 -17q44 0 72.5 17t45 47t22.5 70t6 87z" />
<glyph unicode="q" horiz-adv-x="831" d="M56 387q0 47 3.5 95t15 92t31 83t52 68t78 45t108.5 16q32 0 59 -4t52 -14t47 -26t43 -38v74h186v-1126h-195v416q-19 -20 -39.5 -35t-44.5 -25t-51 -14t-57 -4q-58 0 -102 14.5t-76 41t-53 62.5t-34 80t-18 94.5t-5 104.5zM256 387q0 -47 6 -87t22 -70t44 -47 q30 -17 74 -17q46 0 73 17t40.5 47t17 70t3.5 87q0 48 -3.5 89t-17 71.5t-40.5 47.5t-73 17q-44 0 -73 -17t-45 -47.5t-22 -71.5t-6 -89z" />
<glyph unicode="r" horiz-adv-x="538" d="M482 598q-12 6 -28 10t-34 4q-22 0 -44.5 -8t-40 -26t-29 -45t-11.5 -64v-469h-195v778h189v-76q14 18 35 33.5t46.5 27t54.5 17.5t61 6q34 0 61 -5t53 -19z" />
<glyph unicode="s" horiz-adv-x="747" d="M692 244q0 -64 -25 -112t-69 -79t-104 -47t-128 -16q-45 0 -88.5 4t-84.5 16t-79 34q-39 22 -75 60l125 128q24 -24 50.5 -39.5t53 -23.5t52.5 -10.5t48 -2.5q26 0 50 4t43 14t31 26t12 38q0 14 -4 26.5t-13 22t-24 15.5t-37 7l-125 13q-52 6 -93 20t-70 40t-44.5 65 t-15.5 91q0 60 24.5 107t65.5 78t94.5 47t112.5 16q44 0 85.5 -4t78.5 -14.5t70 -28t61 -43.5l-119 -120q-17 16 -38 25t-44 15t-48 8t-51 2q-28 0 -48 -6t-33 -16t-19 -23t-6 -28q0 -10 2.5 -21.5t10.5 -20.5t23.5 -16t41.5 -9l123 -13q114 -10 170.5 -69.5t56.5 -159.5z " />
<glyph unicode="t" horiz-adv-x="463" d="M334 0q-60 0 -102 19t-70 51t-41 72t-13 81v405h-84v150h84v244h195v-244h135v-150h-135v-392q0 -34 16 -53q15 -19 51 -19h68v-164h-104z" />
<glyph unicode="u" horiz-adv-x="841" d="M289 778v-471q0 -40 10.5 -67t27.5 -43.5t39 -23.5t46 -7q23 0 46.5 7t43.5 23.5t32.5 43.5t12.5 67v471h195v-778h-189v72q-40 -42 -90.5 -62t-104.5 -20q-62 0 -110.5 22t-83 61t-52.5 92t-18 115v498h195z" />
<glyph unicode="v" horiz-adv-x="768" d="M463 0h-154l-291 778h208l161 -481l158 481h207z" />
<glyph unicode="w" horiz-adv-x="1169" d="M914 0h-162l-166 488l-164 -488h-162l-242 778h210l126 -481l160 481h142l161 -481l129 481h205z" />
<glyph unicode="x" horiz-adv-x="772" d="M528 0l-143 234l-143 -234h-232l268 398l-258 380h234l131 -223l133 223h234l-258 -380l266 -398h-232z" />
<glyph unicode="y" horiz-adv-x="768" d="M391 -192q-29 -76 -85 -118t-142 -42h-78v176h47q20 0 35 3t26.5 10t19.5 20t16 35l56 164l-270 722h207l164 -481l158 481h207z" />
<glyph unicode="z" horiz-adv-x="702" d="M56 0v148l346 454h-326v176h571v-150l-348 -452h348v-176h-591z" />
<glyph unicode="{" horiz-adv-x="631" d="M442 -172q-51 0 -94 15t-75 44t-50 71q-18 44 -18 98v280q0 67 -27 94q-12 12 -32 20.5t-48 8.5h-51v178h51q28 0 48 9q20 10 32 20q7 8 12 23t8.5 33.5t5 38t1.5 35.5v224q0 54 15.5 97t46.5 72t75 45t100 16h138v-181h-62q-30 0 -51.5 -6t-35.5 -20t-20.5 -37.5 t-6.5 -57.5v-246q0 -42 -11 -69t-27 -44t-34 -26t-33 -14q14 -6 32.5 -15.5t34.5 -26.5t27 -44t11 -67v-267q0 -30 5 -52.5t18.5 -37.5t35.5 -23t55 -8h62v-180h-138z" />
<glyph unicode="|" horiz-adv-x="510" d="M154 -112v1357h200v-1357h-200z" />
<glyph unicode="}" horiz-adv-x="631" d="M51 -172v180h61q34 0 56.5 8t35.5 23t18.5 38t5.5 52v267q0 40 10.5 67t27 44t34.5 26.5t34 15.5q-16 5 -34 14t-34.5 26t-27.5 45q-10 26 -10 68v246q0 34 -7 57.5t-21 37.5t-36 20t-52 6h-61v181h137q57 0 101.5 -16t75.5 -45t47 -72t16 -97v-224q0 -16 1 -35.5t4 -38 t8 -34.5q5 -14 11 -22q12 -10 33 -19.5t47 -9.5h54v-178h-54q-26 0 -46 -9q-22 -8 -34 -20q-14 -14 -19 -37t-5 -57v-280q0 -54 -18.5 -97t-51 -72t-76.5 -44t-94 -15h-137z" />
<glyph unicode="~" horiz-adv-x="956" d="M887 420q-46 -48 -94.5 -79.5t-101.5 -43.5t-111 -2.5t-126 45.5q-34 18 -66.5 27t-65 6.5t-64.5 -17t-64 -44.5l-124 124q46 48 94 79.5t100 43.5t110 2.5t126 -45.5q34 -18 67 -27t64.5 -6.5t63.5 17.5t65 45l127 -125v0z" />
<glyph unicode="&#xa2;" horiz-adv-x="803" d="M696 301q-33 -40 -60.5 -66.5t-52.5 -42.5t-51 -24t-55 -12v-128h-143v136q-58 12 -105 43t-79 78t-49 109t-17 134t17 133t49 107.5t79 77t105 43.5v109h143v-105q56 -8 111 -41q56 -32 112 -100l-114 -98q-38 40 -63 63t-46 31v-443q26 12 53.5 35.5t59.5 59.5l104 -95 zM334 733q-27 -14 -45.5 -35.5t-29 -48.5t-15 -58t-4.5 -63t4 -63t14.5 -59t29 -50t46.5 -36v413z" />
<glyph unicode="&#xa3;" horiz-adv-x="788" d="M108 0v438h-94v160h94v104q0 78 26 141t73.5 107t115 68t152.5 24q83 0 159 -34q74 -32 150 -100l-135 -126q-20 16 -39.5 32t-40.5 28t-44 19t-50 7q-42 0 -73.5 -12t-53.5 -35t-33.5 -56t-11.5 -75v-92h229v-160h-229v-264h457v-174h-652z" />
<glyph unicode="&#xa5;" horiz-adv-x="862" d="M647 631h147v-164h-233l-23 -45v-47h256v-164h-256v-211h-214v211h-258v164h258v47l-25 45h-233v164h147l-203 397h238l184 -393l184 393h236z" />
<glyph unicode="&#xa9;" horiz-adv-x="1300" d="M1204 528q0 -77 -19.5 -147.5t-55.5 -132.5t-86.5 -112.5t-111.5 -86.5t-132 -55.5t-147 -19.5q-77 0 -148.5 19.5t-133.5 55.5t-113 86.5t-87 112.5t-56 133t-20 147t20 147.5t56 133t87 112.5t113 87t133 56t149 20q76 0 147 -20t132 -56t111.5 -87t86.5 -112.5 t55.5 -133t19.5 -147.5zM1052 528q0 55 -14 107t-40.5 97.5t-63 82.5t-81.5 64t-96 42t-105 15q-56 0 -107 -15t-96 -42t-82 -64t-63.5 -82.5t-41 -97t-14.5 -107.5q0 -55 14.5 -106.5t41 -96.5t63.5 -82.5t82 -64.5t96 -42t107 -15q54 0 105 15t96 42t81.5 64.5t63 82.5 t40.5 96.5t14 106.5zM897 320q-32 -30 -59.5 -51t-53.5 -34t-54 -18.5t-60 -5.5q-72 0 -125 25.5t-87 69.5t-50.5 101t-16.5 121q0 66 16.5 125t50.5 103t87 69t125 25q32 0 60 -7.5t56 -22t55 -34.5t56 -46l-92 -99q-22 21 -40 35t-34 23t-31 13q-14 3 -30 3 q-38 0 -64 -15.5t-42 -41.5t-23 -60t-7 -70t7 -68t23 -56.5t42 -39.5q26 -14 64 -14q16 0 31.5 3t32 10t35.5 20.5t40 34.5z" />
<glyph unicode="&#xab;" horiz-adv-x="944" d="M477 418l385 380v-237l-147 -143l147 -144v-237zM47 418l385 380v-237l-146 -143l146 -144v-237z" />
<glyph unicode="&#xad;" horiz-adv-x="688" d="M106 330v186h476v-186h-476z" />
<glyph unicode="&#xae;" horiz-adv-x="1300" d="M1204 528q0 -77 -19.5 -147.5t-55.5 -132.5t-86.5 -112.5t-111.5 -86.5t-132 -55.5t-147 -19.5q-77 0 -148.5 19.5t-133.5 55.5t-113 86.5t-87 112.5t-56 133t-20 147t20 147.5t56 133t87 112.5t113 87t133 56t149 20q76 0 147 -20t132 -56t111.5 -87t86.5 -112.5 t55.5 -133t19.5 -147.5zM1052 528q0 55 -14 107t-40.5 97.5t-63 82.5t-81.5 64t-96 42t-105 15q-56 0 -107 -15t-96 -42t-82 -64t-63.5 -82.5t-41 -97t-14.5 -107.5q0 -55 14.5 -106.5t41 -96.5t63.5 -82.5t82 -64.5t96 -42t107 -15q54 0 105 15t96 42t81.5 64.5t63 82.5 t40.5 96.5t14 106.5zM733 244l-119 202h-22v-202h-131v575h201q40 0 74.5 -13.5t60 -38.5t40.5 -59.5t15 -76.5q0 -27 -6.5 -52t-18.5 -46t-28.5 -38.5t-36.5 -29.5q18 -31 37 -63.5t39 -63.5l55 -94h-160zM721 631q0 12 -4.5 23.5t-13.5 19.5t-21 13t-26 5h-64v-120h64 q14 0 26 4.5t21 12.5t13.5 19t4.5 23z" />
<glyph unicode="&#xbb;" horiz-adv-x="944" d="M80 37v237l150 144l-150 143v237l385 -380zM512 37v237l146 144l-146 143v237l383 -380z" />
<glyph unicode="&#xbc;" horiz-adv-x="1241" d="M444 0h-160l533 1026h156zM205 385v461l-117 -92v158l146 114h114v-641h-143zM1128 88v-88h-141v88h-268v94l219 416h154l-201 -381h96v158h141v-158h74v-129h-74z" />
<glyph unicode="&#xbd;" horiz-adv-x="1241" d="M756 0v104l258 296q8 10 14 24t6 30q0 32 -18 49t-52 17q-12 0 -24 -5t-21.5 -17t-15.5 -32t-6 -48h-141q2 49 17 91t42.5 72.5t65 48t83.5 17.5q48 0 88 -14t68 -39.5t44 -60.5t16 -79q0 -20 -4 -37t-12 -33t-20 -33t-28 -37l-164 -187h228v-127h-424zM406 0h-160 l532 1026h156zM205 385v461l-117 -92v158l146 114h114v-641h-143z" />
<glyph unicode="&#xbe;" horiz-adv-x="1241" d="M1128 88v-88h-141v88h-268v94l219 416h154l-201 -381h96v158h141v-158h74v-129h-74zM500 0h-158l530 1022h158zM512 578q0 -50 -17 -88t-47 -62.5t-70 -36.5t-87 -12q-46 0 -86.5 12.5t-71 40t-48.5 70.5q-17 42 -19 102h139q3 -28 11 -47t19 -31t25.5 -17t30.5 -5 q34 0 54.5 18t20.5 56q0 16 -5 29.5t-15 24t-25 17.5t-37 7h-18v110h18q20 0 33.5 5t22 14t12.5 21t4 26q0 17 -5.5 29.5t-15 20.5t-21.5 12.5t-25 4.5q-34 0 -52.5 -24.5t-23.5 -69.5h-145q6 53 25 94.5t48 70t66.5 43.5t81.5 15q46 0 85.5 -14t67.5 -39t44 -61t16 -80 q0 -36 -15 -65t-37 -54q13 -12 24.5 -27.5t19.5 -33t13 -37t5 -39.5z" />
<glyph unicode="&#xd7;" horiz-adv-x="868" d="M670 60l-238 239l-236 -239l-128 130l237 238l-235 236l126 128l236 -235l238 235l128 -128l-237 -236l237 -238z" />
<glyph unicode="&#xf7;" horiz-adv-x="829" d="M60 330v186h708v-186h-708zM303 721q0 24 8.5 44.5t23.5 35.5t35 24t44 9q23 0 43.5 -9t35.5 -24t24 -35.5t9 -44.5q0 -23 -9 -43t-24 -35t-36 -24t-43 -9q-23 0 -43.5 9t-35.5 24t-23.5 35t-8.5 43zM303 131q0 23 8.5 43t23.5 35t35 24t44 9q23 0 43.5 -9t35.5 -24 t24 -35t9 -43t-9 -43.5t-24 -36t-36 -24.5t-43 -9q-23 0 -43.5 9t-35.5 24.5t-23.5 36t-8.5 43.5z" />
<glyph unicode="&#xe01;" horiz-adv-x="942" d="M334 490v-490h-205v456l-92 124q28 64 70 112t95.5 80t118.5 48t140 16q96 0 167.5 -24t118.5 -68t70 -107t23 -143v-494h-205v482q0 88 -44 132t-132 42q-21 0 -47 -2.5t-52 -10t-51 -20.5t-43 -35z" />
<glyph unicode="&#xe02;" horiz-adv-x="801" d="M293 278q0 -49 24.5 -77.5t78.5 -28.5q26 0 44 7.5t29.5 21t17 33.5t5.5 44v550h206v-554q0 -63 -22 -115t-62 -89.5t-96 -58.5q-54 -21 -122 -21q-69 0 -125.5 21t-96.5 58.5t-62 90t-24 114.5v90q0 22 3 39.5t9 32t15.5 26.5t21.5 26l109 120q4 5 9 11t9.5 11t7 9.5 t2.5 7.5q0 16 -8 22.5t-20 6.5q-7 0 -18.5 -5t-26 -14t-30 -20t-29.5 -25l-144 96q66 65 126 96.5t116 31.5q49 0 88.5 -14t68.5 -40t44 -62t15 -81q0 -42 -19 -79.5t-52 -75.5l-84 -99q-4 -6 -6 -15.5t-2 -21.5v-70z" />
<glyph unicode="&#xe03;" horiz-adv-x="821" d="M291 278q0 -48 28.5 -76t84.5 -28q51 0 78.5 28t27.5 76v550h209v-554q0 -63 -24 -115t-66.5 -89.5t-100.5 -58.5q-56 -21 -124 -21t-126 21t-100 58.5t-66 90t-26 114.5v78q0 38 13 72t38 60l160 153l7 7t7 8.5l6 9t3 8.5q0 5 -4 11.5t-13 6.5q-8 0 -15 -4 q-8 -4 -18 -14l-42 -39q-22 -19 -44 -18t-44 15l-162 112l114 110l92 -62q29 20 62.5 33t67.5 13q40 0 75 -13t60 -36t39 -55q14 -30 14 -68q0 -20 -6 -42t-17 -43.5t-27 -43t-36 -41.5l-119 -113q-2 -2 -3.5 -8t-2 -12.5t-0.5 -11.5v-7v-62z" />
<glyph unicode="&#xe04;" horiz-adv-x="942" d="M305 0h-203v512q0 56 14 101.5t39 81.5t59 62.5t75 43.5t87 26t95 9q48 0 94.5 -9t87.5 -26t75 -43.5t59 -62.5t39 -81.5t14 -101.5v-512h-203v500q0 40 -11.5 68.5t-33 47t-52 27.5t-69.5 9q-38 0 -68.5 -8.5t-52.5 -26t-33.5 -44.5t-11.5 -65v-49q10 3 22.5 6.5 t20.5 3.5h131v-168h-117q-17 0 -27.5 -3.5t-17.5 -10.5t-9.5 -18t-2.5 -25v-244z" />
<glyph unicode="&#xe05;" horiz-adv-x="975" d="M312 442q9 3 21.5 4.5t20.5 1.5h144v-168h-132q-17 0 -27.5 -3.5t-16.5 -11t-8 -18.5t-2 -26v-221h-208v532q0 58 17 106.5t48.5 86.5t76.5 66q44 29 98 47l144 -113l138 117q54 -14 99 -42t77 -67t50 -89q18 -52 20 -112v-532h-204v518q0 30 -6 56t-19 46l-82 -59 q-20 -16 -39 -23.5t-36.5 -7.5t-34.5 7.5t-35 21.5l-80 61q-14 -18 -19 -44.5t-5 -57.5v-76z" />
<glyph unicode="&#xe06;" horiz-adv-x="911" d="M309 637l7 7t7.5 9t6 9t2.5 8q0 5 -4 11.5t-12 6.5t-16 -4t-20 -14l-42 -39q-22 -19 -44 -18q-20 1 -42 15l-162 112l114 110l92 -62q30 20 63 33t67 13q40 0 75 -13t60 -36t39 -55q14 -30 14 -68q0 -20 -6 -42t-17 -43.5t-27 -43t-36 -41.5l-119 -113q-2 -2 -3.5 -8 t-2 -12.5t-0.5 -11.5v-7v-8q0 -37 10.5 -66t30.5 -49t47 -30.5t61 -10.5q74 0 112 39t38 117v496h207v-514q0 -83 -26 -144t-69.5 -100.5t-100.5 -58.5t-119 -19q-28 0 -57 8t-54.5 20t-46 27t-31.5 31v-78h-207v352q0 38 13 72t39 60z" />
<glyph unicode="&#xe07;" horiz-adv-x="700" d="M174 272q23 -52 53.5 -76t65.5 -24q26 0 44.5 7.5t30.5 21t18 33.5t6 44v371h-111v179h317v-554q0 -68 -20 -121t-59 -89t-96 -55t-130 -19q-54 0 -99.5 13.5t-81.5 39t-64.5 61.5t-49.5 82z" />
<glyph unicode="&#xe08;" horiz-adv-x="784" d="M-20 635q54 99 140 150q88 51 202 51q79 0 145 -20.5t113.5 -61t74.5 -101.5t27 -141v-512h-207v244q0 29 -11.5 43t-41.5 14h-131v168h143q10 0 20 -2.5t21 -10.5v50q0 72 -39.5 109t-113.5 37q-24 0 -47 -6.5t-43.5 -20t-37.5 -33.5q-18 -22 -32 -50z" />
<glyph unicode="&#xe09;" horiz-adv-x="911" d="M94 641q26 48 62.5 84.5t81 61t95.5 37t107 12.5q79 0 146.5 -20t117 -60.5t77.5 -101t28 -140.5v-514h-207v76q-16 -18 -33.5 -33t-39 -26.5t-47.5 -18t-56 -6.5q-70 0 -130.5 22t-105 63.5t-70.5 101t-28 135.5v157h207v-141q0 -76 36.5 -116t108.5 -40q34 0 63.5 11 t50 32t32.5 49q12 30 12 64v170q0 78 -42 116t-120 38q-23 0 -45.5 -6.5t-44.5 -19t-40 -31.5q-20 -19 -34 -44z" />
<glyph unicode="&#xe0a;" horiz-adv-x="848" d="M274 610q10 10 16.5 19t6.5 23q0 10 -7 16q-8 6 -18 4q-7 -1 -19 -7.5t-26.5 -16.5t-28.5 -21t-26 -21l-152 102q66 65 126 96.5t116 31.5q38 0 71 -9t59 -25t45 -38q19 -24 29 -52l3.5 3.5l10.5 10.5t24 23t45.5 43t73.5 69t108 101l145 -132l-178 -164q8 -10 16 -23.5 t14 -28t10 -31.5t4 -34v-271q0 -63 -24 -115t-66 -89.5t-100 -58.5t-126 -21q-69 0 -127 24t-100 64.5t-65.5 95t-23.5 117.5v69q0 22 3 40t9 33t16 28t22 27zM534 540q0 13 -5 23.5t-13.5 18.5t-19 14t-20.5 12q-6 -33 -24 -63q-18 -29 -44 -61l-84 -99q-2 -3 -4 -8t-3 -15 t-1 -25v-38q0 -24 7 -46.5t21 -38.5t34.5 -26t47.5 -10q54 0 81 27t27 77v258z" />
<glyph unicode="&#xe0b;" horiz-adv-x="893" d="M330 834q34 0 63 -9t52 -25t40 -38t25 -50l3.5 3.5t10 9.5t23 22.5t44 42.5t71.5 68q44 40 106 100l144 -122l-172 -166q20 -22 32 -50t12 -71v-271q0 -64 -25 -116t-68 -89.5t-102 -58t-126 -20.5q-70 0 -130 24t-104 64.5t-69 95t-25 117.5v59q0 26 4 46.5t11 37 t17 29.5q9 13 21 27l130 143q6 6 11 15.5t5 17.5q0 5 -4 10.5t-12 5.5t-15 -4t-19 -14l-40 -37q-22 -19 -44 -18t-44 15l-162 112l114 110l92 -62q30 20 63 33t67 13zM580 549q0 11 -8 20t-19.5 16t-23.5 13t-20 12q-10 -31 -29.5 -62.5t-45.5 -61.5l-84 -101q-2 -3 -4 -7 t-3 -13t-2 -25t-1 -41q0 -24 8.5 -46.5t24.5 -39.5t38.5 -27t51.5 -10q54 0 85.5 28t31.5 78v267z" />
<glyph unicode="&#xe0c;" horiz-adv-x="1415" d="M131 456l-92 124q28 64 70 112t95.5 80t118.5 48t140 16q96 0 167.5 -24t118.5 -68t70 -107t23 -143v-164q0 -34 11 -63t30.5 -50t45 -32t52.5 -11q29 0 52.5 10.5t40 30.5t25.5 48.5t9 66.5v498h205v-514q0 -80 -22.5 -140.5t-62 -101t-92 -60.5t-112.5 -20q-28 0 -56 8 t-52 20t-44 27q-18 15 -30 31v-78h-205v482q0 88 -44 132t-132 42q-21 0 -47 -2.5t-52 -10t-50 -20.5q-26 -13 -44 -35l68 -98v-269q0 -17 4 -27t20 -10h92v-184h-108q-58 0 -98 15t-66 44t-37.5 69t-11.5 91v237z" />
<glyph unicode="&#xe0d;" horiz-adv-x="1401" d="M815 0q0 -28 7.5 -44t19.5 -16h446v-170h-479q-32 0 -63.5 8.5t-57 33t-41.5 69.5t-16 119h184zM336 221q0 -17 4 -27t20 -10h92v-184h-108q-58 0 -98 15t-66 44t-37.5 69t-11.5 91v237l-92 124q28 64 70 112t95.5 80t118.5 48t140 16q96 0 167.5 -24t118.5 -68t70 -107 t23 -143v-117q0 -76 32 -117t88 -41q30 0 55 10.5t42 30.5t27 50t10 67v451h202v-468q0 -66 -19 -124.5t-60 -103t-104 -70t-149 -25.5q-82 0 -143 21.5t-102.5 62.5t-62.5 101t-21 138v122q0 88 -44 132t-132 42q-21 0 -47 -2.5t-52 -10t-50 -20.5q-26 -13 -44 -35l68 -98 v-269z" />
<glyph unicode="&#xe0e;" horiz-adv-x="962" d="M860 -162q0 -39 -12 -68t-29 -49t-34 -31.5t-27 -15.5q-32 -14 -67 -14t-71 14l-155 66q-8 3 -13.5 3t-13.5 -3l-202 -98l-109 128l266 130q14 7 27.5 10.5t27.5 3.5t29 -4q15 -2 33 -10l127 -54q6 -2 12.5 1t6.5 11v624q0 88 -44 132t-133 42q-20 0 -46 -2.5t-52.5 -10 t-50.5 -20.5q-26 -13 -44 -35l68 -98v-271q0 -50 -13.5 -85.5t-36 -60t-52 -39.5t-60 -23t-60.5 -10.5t-54 -2.5l-39 180q38 -2 60.5 4t33.5 15t14 20t3 21v218l-92 124q28 64 70 112t95.5 80t118.5 48q66 16 140 16q96 0 167 -24t118 -68t70 -107t23 -143v-656z" />
<glyph unicode="&#xe0f;" horiz-adv-x="962" d="M860 -164q0 -32 -11 -64t-32.5 -58t-53 -42t-73.5 -16q-20 0 -39 6q-19 4 -37 14l-110 60q-10 6 -18 0l-97 -58q-19 -12 -37 -16t-35 -3t-32 7t-27 14l-228 154l168 90l124 -82q9 -8 18 0l92 56q32 17 64 15.5t63 -15.5l82 -46q4 -2 9.5 1t5.5 10v619q0 88 -44 132 t-133 42q-20 0 -46 -2.5t-52.5 -10t-50.5 -20.5q-26 -13 -44 -35l68 -98v-271q0 -50 -14 -85.5t-37 -59.5t-52 -39t-60 -22.5t-61 -10t-54 -2.5l-37 178q36 -2 58.5 3t33.5 14t15 20t4 23v218l-92 124q28 64 70 112t95.5 80t118.5 48q66 16 140 16q96 0 167 -24t118 -68 t70 -107t23 -143v-658z" />
<glyph unicode="&#xe10;" horiz-adv-x="788" d="M370 -86q48 0 82 -30l27 -24v76h201v-106q0 -34 -8 -59t-20 -44t-27 -31t-29 -20t-24.5 -11.5t-14.5 -4.5q-16 -4 -32.5 -5t-33.5 1t-33 8t-32 18l-54 42l-40 -38q-16 -14 -35 -20t-41 -6t-41.5 6t-36.5 16l-192 140l156 108l110 -82l39 36q17 15 37 22.5t42 7.5z M475 506q0 72 -39.5 109t-113.5 37q-24 0 -47 -6.5t-43.5 -20t-37.5 -33.5q-18 -22 -32 -50l-182 93q54 99 140 150q88 51 202 51q45 0 85.5 -7t78.5 -20l163 151l147 -130l-159 -142q22 -36 33.5 -80t11.5 -96v-512h-207v244q0 29 -11.5 43t-41.5 14h-131v168h143 q10 0 20 -2.5t21 -10.5v50z" />
<glyph unicode="&#xe11;" horiz-adv-x="936" d="M340 838q44 0 78 -15t59 -41l57 56q68 -1 124 -18.5t95 -51.5t60 -84t21 -114v-570h-203v563q0 31 -4.5 51t-22.5 31l-282 -277q-2 -2 -3.5 -7t-2 -11.5t-0.5 -12v-7.5v-330h-208v344q0 86 54 135l170 164q6 6 8.5 12.5t2 13.5t-4.5 11t-12 4q-16 0 -37 -18l-43 -38 q-12 -8 -22 -12t-20 -4t-20 4t-22 10l-162 112l114 120l93 -64q30 20 64.5 32t68.5 12z" />
<glyph unicode="&#xe12;" horiz-adv-x="1415" d="M654 506q0 36 -8 64t-26 48l-67 -55q-14 -14 -33.5 -20.5t-39.5 -6.5t-40 7t-34 22l-64 53q-16 -18 -24.5 -47t-8.5 -65v-260q0 -31 11.5 -45.5t41.5 -14.5h80v-186h-94q-62 0 -108 17t-76.5 49t-46 77t-15.5 101v278q0 63 20 114.5t56 91t87 67t114 43.5l100 -88l101 88 q62 -12 112 -38t86 -65.5t56 -92.5t22 -120v-192q0 -34 11.5 -63t30.5 -50t44.5 -32t53.5 -11q58 0 85 41t27 115v498h205v-514q0 -80 -20.5 -140.5t-57.5 -101t-90 -60.5t-117 -20q-28 0 -54 8t-48.5 20t-40 27t-29.5 31v-78h-202v506z" />
<glyph unicode="&#xe13;" horiz-adv-x="1409" d="M129 456l-90 124q28 64 70 112t95.5 80t118 48t138.5 16q96 0 167.5 -24t118.5 -68t70 -107t23 -143v-164q0 -74 30 -115t94 -41q27 0 52 11t44.5 32t30.5 49q11 30 11 64v498h204v-828h-204v78q-12 -16 -29.5 -31t-40 -27t-48.5 -20t-54 -8q-64 0 -118 20t-93 60.5 t-61.5 101t-22.5 140.5v168q0 174 -176 174q-20 0 -45.5 -2.5t-51.5 -10t-50 -20.5q-26 -13 -44 -35l66 -98v-269q0 -17 4 -27t20 -10h92v-184h-108q-58 0 -98 15t-66 44t-37.5 69t-11.5 91v237z" />
<glyph unicode="&#xe14;" horiz-adv-x="944" d="M102 512q0 78 29 138.5t79.5 101.5t117.5 62.5t143 21.5t142.5 -19t116.5 -58.5t80 -100.5q30 -62 32 -146v-512h-203v500q0 40 -11.5 68.5t-33.5 47t-53 27.5t-70 9t-70 -9t-52 -27.5t-32.5 -47t-11.5 -68.5v-258q0 -29 12.5 -44.5t44.5 -15.5h80v-182h-94 q-62 0 -108 17t-76.5 49t-46 77t-15.5 101v268z" />
<glyph unicode="&#xe15;" horiz-adv-x="973" d="M334 620q-14 -18 -19.5 -44.5t-5.5 -57.5v-276q0 -14 2.5 -25.5t8.5 -19t16 -11.5t26 -4h80v-182h-92q-62 0 -108.5 17t-77 49t-46.5 77t-16 101v288q0 58 17 106.5t48.5 86.5t76.5 66q44 29 98 47l144 -113l138 117q54 -14 99 -42t77 -67t50 -89q18 -52 20 -112v-532 h-204v518q0 30 -6 56t-19 46l-82 -59q-20 -16 -39 -23.5t-36.5 -7.5t-34.5 7.5t-35 21.5z" />
<glyph unicode="&#xe16;" horiz-adv-x="940" d="M840 0h-205v482q0 88 -44 132t-132 42q-21 0 -47 -2.5t-52 -10t-51 -20.5t-43 -35l68 -98v-269q0 -17 6 -27q4 -10 20 -10h92l-2 -184h-108q-58 0 -98 15t-66 44t-37.5 69t-11.5 91v237l-92 124q28 64 70 112t95.5 80t118.5 48t140 16q96 0 167.5 -24t118.5 -68t70 -107 t23 -143v-494z" />
<glyph unicode="&#xe17;" horiz-adv-x="895" d="M586 0v500q0 43 -12 72t-30.5 46.5t-42.5 25.5q-25 8 -49 8t-49.5 -10t-46 -30.5t-34 -51t-13.5 -70.5v-490h-207v828h201v-86q44 46 93.5 71t113.5 25q65 0 117.5 -24t89 -65t56 -98t19.5 -123v-528h-206z" />
<glyph unicode="&#xe18;" horiz-adv-x="850" d="M96 377h203v-158q0 -10 9.5 -18.5t24.5 -14.5t34 -9t39 -3q42 0 73 8t53 21.5t33 33t11 41.5q0 18 -9 32t-24.5 24.5t-35 17.5t-39.5 12.5t-40 9.5t-37 7q-78 16 -137.5 36t-100.5 47.5t-62 64.5t-21 87q0 54 25 95.5t70 69t106 41.5t135 14q92 0 187 -31t185 -93 l-135 -132q-24 18 -55 32t-65.5 24t-70 16t-67.5 6q-24 0 -43.5 -2.5t-32.5 -7.5t-21 -13.5t-8 -20.5q0 -9 10 -17.5t34 -18t67 -20t109 -24.5q56 -10 107 -29t89 -49t61 -74t23 -104q0 -62 -26 -114t-74 -91t-117 -61t-155 -22q-36 0 -73 6t-71 18t-65 31t-53.5 44.5 t-36 58t-13.5 71.5v158z" />
<glyph unicode="&#xe19;" horiz-adv-x="893" d="M309 828v-500q0 -43 11.5 -72.5t29.5 -47t42 -25t48 -7.5t50 10t46.5 30t34 51t13.5 71v490h206v-828h-200v86q-44 -46 -94 -71t-113 -25q-66 0 -117.5 23.5t-88 65t-56 98t-19.5 122.5v529h207z" />
<glyph unicode="&#xe1a;" horiz-adv-x="901" d="M450 -8q-78 0 -142 21t-109.5 62t-71 101t-25.5 138v514h207v-500q0 -74 34.5 -114t106.5 -40t107 40t35 114v500h206v-514q0 -78 -25 -138t-71 -101t-110.5 -62t-141.5 -21z" />
<glyph unicode="&#xe1b;" horiz-adv-x="901" d="M450 -8q-78 0 -142 21t-109.5 62t-71 101t-25.5 138v514h207v-500q0 -74 34.5 -114t106.5 -40t107 40t35 114v896h206v-910q0 -78 -25 -138t-71 -101t-110.5 -62t-141.5 -21z" />
<glyph unicode="&#xe1c;" horiz-adv-x="973" d="M414 268q18 14 35 21t34.5 7t36 -7t39.5 -23l82 -59q12 20 18.5 46.5t6.5 55.5v519h204v-533q-2 -61 -20 -111t-50 -89.5t-77 -67t-99 -41.5l-138 116l-144 -112q-54 18 -98.5 46t-76 66t-48.5 86t-17 107v289q0 56 16 100.5t46.5 76t77 49.5t108.5 18h92v-183h-80 q-16 0 -26 -3.5t-16 -11.5t-8.5 -19t-2.5 -25v-277q0 -30 5.5 -56.5t19.5 -45.5z" />
<glyph unicode="&#xe1d;" horiz-adv-x="973" d="M414 268q18 14 35 21t34.5 7t36 -7t39.5 -23l82 -59q12 20 18.5 46.5t6.5 55.5v915h204v-929q-2 -61 -20 -111t-50 -89.5t-77 -67t-99 -41.5l-138 116l-144 -112q-54 18 -98.5 46t-76 66t-48.5 86t-17 107v289q0 56 16 100.5t46.5 76t77 49.5t108.5 18h92v-183h-80 q-16 0 -26 -3.5t-16 -11.5t-8.5 -19t-2.5 -25v-277q0 -30 5.5 -56.5t19.5 -45.5z" />
<glyph unicode="&#xe1e;" horiz-adv-x="1126" d="M635 828l161 -476l68 476h209l-143 -828h-174l-193 494l-193 -494h-176l-141 828h209l68 -478l162 478h143z" />
<glyph unicode="&#xe1f;" horiz-adv-x="1126" d="M635 828l161 -476l138 872h209l-213 -1224h-174l-193 494l-193 -494h-176l-141 828h209l68 -478l162 478h143z" />
<glyph unicode="&#xe20;" horiz-adv-x="962" d="M860 0h-204v482q0 88 -44 132t-133 42q-20 0 -46 -2.5t-52.5 -10t-50.5 -20.5q-26 -13 -44 -35l68 -98v-271q0 -50 -13.5 -85.5t-36 -60t-52 -39.5t-60 -23t-60.5 -10.5t-54 -2.5l-39 180q38 -2 60.5 4t33.5 15t14 20t3 21v218l-92 124q28 64 70 112t95.5 80t118.5 48 q66 16 140 16q96 0 167 -24t118 -68t70 -107t23 -143v-494z" />
<glyph unicode="&#xe21;" horiz-adv-x="893" d="M790 828v-529q0 -66 -19 -122.5t-55.5 -98t-88.5 -65t-117 -23.5q-64 0 -114 25t-93 71v-86h-201v828h207v-490q0 -40 13.5 -71t34 -51t46 -30t49.5 -10t48 7.5t42.5 25t30 46.5t11.5 73v500h206z" />
<glyph unicode="&#xe22;" horiz-adv-x="899" d="M434 360q-44 -3 -75 -8.5t-51 -16.5t-30 -28t-10 -43q0 -18 11 -34t32 -28.5t51 -20t68 -7.5q48 0 79 13t49 36t25 55t7 70v480h206v-480q0 -83 -18.5 -149.5t-61.5 -113.5t-113 -72t-173 -25q-80 0 -138 15t-98.5 40t-65.5 56t-39 62.5t-18.5 60t-4.5 46.5q0 48 15 89 t52 75q-30 30 -47.5 68t-19.5 82q0 51 15.5 95.5t46.5 77.5t77.5 53t108.5 20h120v-183h-106q-31 0 -44.5 -13.5t-15.5 -37.5q0 -19 8 -32.5t20.5 -22t29 -13t35.5 -7.5t37.5 -4t35.5 -1v-154z" />
<glyph unicode="&#xe23;" horiz-adv-x="758" d="M704 256q0 -52 -20.5 -100t-62.5 -85t-105 -59q-64 -22 -148 -22q-58 0 -105 8.5t-89 26.5t-79 45.5t-75 66.5l128 137q26 -27 49.5 -45.5t49 -30.5t54.5 -18t63 -6q38 0 63.5 7t41 18t22.5 26t7 31t-9 28.5t-23 22t-32 15.5q-16 6 -34 10l-64 14q-64 14 -114.5 33 t-85.5 46t-53.5 66t-18.5 93q0 52 19 98t57 80t95 54t131 20q43 0 82.5 -6.5t78.5 -20.5t77 -37.5t80 -56.5l-133 -123q-26 19 -48.5 31t-44.5 18.5t-44 9.5q-24 3 -48 3q-50 0 -75 -17t-25 -45q0 -16 11.5 -26.5t28 -17.5t34.5 -12q18 -4 32 -8l72 -18q53 -12 100.5 -31 t83 -48.5t56 -72t20.5 -102.5z" />
<glyph unicode="&#xe24;" horiz-adv-x="940" d="M840 -309h-205v791q0 88 -44 132t-132 42q-21 0 -47 -2.5t-52 -10t-51 -20.5t-43 -35l68 -98v-269q0 -17 6 -27q4 -10 20 -10h92l-2 -184h-108q-58 0 -98 15t-66 44t-37.5 69t-11.5 91v237l-92 124q28 64 70 112t95.5 80t118.5 48t140 16q96 0 167.5 -24t118.5 -68 t70 -107t23 -143v-803z" />
<glyph unicode="&#xe25;" horiz-adv-x="841" d="M340 -8q-63 0 -115.5 17t-90.5 49t-59.5 80.5t-21.5 111.5q0 50 17.5 95.5t52.5 80t89 55.5t126 21h194v30q0 34 -8.5 58.5t-27 40t-47.5 23.5t-70 8q-27 0 -50 -4t-43 -12t-38 -20t-37 -28l-127 125q35 32 68.5 53.5t68.5 34.5t75.5 19t90.5 6q174 0 263.5 -73 t89.5 -218v-545h-204v336h-196q-24 0 -43 -7t-32 -19t-19 -27t-6 -31q0 -18 5 -35t16.5 -30t31 -20t47.5 -7v-168z" />
<glyph unicode="&#xe26;" horiz-adv-x="962" d="M860 -307h-204v789q0 88 -44 132t-133 42q-20 0 -46 -2.5t-52.5 -10t-50.5 -20.5q-26 -13 -44 -35l68 -98v-271q0 -50 -13.5 -85.5t-36 -60t-52 -39.5t-60 -23t-60.5 -10.5t-54 -2.5l-39 180q38 -2 60.5 4t33.5 15t14 20t3 21v218l-92 124q28 64 70 112t95.5 80t118.5 48 q66 16 140 16q96 0 167 -24t118 -68t70 -107t23 -143v-801z" />
<glyph unicode="&#xe27;" horiz-adv-x="749" d="M4 641q28 46 64.5 82.5t78 61.5t87.5 38t94 13q82 0 145 -25t106 -69.5t66 -107t23 -138.5v-162q0 -68 -20 -130t-61.5 -109t-106 -75t-152.5 -28q-36 0 -73 8t-73 25t-71 41t-66 57l143 123q16 -16 34 -28t36.5 -21t36 -14t33.5 -5q36 0 61.5 12t42 34t25 50.5t8.5 61.5 v160q0 30 -7.5 58t-24.5 49t-43 33.5t-62 12.5q-18 0 -38 -6.5t-38 -18.5t-36 -30q-18 -19 -32 -43z" />
<glyph unicode="&#xe28;" horiz-adv-x="944" d="M305 0h-203v512q0 56 14 101.5t39 81.5t59 62.5t75 43.5t87 26t95 9q48 0 94.5 -9t88.5 -26l153 149l135 -129l-146 -141q20 -34 32 -76t12 -92v-512h-203v500q0 40 -11.5 68.5t-33 47t-52 27.5t-69.5 9q-38 0 -68.5 -8.5t-52.5 -26t-33.5 -44.5t-11.5 -65v-45 q10 3 22.5 4.5t20.5 1.5h134v-168h-120q-17 0 -27.5 -3.5t-17.5 -10.5t-9.5 -18t-2.5 -25v-244z" />
<glyph unicode="&#xe29;" horiz-adv-x="950" d="M819 358v-44q0 -74 -27.5 -134t-75.5 -102t-113 -65t-142 -23q-76 0 -140.5 21.5t-112 63t-76 101.5t-30.5 138v514h207v-500q0 -74 39.5 -114t112.5 -40q72 0 111.5 40t39.5 114v30h-74q-21 0 -42 4t-40.5 14t-36.5 26t-29.5 42t-20 62t-7.5 84h183q0 -32 5.5 -45 t12.5 -13h49v296h207v-296h99v-174h-99z" />
<glyph unicode="&#xe2a;" horiz-adv-x="841" d="M536 336h-196q-24 0 -43 -7t-32 -19t-19 -27t-6 -31q0 -18 5 -35t16.5 -30t31 -20t47.5 -7v-168q-63 0 -115.5 17t-90.5 49t-59.5 80.5t-21.5 111.5q0 50 17.5 95.5t52.5 80t89 55.5t126 21h194v30q0 34 -8.5 58.5t-27 40t-47.5 23.5t-70 8q-27 0 -50 -4t-43 -12t-38 -20 t-37 -28l-127 125q35 32 68.5 53.5t68.5 34.5t75.5 19t90.5 6q48 0 90.5 -6t77.5 -19l141 139l136 -129l-130 -125q38 -62 38 -151v-545h-204v336z" />
<glyph unicode="&#xe2b;" horiz-adv-x="917" d="M710 612q28 -22 48 -49t33 -59t19.5 -67t6.5 -71v-366h-205v352q0 51 -14 85.5t-47 50.5l-244 -185v-303h-205v828h205v-292l416 320l119 -139z" />
<glyph unicode="&#xe2c;" horiz-adv-x="1136" d="M836 622q-2 6 -6.5 12t-13.5 10t-24.5 7t-39.5 3v174h100q23 0 37 12q15 12 21 28l32 107h211l-51 -162q-28 -79 -80 -119q12 -24 13.5 -48.5t-3.5 -47.5l-104 -598h-172l-193 494l-193 -494h-176l-141 828h209l68 -478l162 478h141l163 -476z" />
<glyph unicode="&#xe2d;" horiz-adv-x="868" d="M70 680q40 39 79.5 68.5t81 49.5t86.5 30t99 10q190 0 289.5 -108t99.5 -316q0 -99 -25.5 -177.5t-73 -133.5t-116 -84t-154.5 -29q-64 0 -118 17t-97.5 48.5t-76 76t-52.5 100.5q-8 20 -12 53.5t-6 72.5t-2 79.5v76.5h346v-174h-146q0 -32 12.5 -61t34.5 -52t51.5 -37 t65.5 -14q50 0 82 19t50 52t25 76t7 91q0 28 -3 56t-11 54.5t-22 50t-34.5 40.5t-50 27t-67.5 10q-24 0 -47 -5t-45.5 -15t-46.5 -26.5t-50 -40.5z" />
<glyph unicode="&#xe2e;" horiz-adv-x="868" d="M70 680q40 39 79.5 68.5t81 49.5t86.5 30t99 10q46 0 87 -6t77 -19l139 137l137 -129l-127 -123q37 -53 57 -123q19 -69 19 -161q0 -99 -25.5 -177.5t-73 -133.5t-116 -84t-154.5 -29q-64 0 -118 17t-97.5 48.5t-76 76t-52.5 100.5q-8 20 -12 53.5t-6 72.5t-2 79.5v76.5 h346v-174h-146q0 -32 12.5 -61t34.5 -52t51.5 -37t65.5 -14q50 0 82 19t50 52t25 76t7 91q0 28 -3 56t-11 54.5t-22 50t-34.5 40.5t-50 27t-67.5 10q-24 0 -47 -5t-45.5 -15t-46.5 -26.5t-50 -40.5z" />
<glyph unicode="&#xe2f;" horiz-adv-x="882" d="M572 340q-36 -20 -76 -27.5t-76 -7.5q-80 0 -146 15.5t-113 49.5t-72 86t-25 124q0 54 15.5 99.5t46.5 78.5t77.5 51.5t108.5 18.5h88v-179h-74q-17 0 -28.5 -4.5t-17.5 -13.5t-9 -22t-3 -29q0 -27 10 -45t30 -28.5t48 -14.5t64 -4q74 0 113 37t39 108v195h208v-828h-208 v340z" />
<glyph unicode="&#xe30;" horiz-adv-x="563" d="M238 744q2 -32 7 -52t13 -20h228v-180h-250q-30 0 -61.5 12t-57.5 41t-43 78q-16 49 -18 121h182zM238 344q2 -32 7 -52t13 -20h228v-180h-250q-30 0 -61.5 12t-57.5 41.5t-43 78.5q-16 48 -18 120h182z" />
<glyph unicode="&#xe31;" d="M-379 1196q0 -14 1.5 -28t5 -24.5t8 -17t12.5 -6.5h399v-154h-430q-20 0 -41.5 3t-42 11.5t-38 24t-31.5 41t-21.5 62t-7.5 88.5h186z" />
<glyph unicode="&#xe32;" horiz-adv-x="674" d="M-6 682q52 74 124 114t158 40q146 0 221 -74.5t75 -212.5v-549h-206v545q0 24 -4 44t-15 33.5t-28 21.5t-43 8q-32 0 -62 -16t-58 -52z" />
<glyph unicode="&#xe33;" horiz-adv-x="674" d="M-402 1122q0 39 15 74t41 61t61 41t74 15q38 0 72.5 -15t60.5 -41t41 -60.5t15 -74.5q0 -38 -15 -72t-41 -60t-60 -41t-73 -15t-74 15t-61 41t-41 60t-15 72zM-266 1122q0 -24 15 -38.5t40 -14.5t40 15q15 14 15 38t-15 40t-40 16q-24 0 -39.5 -16t-15.5 -40zM-6 682 q52 74 124 114t158 40q146 0 221 -74.5t75 -212.5v-549h-206v545q0 24 -4 44t-15 33.5t-28 21.5t-43 8q-32 0 -62 -16t-58 -52z" />
<glyph unicode="&#xe34;" d="M-805 1120h703v-154h-703v154z" />
<glyph unicode="&#xe35;" d="M-805 1120h508v115h195v-269h-703v154z" />
<glyph unicode="&#xe36;" d="M-805 966v154h367q0 39 14 72.5t38 58t56 38t68 13.5t69 -12.5t57 -35t38 -53.5t14 -69q0 -36 -14 -66t-38 -52t-57 -35t-69 -13h-543zM-309 1128q0 -10 4 -18t10.5 -15t15 -10t17.5 -3q22 0 36.5 13t14.5 33q0 22 -14.5 36t-36.5 14q-9 0 -17.5 -4t-15 -10.5t-10.5 -16 t-4 -19.5z" />
<glyph unicode="&#xe37;" d="M-805 1120h307v115h166v-115h64v115h166v-269h-703v154z" />
<glyph unicode="&#xe38;" d="M-293 -307q0 12 -4 17.5t-10 5.5h-72v165h86q53 0 89.5 -7.5t59 -28.5t32.5 -60t10 -103v-145h-191v156z" />
<glyph unicode="&#xe39;" d="M-520 -278q0 2 -2 2q-2 2 -4 2h-60v155h96q42 0 70 -8t44.5 -25.5t23 -46.5t6.5 -69v-10q0 -10 8 -18q8 -9 24 -9t24 8.5t8 18.5v159h180v-159q0 -42 -16.5 -77t-45 -60t-66.5 -38.5t-82 -13.5q-46 0 -84 13.5t-66 38.5t-43 60t-15 77z" />
<glyph unicode="&#xe3a;" d="M-332 -232q0 24 9.5 46t25.5 38t37.5 26t46.5 10q24 0 46 -10t38 -26t25 -38q10 -22 10 -46t-9.5 -45.5t-25.5 -38t-37.5 -25.5t-46.5 -9q-24 0 -46 9t-38 25.5t-25.5 38t-9.5 45.5z" />
<glyph unicode="&#xe3e;" />
<glyph unicode="&#xe3f;" horiz-adv-x="997" d="M910 301q0 -73 -24 -129t-67 -94t-101.5 -58t-127.5 -20v-156h-156v156h-309v1028h309v123h156v-123q72 -3 128 -24.5t96 -59.5t60.5 -90t20.5 -116q0 -40 -10.5 -73.5t-27.5 -60t-37 -45.5t-40 -31q22 -12 45 -31t42 -46t31 -64.5t12 -85.5zM330 186h104v246h-104v-246z M330 614h104v230h-104v-230zM700 307q0 23 -7 44t-21.5 37.5t-35 27.5t-46.5 14v-242q26 4 46.5 15t35 27.5t21.5 36.5t7 40zM690 729q0 21 -7.5 39t-21 32.5t-31.5 24.5q-18 11 -40 15v-222q22 4 40 14t31.5 25t21 33.5t7.5 38.5z" />
<glyph unicode="&#xe40;" horiz-adv-x="424" d="M102 828h207v-607q0 -17 3.5 -27t19.5 -10h92v-184h-108q-58 0 -98.5 15t-66 44t-37.5 69t-12 91v609z" />
<glyph unicode="&#xe41;" horiz-adv-x="817" d="M102 828h207v-607q0 -17 3.5 -27t19.5 -10h92v-184h-108q-58 0 -98.5 15t-66 44t-37.5 69t-12 91v609zM496 828h206v-607q0 -17 4 -27t19 -10h92v-184h-109q-58 0 -98 15t-65.5 44t-37 69t-11.5 91v609z" />
<glyph unicode="&#xe42;" horiz-adv-x="465" d="M114 952q0 22 -9 43t-27.5 37t-47.5 26.5t-69 10.5l35 155h526v-176h-223q12 -28 16.5 -53t4.5 -45v-720v-17.5t2 -14t7 -9t13 -3.5h90v-186h-106q-59 0 -99.5 17t-65.5 47t-36 72t-11 92v724z" />
<glyph unicode="&#xe43;" horiz-adv-x="467" d="M114 742q0 18 2 36t9 37t19 39t34 43q54 57 81 87t27 42q0 9 -4 15t-10.5 9.5t-15 5t-18.5 1.5q-8 0 -20 -3.5t-24 -12.5t-24 -25t-20 -41l-183 37q12 56 40 98t64.5 71t78.5 43.5t82 14.5q63 0 110.5 -14.5t79.5 -42.5t48 -67.5t16 -88.5q0 -28 -10 -53t-26 -48.5 t-35.5 -45t-39.5 -41.5q-12 -13 -21.5 -24t-16.5 -21.5t-11 -22.5t-4 -26v-516v-16t2 -13.5t7 -9t13 -3.5h90v-186h-106q-59 0 -100 16.5t-66 46t-36.5 71.5t-11.5 92v516z" />
<glyph unicode="&#xe44;" horiz-adv-x="491" d="M142 950q0 20 4 45t16 53h-199v176h502l35 -155q-40 0 -69 -10.5t-48 -26.5t-28 -37t-9 -43v-724v-17t2.5 -13.5t7 -8.5t12.5 -3h91v-186h-107q-60 0 -100 17t-64.5 48t-35 73t-10.5 92v720z" />
<glyph unicode="&#xe45;" horiz-adv-x="674" d="M-6 682q52 74 124 114t158 40q146 0 221 -74.5t75 -212.5v-858h-206v854q0 24 -4 44t-15 33.5t-28 21.5t-43 8q-32 0 -62 -16t-58 -52z" />
<glyph unicode="&#xe46;" horiz-adv-x="911" d="M301 633q-2 -6 -2 -21.5v-27.5q0 -9 0.5 -19t2.5 -18t6 -13.5t12 -5.5h38v-174h-53q-46 0 -84.5 11t-66 38t-43 71t-15.5 110q0 52 12 92t38 71t68 53q44 22 106 36l136 -109l56 45l82 64q44 -12 83 -30t68.5 -44.5t46.5 -62t17 -83.5v-925h-207v931l-84 -67 q-13 -9 -28.5 -13.5t-32 -4t-31.5 4.5q-14 4 -26 13z" />
<glyph unicode="&#xe47;" d="M-563 1276q-14 0 -24 -6t-16.5 -15t-9.5 -21t-3 -24q0 -16 4 -30t12 -27l94 59q22 14 48 15q24 1 48 -15l94 -59q2 6 3.5 14.5t2 17.5t-0.5 18t-5 17h164q10 -50 0 -90t-35 -70t-61 -50t-80 -31l-114 78q-16 10 -29 0l-113 -80q-42 14 -78 35.5t-63.5 50.5t-43 67 t-15.5 84q0 37 15 75.5t42.5 70t67 52t89.5 22.5h474v-158h-467z" />
<glyph unicode="&#xe48;" d="M-295 1536h193v-198h-193v198z" />
<glyph unicode="&#xe49;" d="M47 1495v-157h-543v128l66 12q8 2 13 10t5 15q0 10 -7 15t-18 7.5t-24 3.5t-23 1v146q56 0 100 -9t75.5 -28.5t48 -49t16.5 -69.5v-12.5t-2 -12.5h293z" />
<glyph unicode="&#xe4a;" d="M51 1483v-145h-307v159v10.5t-1 14.5t-2 15t-3 11l-35 -36q-10 -9 -23.5 -15.5t-27.5 -7t-28 4.5q-16 6 -28 18l-42 40q-8 -22 -7 -39t11 -30t27 -20t38 -7v-125h-47q-37 0 -68.5 13.5t-55 36t-37 52.5t-13.5 64t9 60.5t23 47.5t32 35t34 23q13 7 28.5 11t31.5 4t32 -6 q17 -8 33 -22l25 -24l26 24q17 17 34.5 23.5t34.5 5.5t34 -7.5t35 -16.5q16 -8 30 -22.5t26 -32.5t19 -40t7 -44v-33h155z" />
<glyph unicode="&#xe4b;" d="M-393 1440v149h111v107h168v-107h110v-149h-110v-102h-168v102h-111z" />
<glyph unicode="&#xe4c;" d="M-268 1247q0 49 7 85t19 62t28 42t35 25t38 12t39 3h178v-163h-168q-6 0 -8 -16.5t-2 -49.5h-166z" />
<glyph unicode="&#xe4d;" d="M-400 1122q0 39 15 74t41 61t61 41t74 15q38 0 72.5 -15t60.5 -41t41 -60.5t15 -74.5q0 -38 -15 -72t-41 -60t-60 -41t-73 -15t-74 15t-61 41t-41 60t-15 72zM-264 1122q0 -24 15 -38.5t40 -14.5t40 15q15 14 15 38t-15 40t-40 16q-24 0 -39.5 -16t-15.5 -40z" />
<glyph unicode="&#xe4e;" d="M-100 1071q-4 0 -5 -22.5t-1 -59.5h-180q0 54 7.5 92.5t21.5 64t33.5 40t43.5 20.5q9 30 27 46.5t39.5 24.5t45.5 9.5t44 1.5h88v-152h-92q-2 0 -4 -2t-2.5 -9t-0.5 -20v-34h-65z" />
<glyph unicode="&#xe4f;" horiz-adv-x="1089" d="M448 434q0 -20 8 -37.5t21 -30.5t30.5 -20.5t37.5 -7.5q19 0 36 7.5t30 20.5t20.5 30.5t7.5 37.5t-7.5 37t-20.5 30t-30 20t-36 7q-20 0 -37.5 -7t-30.5 -20t-21 -30t-8 -37zM322 434q0 46 18 86t48 70t71 48t86 18t85 -18t70.5 -48t48 -70t17.5 -86q0 -45 -17.5 -85.5 t-48 -71t-70.5 -48.5t-85 -18q-46 0 -86.5 18t-70.5 48.5t-48 71t-18 85.5zM223 434q0 -44 11.5 -85t32.5 -77t51 -65t65.5 -50t76.5 -33t85 -12t85.5 12t77 33t65 50t50.5 65t32 77t11 85t-11 85t-32 77t-50.5 65t-65 50t-76.5 33t-86 12q-44 0 -85 -12t-76.5 -33 t-65.5 -50t-51 -65t-32.5 -77t-11.5 -85zM80 434q0 65 16 124.5t46 111.5t72.5 94t94 72t111.5 46.5t125 16.5t125 -16.5t111 -46.5t93.5 -72t72.5 -94t46.5 -111.5t16.5 -124.5t-16.5 -124.5t-46.5 -111.5t-72.5 -94t-93.5 -72t-111 -46t-125 -16t-125 16t-111.5 46t-94 72 t-72.5 94t-46 111.5t-16 124.5z" />
<glyph unicode="&#xe50;" horiz-adv-x="954" d="M477 164q48 0 87.5 16t68 43t44 63t15.5 78q0 40 -15.5 76t-44 62t-67.5 41t-88 16q-48 -1 -87.5 -16t-68 -41t-43.5 -62q-16 -36 -16 -76q0 -42 15.5 -78t44 -63t68 -43t87.5 -16zM477 744q102 0 180 -30t131.5 -81t81 -120t27.5 -149t-27.5 -149t-81 -121t-132 -81 t-179.5 -29q-102 0 -179.5 29t-131.5 81t-81 121t-27 149q0 79 27 148.5t81 120.5t131.5 81t179.5 30z" />
<glyph unicode="&#xe51;" horiz-adv-x="954" d="M51 356q0 57 14.5 107.5t41.5 92.5t66 75t86 55.5t103 34.5t117 12q97 0 175 -29.5t133.5 -84t85.5 -131t30 -168.5q0 -82 -21 -153t-62.5 -131t-103.5 -110q-60 -50 -142 -92l-109 150q121 63 177 147.5t56 190.5q0 53 -17 95.5t-47 73t-70 47t-85 17.5 q-44 -1 -83.5 -15t-70.5 -40t-49 -62t-18 -82q0 -42 14 -71t40.5 -48t65.5 -29q40 -10 91 -10l4 -184q-114 0 -194.5 26t-131 72t-73.5 108t-23 136z" />
<glyph unicode="&#xe52;" horiz-adv-x="1079" d="M278 944v-610q0 -28 13 -51t34 -40.5t50 -30t61 -21t66 -13t66 -4.5q46 0 92 9.5t82 29t59 49.5t23 72v94q0 18 -3 37.5t-8 36.5t-12 30.5t-17 20.5l-69 -55q-18 -14 -34.5 -20.5t-35.5 -6.5q-20 0 -40 8q-19 8 -35 25l-42 43q-6 -7 -12.5 -18t-13 -25.5t-12.5 -31.5 q-4 -16 -8 -34l-181 58q14 58 39.5 102t60.5 77t77 55q44 23 92 36l79 -90l95 90q72 -18 125 -50t88 -74.5t52 -93t17 -106.5v-108q0 -58 -16 -106t-46 -86t-71.5 -66t-92.5 -46t-109.5 -27t-122.5 -9q-63 0 -124.5 8t-116.5 26t-101 45t-80 65t-53 86t-19 108v612h204z" />
<glyph unicode="&#xe53;" horiz-adv-x="1018" d="M574 436q-34 -26 -67 -24.5t-65 24.5l-114 90q-14 -14 -27.5 -31.5t-23 -38t-15.5 -44.5t-6 -48q0 -40 12 -75t37 -62t63 -43t88 -16v-180q-75 2 -134.5 18t-104.5 43.5t-76.5 64t-51 77.5t-29.5 85q-9 44 -9 88q0 66 22 126t60.5 110t90.5 90t112 66l170 -130l174 130 q60 -27 112 -66.5t91 -89.5t61 -109t22 -125q0 -60 -14 -116t-37.5 -106.5t-54 -94t-64.5 -79.5l-178 90q23 28 48.5 63t46.5 74t35 81t14 86q0 51 -18 92q-20 42 -50 70z" />
<glyph unicode="&#xe54;" horiz-adv-x="1065" d="M526 180q-26 28 -36 60q-10 34 -8 74q3 54 23.5 90t57.5 59t89.5 33t119.5 10h33v-180h-25q-22 0 -40 -2t-31 -8t-20 -16q-7 -12 -7 -30q0 -26 9 -42t26 -27t41 -15.5t55 -5.5h137v-180h-491q-98 0 -171.5 27.5t-123 77t-74 116.5t-24.5 147t24.5 148.5t74 118.5 t123.5 78.5t171 28.5h329l164 153l140 -133l-214 -201h-419q-44 -1 -79 -15t-59.5 -39.5t-37.5 -60.5q-13 -36 -13 -78q0 -40 13 -75t37.5 -60t59.5 -39t79 -14h67z" />
<glyph unicode="&#xe55;" horiz-adv-x="1065" d="M565 754q0 -23 15.5 -38.5t39.5 -15.5q25 0 40.5 15t15.5 39q0 25 -15 40t-41 15q-24 0 -39.5 -15t-15.5 -40zM430 754q0 39 15 73.5t41 60.5t61 41t73 15t72 -14.5t59 -39t41 -58.5t17 -72l143 135l140 -133l-214 -201h-419q-44 -1 -79 -15t-59.5 -39.5t-37.5 -60.5 q-13 -36 -13 -78q0 -40 13 -75t37.5 -60t59.5 -39t79 -14h67q-26 28 -36 60q-10 34 -8 74q3 54 23.5 90t57.5 59t89.5 33t119.5 10h33v-180h-25q-22 0 -40 -2t-31 -8t-20 -16q-7 -12 -7 -30q0 -26 9 -42t26 -27t41 -15.5t55 -5.5h137v-180h-491q-98 0 -171.5 27.5t-123 77 t-74 116.5t-24.5 147q0 77 23 143.5t68.5 115.5t114.5 79q68 32 158 36v12z" />
<glyph unicode="&#xe56;" horiz-adv-x="1034" d="M168 238q-4 35 4 64.5t24 54.5t37 46t44 37.5t44 28.5q21 13 37 21l94 -160q-13 -6 -26 -14t-23.5 -18t-17.5 -21.5t-6 -24.5q2 -23 17.5 -37.5t39.5 -22.5t55 -11t62 -3q54 0 96 14t70 39t42.5 60t14.5 75q0 42 -14 78t-41 63t-67.5 42.5t-94.5 15.5q-34 0 -70.5 -1.5 t-73.5 -8.5t-73 -20t-68 -35l-282 264l135 131l197 -183q22 10 49 16.5t58 11t63 6.5t65 2q108 0 188 -30t132.5 -82t78 -121t25.5 -149t-27 -149t-80.5 -119t-134.5 -78t-188 -28q-86 0 -154 17t-117 49t-78 77.5t-36 102.5z" />
<glyph unicode="&#xe57;" horiz-adv-x="1057" d="M989 356q0 -44 -9.5 -84t-25.5 -76t-36 -68t-42 -59t-44 -48t-42 -35l-164 92q24 24 52 54t51.5 65.5t39 75t15.5 81.5q0 28 -7.5 53t-21 47t-30.5 41t-35 33l-108 -84q-18 -14 -34.5 -21t-33.5 -7t-33.5 7t-34.5 21l-106 84q-16 -16 -31 -33t-27 -39t-19 -47t-7 -55 q0 -43 16 -76.5t43 -56.5t64 -35t80 -12v-182q-73 2 -131.5 17.5t-104 41t-78 60t-53.5 74t-31 83.5q-10 42 -10 86q0 50 11.5 95t32.5 84.5t49 73.5t61 63.5t70 53.5t75 44l164 -135q38 31 79 66t79 65q14 -6 29 -14t30 -18t29 -22q14 -11 26 -22v258h203v-590z" />
<glyph unicode="&#xe58;" horiz-adv-x="1030" d="M778 496q36 -14 66 -35t51 -49t33 -62t12 -72q0 -47 -15 -90.5t-45 -82t-76 -69t-108 -50.5l-166 130l-174 -130q-60 24 -112.5 63t-93 89.5t-63.5 110.5t-23 126q0 46 9.5 90.5t29.5 85.5t50.5 76t72.5 61t96 41q52 15 118 15h324l158 161l141 -131l-207 -211h-416 q-40 -1 -71 -15t-53 -38.5t-34 -59t-12 -75.5q0 -23 6.5 -46t17.5 -44.5t25.5 -40t30.5 -33.5l111 88q14 11 29.5 19t37.5 8q16 0 32.5 -7t33.5 -20l123 -99q35 38 31 72q-2 24 -17 42t-39 26z" />
<glyph unicode="&#xe59;" horiz-adv-x="1145" d="M534 -16q-112 0 -198 29t-146 81t-91 121t-31 149q0 79 27 148.5t79 120.5t127 81t172 30q38 0 73.5 -8t67 -22t59 -34t48.5 -45q13 22 30 40t40 31.5t53 21t68 7.5h210v-176h-192q-24 0 -38 -8.5t-20.5 -22.5t-8 -31t-1.5 -36l224 -395l-172 -90l-258 442 q-21 34 -41.5 60.5t-42 44.5t-46 27t-53.5 9q-44 0 -81 -15.5t-63.5 -41.5t-41.5 -62t-15 -76t19 -76t54 -63t83 -43t106 -16v-182z" />
<glyph unicode="&#xe5a;" horiz-adv-x="1204" d="M893 828h209v-828h-209v828zM572 340q-36 -20 -76 -27.5t-76 -7.5q-80 0 -146 15.5t-113 49.5t-72 86t-25 124q0 54 15.5 99.5t46.5 78.5t77.5 51.5t108.5 18.5h88v-179h-74q-17 0 -28.5 -4.5t-17.5 -13.5t-9 -22t-3 -29q0 -27 10 -45t30 -28.5t48 -14.5t64 -4 q74 0 113 37t39 108v195h208v-828h-208v340z" />
<glyph unicode="&#xe5b;" horiz-adv-x="1943" d="M1848 502v-176h-456l-26 38q-31 -52 -78.5 -123.5t-107.5 -156.5q-34 64 -76.5 129t-85.5 127q-26 -79 -69 -142t-101 -107t-128 -67.5t-150 -23.5q-117 0 -204.5 32t-146 89t-88 134t-29.5 167q0 66 15 121t40.5 98.5t60 76t74.5 54.5t82.5 32.5t84.5 10.5 q44 0 80.5 -11.5t67.5 -29t56 -38t45 -38.5l-128 -147q-44 38 -74 55q-32 18 -52 18q-30 0 -58 -13t-50 -38t-35.5 -63t-13.5 -88q0 -63 22.5 -107.5t60.5 -73t86 -41.5q50 -14 102 -14q38 0 74 13t67.5 34.5t58 52t45 65.5t29 74t10.5 79q0 10 -1 22t-3.5 27t-7.5 33 q-4 18 -12 40l130 95q30 -32 62 -68.5t63 -75.5t59 -77t50 -72q13 26 26.5 52.5t25.5 51t21 44.5t15 32l98 33l102 -139h368z" />
<glyph unicode="&#x2000;" horiz-adv-x="848" />
<glyph unicode="&#x2001;" horiz-adv-x="1696" />
<glyph unicode="&#x2002;" horiz-adv-x="848" />
<glyph unicode="&#x2003;" horiz-adv-x="1696" />
<glyph unicode="&#x2004;" horiz-adv-x="565" />
<glyph unicode="&#x2005;" horiz-adv-x="424" />
<glyph unicode="&#x2006;" horiz-adv-x="282" />
<glyph unicode="&#x2007;" horiz-adv-x="282" />
<glyph unicode="&#x2008;" horiz-adv-x="212" />
<glyph unicode="&#x2009;" horiz-adv-x="339" />
<glyph unicode="&#x200a;" horiz-adv-x="94" />
<glyph unicode="&#x200b;" />
<glyph unicode="&#x2010;" horiz-adv-x="688" d="M106 330v186h476v-186h-476z" />
<glyph unicode="&#x2011;" horiz-adv-x="688" d="M106 330v186h476v-186h-476z" />
<glyph unicode="&#x2012;" horiz-adv-x="688" d="M106 330v186h476v-186h-476z" />
<glyph unicode="&#x2013;" horiz-adv-x="829" d="M72 338v178h686v-178h-686z" />
<glyph unicode="&#x2014;" horiz-adv-x="1405" d="M119 338v178h1167v-178h-1167z" />
<glyph unicode="&#x2018;" horiz-adv-x="420" d="M104 868v201l208 158v-359h-208z" />
<glyph unicode="&#x2019;" horiz-adv-x="420" d="M312 1122v-200l-210 -158v358h210z" />
<glyph unicode="&#x201c;" horiz-adv-x="749" d="M432 868v201l211 158v-359h-211zM110 868v201l208 158v-359h-208z" />
<glyph unicode="&#x201d;" horiz-adv-x="749" d="M316 1124v-200l-210 -158v358h210zM639 1124v-200l-207 -158v358h207z" />
<glyph unicode="&#x2022;" horiz-adv-x="919" d="M215 418q0 50 19.5 94.5t53.5 78t78.5 53.5t94.5 20t94.5 -20t78 -53.5t53 -78t19.5 -94.5t-19.5 -95t-53 -78t-78 -53t-94.5 -20t-94.5 20t-78.5 53t-53.5 78t-19.5 95z" />
<glyph unicode="&#x202f;" horiz-adv-x="339" />
<glyph unicode="&#x205f;" horiz-adv-x="424" />
<glyph unicode="&#x20ac;" horiz-adv-x="958" d="M878 328q-13 -84 -46.5 -148t-84 -106t-114 -63t-135.5 -21q-86 0 -155 30t-124 84q-23 22 -39 46t-27 50t-18 53t-12 56h-97v158h90v47v58h-90v157h99q4 28 11.5 54t18.5 50.5t27 46.5q16 24 37 44q54 58 123 87q70 29 156 29q72 0 135.5 -21.5t114 -64t84.5 -105.5 t46 -147h-214q-7 30 -20.5 57t-33.5 47t-48 31t-64 11q-38 0 -69.5 -14t-51.5 -40q-11 -12 -20 -27.5t-15 -37.5h178v-157h-188v-58v-47h188v-158h-180q6 -28 15 -44.5t22 -30.5q20 -22 51 -37q32 -15 70 -15q36 0 64 11.5t48 31t33 45.5q13 28 21 58h214v0z" />
<glyph unicode="&#x2122;" horiz-adv-x="1325" d="M1088 393v303l-97 -162h-119l-96 162v-303h-152v633h134l174 -305l174 305h133v-633h-151zM385 895v-502h-153v502h-185v131h518v-131h-180z" />
<glyph unicode="&#x25cc;" horiz-adv-x="1149" d="M444 307l-82 -27l27 82q22 -34 55 -55zM534 708l42 78l36 -76q-18 2 -34 2q-24 0 -44 -4zM608 268l-32 -72l-38 72q18 -4 40 -4q16 0 30 4zM796 526l72 -38l-72 -32q4 14 5 32q-1 18 -5 38zM356 452l-78 40l78 38q-4 -22 -4 -42t4 -36zM396 622l-24 78l78 -26 q-32 -21 -54 -52zM754 352l20 -72l-70 23q30 20 50 49zM702 674l86 26l-30 -80q-24 32 -56 54z" />
<glyph unicode="&#x25fc;" horiz-adv-x="777" d="M0 778h778v-778h-778v778z" />
<glyph unicode="&#xf700;" horiz-adv-x="788" d="M-20 635q54 99 140 150q88 51 202 51q45 0 85.5 -7t78.5 -20l163 151l147 -130l-159 -142q22 -36 33.5 -80t11.5 -96v-512h-207v264q0 29 -11.5 43.5t-41.5 14.5h-100v168h114h20t19 -2v18q-4 72 -41.5 109t-111.5 37q-24 0 -47 -6.5t-43.5 -20t-37.5 -33.5 q-18 -22 -32 -50z" />
<glyph unicode="&#xf701;" d="M-938 1120h559v-154h-559v154z" />
<glyph unicode="&#xf702;" d="M-938 1120h364v104h195v-258h-559v154z" />
<glyph unicode="&#xf703;" d="M-938 966v154h226q0 38 14 71.5t38 58t56 38.5t68 14t68.5 -12.5t57 -35t38.5 -53.5t14 -69q0 -36 -14 -66t-38.5 -52t-57 -35t-68.5 -13h-402zM-584 1128q0 -10 4 -18t11 -15t15 -10t18 -3q22 0 36 13t14 33q0 22 -14 36t-36 14q-9 0 -17.5 -4t-15.5 -10.5t-11 -16 t-4 -19.5z" />
<glyph unicode="&#xf704;" d="M-938 1120h164v104h166v-104h63v104h166v-258h-559v154z" />
<glyph unicode="&#xf705;" d="M-614 1296h196v-319h-196v319z" />
<glyph unicode="&#xf706;" d="M-370 1153v-174h-488v143l74 14q8 2 13 10t5 18t-8 16t-20 9t-25.5 4t-24.5 1v160q60 0 109 -10t84 -31t53 -53t18 -78v-14.5t-2 -14.5h212z" />
<glyph unicode="&#xf707;" d="M-309 1130v-151h-236v174v11.5t-0.5 15.5t-2 15t-3.5 11l-37 -36q-10 -10 -25 -16.5t-31.5 -7t-33 4.5t-28.5 19l-44 40q-10 -22 -8 -41t12 -32t28 -21t40 -8v-135h-47q-42 0 -76.5 14.5t-60 38.5t-40 57t-14.5 70t10 66t26 51t35 37.5t36 25.5q14 7 30.5 12t33.5 4.5 t35 -7t34 -21.5l31 -27l29 27q17 18 35 24.5t36.5 5.5t37.5 -8t38 -18q17 -9 33 -24.5t28 -35.5t19.5 -43.5t7.5 -49.5v-42h72z" />
<glyph unicode="&#xf708;" d="M-798 1090v166h120v116h186v-116h122v-166h-122v-113h-186v113h-120z" />
<glyph unicode="&#xf709;" d="M-738 981q0 53 7.5 91.5t20 65.5t29.5 44t36 26.5t40 12.5t42 3h193v-165h-181q-8 0 -10 -21.5t-2 -56.5h-175z" />
<glyph unicode="&#xf70a;" d="M-301 1306h199v-319h-199v319z" />
<glyph unicode="&#xf70b;" d="M-14 1161v-174h-533v143l74 15q8 2 13.5 9.5t5.5 17.5t-8.5 16t-20.5 9t-25.5 4t-23.5 1v160q60 0 109 -10t83 -31t53 -53.5t19 -77.5v-14q0 -7 -2 -15h256z" />
<glyph unicode="&#xf70c;" d="M-41 1140v-153h-297v177v11.5t-1 15.5t-2 15.5t-3 11.5l-39 -38q-10 -10 -25.5 -16t-31.5 -7t-32.5 4t-29.5 19l-45 42q-10 -23 -8.5 -42t12.5 -32.5t29 -21.5t41 -8v-137h-49q-42 0 -77 14.5t-61 39.5t-40.5 58t-14.5 71t10 67t25.5 52t35.5 39t38 26q14 7 30 11.5 t34 4.5t36 -6t35 -22l31 -30l28 30q18 18 37 24.5t38 5.5t38 -8.5t37 -17.5t34 -26t28.5 -36t20 -44t7.5 -50v-44h131z" />
<glyph unicode="&#xf70d;" d="M-420 1100v166h121v116h187v-116h120v-166h-120v-113h-187v113h-121z" />
<glyph unicode="&#xf70e;" d="M-467 987q0 52 7.5 90.5t19.5 64.5t29 42.5t36.5 25t40 11.5t41.5 3h291v-165h-278q-8 0 -10.5 -18.5t-2.5 -53.5h-174z" />
<glyph unicode="&#xf70f;" horiz-adv-x="1401" d="M336 221q0 -17 4 -27t20 -10h92v-184h-108q-58 0 -98 15t-66 44t-37.5 69t-11.5 91v237l-92 124q28 64 70 112t95.5 80t118.5 48t140 16q96 0 167.5 -24t118.5 -68t70 -107t23 -143v-164q0 -76 32 -117t88 -41q30 0 55 10.5t42 31t27 49.5t10 67v498h202v-514 q0 -66 -19 -125t-60 -103t-104 -70t-149 -26q-82 0 -143 21.5t-102.5 63t-62.5 101.5t-21 138v168q0 88 -44 132t-132 42q-21 0 -47 -2.5t-52 -10t-50 -20.5q-26 -13 -44 -35l68 -98v-269z" />
<glyph unicode="&#xf710;" d="M-504 1216q0 -14 1.5 -27.5t5 -23.5t8.5 -16t12 -6h524v-168h-555q-20 0 -42 3.5t-42 13.5t-38 27t-31 44t-21 65q-8 36 -8 88h186z" />
<glyph unicode="&#xf711;" d="M-748 1122q0 39 15 74t41 61t61 41t74 15q38 0 72.5 -15t60.5 -41t41 -60.5t15 -74.5q0 -38 -15 -72t-41 -60t-60 -41t-73 -15t-74 15t-61 41t-41 60t-15 72zM-612 1122q0 -24 15 -38.5t40 -14.5q24 0 39 15q16 14 16 38t-15 40t-40 16t-40 -16t-15 -40z" />
<glyph unicode="&#xf712;" d="M-758 1231q-12 0 -21 -5.5t-15.5 -14t-9.5 -19.5q-3 -10 -3 -22q0 -16 4.5 -29t12.5 -25l84 56q20 12 43 12t45 -12l84 -56q3 12 4.5 29t-4.5 35h153q10 -48 1 -86t-32 -66t-57.5 -47t-75.5 -29l-102 74q-8 4 -15.5 3.5t-13.5 -3.5l-100 -76q-39 13 -73.5 33.5t-60 48 t-40 63t-14.5 79.5q0 34 14 70t40 66t63 50q37 18 83 20h412v-149h-406z" />
<glyph unicode="&#xf713;" d="M-572 1536h193v-198h-193v198z" />
<glyph unicode="&#xf714;" d="M-104 1495v-157h-548v128l66 12q8 2 13 10t5 15q0 10 -7 15t-18 7.5t-23.5 3.5t-22.5 1v146q56 0 100 -9t75 -28.5t47.5 -49t16.5 -69.5v-12.5t-2 -12.5h298z" />
<glyph unicode="&#xf715;" d="M-102 1483v-145h-308v159v10.5t-0.5 14.5t-2 15t-3.5 11l-34 -36q-10 -9 -23.5 -15.5t-28 -7t-28.5 4.5q-15 6 -27 18l-43 40q-8 -22 -6.5 -39t11 -30t26.5 -20t39 -7v-125h-48q-37 0 -68.5 13.5t-55 36t-37 52.5t-13.5 64t9 60.5t23.5 47.5t32 35t33.5 23q13 7 28.5 11 t31.5 4t33 -6q17 -8 33 -22l24 -24l27 24q17 17 34 23.5t34 5.5t34.5 -7.5t34.5 -16.5q16 -8 30.5 -22.5t26 -32.5t18.5 -40t7 -44v-33h156z" />
<glyph unicode="&#xf716;" d="M-670 1440v149h111v107h168v-107h111v-149h-111v-102h-168v102h-111z" />
<glyph unicode="&#xf717;" d="M-547 1247q0 49 7 85t19.5 62t28.5 42t34.5 25t38 12t38.5 3h209v-163h-198q-6 0 -8.5 -16.5t-2.5 -49.5h-166z" />
<glyph unicode="&#xf718;" d="M-293 -547q0 12 -4 17.5t-10 5.5h-72v166h86q53 0 89.5 -8t59 -29t32.5 -60t10 -102v-145h-191v155z" />
<glyph unicode="&#xf719;" d="M-520 -522q0 2 -1 3q-1 3 -5 3h-60v156h96q42 0 70 -8t44.5 -26t23 -47t6.5 -69v-10q0 -10 8 -18q8 -9 24 -9t24 8.5t8 18.5v160h180v-160q0 -42 -16.5 -77t-45 -60t-66.5 -38t-82 -13q-45 0 -82.5 13t-65.5 38t-44 59t-16 76z" />
<glyph unicode="&#xf71a;" d="M-332 -463q0 24 9.5 46t25.5 38t37.5 25.5t46.5 9.5q24 0 46 -9.5t38 -25.5t25.5 -37.5t9.5 -46.5q0 -24 -9.5 -45.5t-25.5 -38t-37.5 -26t-46.5 -9.5q-24 0 -46 9.5t-38 26t-25.5 38t-9.5 45.5z" />
<glyph unicode="&#xf71d;" horiz-adv-x="1136" d="M836 622q-2 6 -6.5 12t-13.5 10t-24.5 7t-39.5 3v174h100q23 0 37 12q15 12 21 28l32 107h211l-51 -162q-28 -79 -80 -119q12 -24 13.5 -48.5t-3.5 -47.5l-104 -598h-172l-193 494l-193 -494h-176l-141 828h209l68 -478l162 478h141l163 -476z" />
<glyph unicode="&#xf881;" horiz-adv-x="1591" d="M912 682q52 74 124 114t158 40q146 0 220.5 -74.5t74.5 -212.5v-858h-205v854q0 24 -4.5 44t-15 33.5t-27.5 21.5t-43 8q-32 0 -62.5 -16t-58.5 -52zM840 -309h-205v791q0 88 -44 132t-132 42q-21 0 -47 -2.5t-52 -10t-51 -20.5t-43 -35l68 -98v-269q0 -17 6 -27 q4 -10 20 -10h92l-2 -184h-108q-58 0 -98 15t-66 44t-37.5 69t-11.5 91v237l-92 124q28 64 70 112t95.5 80t118.5 48t140 16q96 0 167.5 -24t118.5 -68t70 -107t23 -143v-803z" />
<glyph unicode="&#xf882;" horiz-adv-x="1607" d="M928 682q53 74 124.5 114t157.5 40q146 0 221 -74.5t75 -212.5v-858h-206v854q0 24 -4 44t-15 33.5t-28 21.5t-43 8q-32 0 -62 -16t-58 -52zM860 -307h-204v789q0 88 -44 132t-133 42q-20 0 -46 -2.5t-52.5 -10t-50.5 -20.5q-26 -13 -44 -35l68 -98v-271 q0 -50 -13.5 -85.5t-36 -60t-52 -39.5t-60 -23t-60.5 -10.5t-54 -2.5l-39 180q38 -2 60.5 4t33.5 15t14 20t3 21v218l-92 124q28 64 70 112t95.5 80t118.5 48q66 16 140 16q96 0 167 -24t118 -68t70 -107t23 -143v-801z" />
<glyph d="M-528 1071q-4 0 -5 -22.5t-1 -59.5h-181q0 54 7.5 92.5t21.5 64t34 40t44 20.5q10 30 27.5 46.5t39 24.5t45.5 9.5t44 1.5h77v-152h-81q-2 0 -4 -2t-2.5 -9t-0.5 -20v-34h-65z" />
<glyph horiz-adv-x="674" d="M-748 1122q0 39 15 74t41 61t61 41t74 15q38 0 72.5 -15t60.5 -41t41 -60.5t15 -74.5q0 -38 -15 -72t-41 -60t-60 -41t-73 -15t-74 15t-61 41t-41 60t-15 72zM-612 1122q0 -24 15 -38.5t40 -14.5q24 0 39 15q16 14 16 38t-15 40t-40 16t-40 -16t-15 -40zM-6 682 q52 74 124 114t158 40q146 0 221 -74.5t75 -212.5v-549h-206v545q0 24 -4 44t-15 33.5t-28 21.5t-43 8q-32 0 -62 -16t-58 -52z" />
<glyph horiz-adv-x="674" d="M-748 1122q0 39 15 74t41 61t61 41t74 15q38 0 72.5 -15t60.5 -41t41 -60.5t15 -74.5q0 -38 -15 -72t-41 -60t-60 -41t-73 -15t-74 15t-61 41t-41 60t-15 72zM-612 1122q0 -24 15 -38.5t40 -14.5q24 0 39 15q16 14 16 38t-15 40t-40 16t-40 -16t-15 -40zM-6 682 q52 74 124 114t158 40q146 0 221 -74.5t75 -212.5v-549h-206v545q0 24 -4 44t-15 33.5t-28 21.5t-43 8q-32 0 -62 -16t-58 -52z" />
<glyph d="M-764 1120h662v-154h-662v154z" />
<glyph d="M-764 1120h469v115h193v-269h-662v154z" />
<glyph d="M-764 966v154h326q0 39 14 72.5t38 58t56 38t68 13.5t69 -12.5t57 -35t38 -53.5t14 -69q0 -36 -14 -66t-38 -52t-57 -35t-69 -13h-502zM-309 1128q0 -10 4 -18t10.5 -15t15 -10t17.5 -3q22 0 36.5 13t14.5 33q0 22 -14.5 36t-36.5 14q-9 0 -17.5 -4t-15 -10.5t-10.5 -16 t-4 -19.5z" />
<glyph d="M-764 1120h266v115h166v-115h64v115h166v-269h-662v154z" />
<glyph d="M-1052 1120h718v-154h-718v154z" />
<glyph d="M-1052 1120h526v104h192v-258h-718v154z" />
<glyph d="M-1052 966v154h376q0 38 14 71.5t38 58t56 38.5t68 14t69 -12.5t57 -35t38 -53.5t14 -69q0 -36 -14 -66t-38 -52t-56 -35q-34 -13 -70 -13h-552zM-547 1128q0 -10 4 -18t10.5 -15t14.5 -10t18 -3q22 0 37 13t15 33q0 22 -15 36t-37 14q-10 0 -18 -4t-14.5 -10.5 t-10.5 -16t-4 -19.5z" />
<glyph d="M-1052 1120h323v104h166v-104h63v104h166v-258h-718v154z" />
<glyph d="M-524 1536h190v-198h-190v198z" />
<glyph d="M-196 1495v-157h-531v128l65 12q8 2 13.5 10t5.5 15q0 10 -7.5 15t-18.5 7.5t-23.5 3.5t-22.5 1v146q56 0 100 -9t75.5 -28.5t48 -49t16.5 -69.5q0 -6 -0.5 -12.5t-1.5 -12.5h281z" />
<glyph d="M-112 1483v-145h-308v159v10.5t-1 14.5t-2 15t-3 11l-35 -36q-10 -9 -23.5 -15.5t-27.5 -7t-28 4.5q-16 6 -28 18l-42 40q-8 -22 -7 -39t11 -30t27 -20t39 -7v-125h-48q-37 0 -68.5 13.5t-55 36t-37 52.5t-13.5 64t9 60.5t23 47.5t32 35t34 23q13 7 28.5 11t31.5 4t33 -6 q17 -8 33 -22l24 -24l26 24q17 17 34.5 23.5t34.5 5.5t34.5 -7.5t34.5 -16.5q16 -8 30 -22.5t26 -32.5t19 -40t7 -44v-33h156z" />
<glyph d="M-626 1440v149h110v107h168v-107h110v-149h-110v-102h-168v102h-110z" />
<glyph d="M-1050 1120h948v-154h-948v154z" />
<glyph d="M-1050 1120h753v115h195v-269h-948v154z" />
<glyph d="M-1050 966v154h612q0 39 14 72.5t38 58t56 38t68 13.5t69 -12.5t57 -35t38 -53.5t14 -69q0 -36 -14 -66t-38 -52t-57 -35t-69 -13h-788zM-309 1128q0 -10 4 -18t10.5 -15t15 -10t17.5 -3q22 0 36.5 13t14.5 33q0 22 -14.5 36t-36.5 14q-9 0 -17.5 -4t-15 -10.5t-10.5 -16 t-4 -19.5z" />
<glyph d="M-1050 1120h552v115h166v-115h64v115h166v-269h-948v154z" />
<glyph d="M-295 1536h193v-248h-193v248z" />
<glyph d="M47 1445v-157h-543v128l66 12q8 2 13 10t5 15q0 10 -7 15t-18 7.5t-24 3.5t-23 1v146q56 0 100 -9t75.5 -28.5t48 -49t16.5 -69.5v-12.5t-2 -12.5h293z" />
<glyph d="M51 1433v-145h-307v159v10.5t-1 14.5t-2 15t-3 11l-35 -36q-10 -9 -23.5 -15.5t-27.5 -7t-28 4.5q-16 6 -28 18l-42 40q-8 -22 -7 -39t11 -30t27 -20t38 -7v-125h-47q-37 0 -68.5 13.5t-55 36t-37 52.5t-13.5 64t9 60.5t23 47.5t32 35t34 23q13 7 28.5 11t31.5 4t32 -6 q17 -8 33 -22l25 -24l26 24q17 17 34.5 23.5t34.5 5.5t34 -7.5t35 -16.5q16 -8 30 -22.5t26 -32.5t19 -40t7 -44v-33h155z" />
<glyph d="M-393 1390v149h111v107h168v-107h110v-149h-110v-102h-168v102h-111z" />
<glyph d="M-848 1120h717v-154h-717v154z" />
<glyph d="M-848 1120h522v115h195v-269h-717v154z" />
<glyph d="M-528 946q0 52 7 91t20 67t31 45t37.5 27t41 14t41.5 4h290v-176h-278q-8 0 -10 -18t-2 -54h-178z" />
<glyph horiz-adv-x="788" d="M700 286q0 -72 -24.5 -127.5t-66 -93.5t-97.5 -57q-54 -20 -116 -20t-118 19.5t-98 57.5t-67 93.5t-25 127.5v254q0 72 25 128t67 94t98 58t118 20t117 -20t96.5 -58t66 -94t24.5 -128v-254zM500 538q0 27 -8 49.5t-22 37.5t-33 24t-41 9q-23 0 -42.5 -9t-34 -24 t-22.5 -37t-8 -50v-249q0 -28 8 -50t22.5 -37.5t33.5 -23.5t43 -8q22 0 41 8t33 23.5t22 37.5t8 50v249z" />
<glyph horiz-adv-x="727" d="M330 0v616l-207 -178v222l209 182h200v-842h-202z" />
<glyph horiz-adv-x="788" d="M80 0v176l320 268q22 18 38.5 35t28.5 33t18.5 32t6.5 34q0 44 -28.5 69t-76.5 25q-20 0 -38.5 -7t-33.5 -21t-24 -37t-9 -54h-200q0 70 24 125.5t65.5 94.5t97 60t118.5 21q64 0 120 -19t97 -54.5t64 -86.5q24 -50 24 -114q0 -42 -13 -77t-37 -67t-56 -63t-70 -64 l-150 -127h342v-182h-628z" />
<glyph horiz-adv-x="788" d="M723 106q0 -80 -26.5 -139t-72.5 -97.5t-106 -57.5t-127 -19q-43 0 -84 8t-78 24.5t-68 41.5t-54 60t-36 80t-13 101h200q2 -34 13 -58t29 -40.5t41.5 -24t49.5 -7.5q28 0 52 8.5t41 25t26 40.5q10 24 10 56q0 30 -9 55.5t-26 43t-42.5 27.5t-57.5 10h-35v176h35 q32 0 55 9t37.5 24.5t21.5 37t7 47.5q0 29 -9 51.5t-25 37.5t-37.5 23t-45.5 8t-45.5 -8.5t-37 -24t-25 -37.5t-11.5 -50h-202q2 72 28 128t69 94.5t100.5 59t123.5 20.5q70 0 129 -22t101.5 -61t66.5 -93t24 -119q0 -40 -8 -72.5t-23 -57.5t-34.5 -45t-42.5 -34 q26 -16 48 -37t38 -49t25.5 -64t9.5 -80z" />
<glyph horiz-adv-x="788" d="M652 0v-164h-196v164h-419v188l354 696h223l-352 -692h194v189h196v-189h94v-192h-94z" />
<glyph horiz-adv-x="788" d="M717 150q0 -75 -18.5 -141t-58 -114.5t-101 -77t-146.5 -28.5q-73 0 -129.5 20.5t-96 60.5t-63.5 97t-30 131h198q8 -60 37 -92t84 -32q25 0 46 7t38 25q24 22 31.5 58t7.5 86q0 40 -7 73t-21 55.5t-36 35.5q-22 12 -54 12q-27 0 -47.5 -8t-34.5 -20.5t-22 -27.5 q-10 -14 -14 -28h-186v586h600v-183h-414v-191q24 17 62 29.5t84 12.5q76 0 131 -27t90.5 -73t52.5 -109t17 -137z" />
<glyph horiz-adv-x="788" d="M733 328q0 -80 -26 -143.5t-71.5 -106.5t-108 -65.5t-134.5 -22.5t-133.5 22t-107.5 65t-72.5 105t-26.5 142q0 38 7.5 74t20 71.5t29 71t34.5 71.5l204 416h226l-197 -387q23 4 39 5q14 1 30 1q54 0 106 -21.5t92 -62.5t64.5 -100t24.5 -135zM528 326q0 34 -10 61.5 t-27.5 46.5t-42.5 29t-55 10t-54.5 -9.5t-42.5 -28.5t-28 -47q-10 -26 -10 -62t10 -64t28 -47.5t42.5 -30t54.5 -10.5q29 0 54 10.5t43 30t28 47.5t10 64z" />
<glyph horiz-adv-x="788" d="M391 -200h-221l332 845h-250v-149h-194v332h665v-179z" />
<glyph horiz-adv-x="788" d="M729 303q0 -78 -26.5 -136.5t-71.5 -97.5t-106 -59t-129 -20q-70 0 -132 20t-108 59t-72 98t-26 136q0 46 11 82t28.5 63.5t39 47.5t43.5 34q-19 14 -38.5 34t-35 46t-24.5 60q-10 34 -10 74q0 69 25.5 123.5t70 91.5t103.5 57t125 20q64 0 122 -20t102 -57t69.5 -92 t25.5 -123q0 -40 -9.5 -74t-25.5 -60t-35 -46t-39 -34q22 -14 44 -34t39 -47.5t28.5 -63.5t11.5 -82zM512 738q0 26 -9 47t-24 36t-37 24q-20 9 -46 9t-49 -9t-39.5 -24t-25.5 -37q-10 -20 -10 -46q0 -28 9.5 -50.5t26 -38t38.5 -24.5q24 -9 50 -9t47 9t36 24.5t24 38 t9 50.5zM524 305q0 28 -9.5 52.5t-27 43t-41.5 29.5q-22 10 -50 10q-30 0 -55 -10.5t-43 -29t-28 -43.5t-10 -52q0 -28 10 -51.5t28 -41.5t43 -28t55 -10q28 0 51 10t40.5 28t27 41.5t9.5 51.5z" />
<glyph horiz-adv-x="788" d="M53 502q0 80 26.5 143t72.5 106t109 66t135 23q71 0 132.5 -22.5t107 -65t71.5 -104.5t26 -142q0 -38 -7.5 -74t-20 -72t-29 -71t-33.5 -72l-205 -415h-225l197 386q-23 -4 -38.5 -5t-31.5 -1q-36 0 -71.5 10t-67.5 28.5t-59 46t-46.5 62.5t-31 78.5t-11.5 94.5zM258 504 q0 -34 10 -62t28 -47t43 -29t57 -10q29 0 53.5 10t41.5 29t27 46t10 63q0 35 -10 63.5t-27 47.5t-42 30t-53 11q-30 0 -55.5 -11t-44 -30t-28.5 -47.5t-10 -63.5z" />
<glyph d="M-504 1288q-16 0 -27 -7t-18 -18t-9.5 -24t-2.5 -25q0 -16 4.5 -34t11.5 -31l86 57q22 12 46 13q25 1 45 -13l88 -57q3 12 4.5 30.5t-4.5 34.5h157q10 -49 0.5 -87.5t-33.5 -67.5t-59 -48.5t-78 -29.5l-105 76q-16 10 -28 0l-104 -78q-40 13 -75 35.5t-61.5 53 t-41.5 68.5t-15 82q0 24 6.5 49.5t18.5 50t30 46.5t41 39t50 27.5t59 11.5h424v-154h-410z" />
<glyph d="M-504 1196q0 -14 1.5 -28t5 -24.5t8.5 -17t12 -6.5h598v-154h-629q-20 0 -42 3t-42 11.5t-38 24t-31 41t-21 62t-8 88.5h186z" />
<glyph d="M-572 1575h193v-299h-193v299z" />
<glyph d="M-375 1434v-158h-440v129l65 12q8 2 13.5 9.5t5.5 15.5q0 9 -7.5 14.5t-18.5 8t-23.5 3t-22.5 0.5v146q56 0 100 -9t75.5 -28t48 -49t16.5 -70q0 -6 -0.5 -12t-1.5 -12h190z" />
<glyph d="M-368 1417v-141h-220v156v10t-1 13l-2 14t-3 11l-34 -34q-10 -9 -23 -15t-27 -6.5t-28 4.5t-25 17l-43 39q-8 -21 -6.5 -38t11 -30t25.5 -20t38 -7v-120h-46q-36 0 -67 13t-54 35t-36 51t-13 63q0 33 9 59t23 46t31 34q17 15 33 23q12 7 27 10.5t31 3.5t32 -6.5t32 -20.5 l24 -25l24 25q17 16 34.5 22.5t34 5.5t33.5 -7.5t34 -16.5q14 -8 28.5 -22t26 -31.5t18.5 -38.5t7 -43v-33h72z" />
<glyph d="M-670 1378v150h111v106h168v-106h111v-150h-111v-102h-168v102h-111z" />
<glyph d="M-295 1575h193v-299h-193v299z" />
<glyph d="M47 1434v-158h-543v129l66 12q8 2 13 9.5t5 15.5q0 9 -7 14.5t-18 8t-24 3t-23 0.5v146q56 0 100 -9t75.5 -28t48 -49t16.5 -70v-12t-2 -12h293z" />
<glyph d="M51 1422v-146h-307v160v10.5t-1 14t-2 14.5t-3 12l-35 -37q-10 -9 -23.5 -15t-27.5 -6.5t-28 4.5q-16 5 -28 17l-42 41q-8 -22 -7 -39.5t11 -30.5t27 -20t38 -7v-124h-47q-37 0 -68.5 13t-55 36t-37 53t-13.5 64t9 61t23 47t32 34q18 16 34 24q13 7 28.5 11t31.5 3.5 t32.5 -6.5t32.5 -21l25 -25l26 25q17 17 34.5 23.5t34.5 6t34 -7.5t35 -17q16 -8 30 -23t26 -33t19 -39.5t7 -44.5v-32h155z" />
<glyph d="M-393 1378v150h111v106h168v-106h110v-150h-110v-102h-168v102h-111z" />
<glyph d="M-646 1536h192v-198h-192v198z" />
<glyph d="M-744 1440v150h110v106h168v-106h110v-150h-110v-102h-168v102h-110z" />
</font>
</defs>
</svg>
